<svg width="24" height="24" viewBox="0 0 24 24" fill="none" xmlns="http://www.w3.org/2000/svg">
<rect x="0.7" y="0.7" width="22.6" height="22.6" rx="11.3" fill="#FFF2ED"/>
<path opacity="0.12" d="M8.5 16.2281V17.8333H15.5V16.2281C15.5 15.7461 15.5 15.505 15.4399 15.2817C15.3867 15.0838 15.2991 14.8968 15.1811 14.7292C15.048 14.54 14.8628 14.3857 14.4925 14.0771L12 12L9.50748 14.0771C9.13715 14.3857 8.95199 14.54 8.81887 14.7292C8.70093 14.8968 8.61334 15.0838 8.56009 15.2817C8.5 15.505 8.5 15.7461 8.5 16.2281Z" fill="#FF8659"/>
<path d="M12.0007 11.9998L9.50813 9.92274C9.1378 9.61413 8.95264 9.45983 8.81952 9.27068C8.70158 9.10308 8.61399 8.91607 8.56074 8.71817C8.50065 8.49481 8.50065 8.25378 8.50065 7.77172V6.1665M12.0007 11.9998L14.4932 9.92274C14.8635 9.61413 15.0487 9.45983 15.1818 9.27068C15.2997 9.10308 15.3873 8.91607 15.4406 8.71817C15.5007 8.49481 15.5007 8.25378 15.5007 7.77172V6.1665M12.0007 11.9998L9.50813 14.0769C9.13781 14.3855 8.95264 14.5398 8.81952 14.729C8.70158 14.8966 8.61399 15.0836 8.56074 15.2815C8.50065 15.5049 8.50065 15.7459 8.50065 16.228V17.8332M12.0007 11.9998L14.4932 14.0769C14.8635 14.3855 15.0487 14.5398 15.1818 14.729C15.2997 14.8966 15.3873 15.0836 15.4406 15.2815C15.5007 15.5049 15.5007 15.7459 15.5007 16.228V17.8332M7.33398 6.1665H16.6673M7.33398 17.8332H16.6673" stroke="#FF8659" stroke-width="1.4" stroke-linecap="round" stroke-linejoin="round"/>
<rect x="0.7" y="0.7" width="22.6" height="22.6" rx="11.3" stroke="#FF8659" stroke-width="1.4"/>
</svg>
