<svg width="220" height="212" viewBox="0 0 220 212" fill="none" xmlns="http://www.w3.org/2000/svg">
<circle cx="110" cy="132" r="80" fill="#D6E0F7"/>
<circle cx="26" cy="72" r="8" fill="#94B0EC"/>
<circle cx="198" cy="178" r="6" fill="#94B0EC"/>
<circle cx="25" cy="190" r="10" fill="#94B0EC"/>
<circle cx="210" cy="98" r="10" fill="#94B0EC"/>
<circle cx="191" cy="63" r="7" fill="#94B0EC"/>
<path fill-rule="evenodd" clip-rule="evenodd" d="M39.166 85C39.166 45.8798 70.8792 14.1667 109.999 14.1667C149.12 14.1667 180.833 45.8799 180.833 85V131.042C180.833 144.734 169.733 155.833 156.041 155.833C142.349 155.833 131.249 144.734 131.249 131.042V116.875C131.249 103.183 142.349 92.0834 156.041 92.0834C159.843 92.0834 163.446 92.9393 166.666 94.4691V85C166.666 53.7039 141.295 28.3334 109.999 28.3334C78.7032 28.3334 53.3327 53.7039 53.3327 85V94.4691C56.553 92.9393 60.1554 92.0834 63.9577 92.0834C77.6497 92.0834 88.7493 103.183 88.7493 116.875V131.042C88.7493 144.734 77.6497 155.833 63.9577 155.833C50.2656 155.833 39.166 144.734 39.166 131.042V85Z" fill="#4272DD"/>
</svg>
