
<svg xmlns="http://www.w3.org/2000/svg" width="20" height="20" viewBox="0 0 20 20" fill="none"><path fill-rule="evenodd" clip-rule="evenodd" d="M1.66602 9.99935C1.66602 5.39698 5.39698 1.66602 9.99935 1.66602C14.6017 1.66602 18.3327 5.39698 18.3327 9.99935V15.416C18.3327 17.0268 17.0268 18.3327 15.416 18.3327C13.8052 18.3327 12.4993 17.0268 12.4993 15.416V13.7493C12.4993 12.1385 13.8052 10.8327 15.416 10.8327C15.8633 10.8327 16.2872 10.9334 16.666 11.1134V9.99935C16.666 6.31745 13.6812 3.33268 9.99935 3.33268C6.31745 3.33268 3.33268 6.31745 3.33268 9.99935V11.1134C3.71154 10.9334 4.13535 10.8327 4.58268 10.8327C6.19351 10.8327 7.49935 12.1385 7.49935 13.7493V15.416C7.49935 17.0268 6.19351 18.3327 4.58268 18.3327C2.97185 18.3327 1.66602 17.0268 1.66602 15.416V9.99935Z" fill="#7F7D83"></path></svg>
