<svg width="24" height="24" viewBox="0 0 24 24" fill="none" xmlns="http://www.w3.org/2000/svg">
<rect x="0.7" y="0.7" width="22.6" height="22.6" rx="11.3" fill="#F5F8FD"/>
<path d="M12.2346 5.6914C12.0795 5.65951 11.9196 5.65951 11.7645 5.6914C11.5853 5.72826 11.4251 5.818 11.2977 5.88933L11.263 5.90873C10.8815 6.12069 10.402 6.3871 9.89979 6.66623L15.1281 9.57086L16.4867 8.80663C16.7244 8.67294 16.8432 8.60609 16.8826 8.51842C16.9169 8.44198 16.9167 8.35449 16.882 8.27823C16.8422 8.19075 16.7231 8.12457 16.485 7.99219C15.5042 7.447 13.7645 6.48005 12.7361 5.90873L12.7014 5.88933C12.574 5.818 12.4138 5.72826 12.2346 5.6914Z" fill="#1751D0"/>
<path d="M13.9344 10.2423L8.69888 7.33368C8.2557 7.58 7.84241 7.80973 7.51414 7.9922C7.27599 8.12457 7.15692 8.19076 7.11713 8.27824C7.08244 8.35449 7.08222 8.44199 7.11652 8.51842C7.15587 8.6061 7.27471 8.67294 7.51238 8.80664L11.7708 11.202C11.8542 11.2489 11.8959 11.2724 11.9402 11.2816C11.9793 11.2897 12.0197 11.2897 12.0589 11.2816C12.1031 11.2724 12.1449 11.2489 12.2283 11.202L13.9344 10.2423Z" fill="#1751D0"/>
<path d="M17.8305 10.186C17.8303 9.92451 17.8302 9.79374 17.775 9.71739C17.7269 9.65078 17.6529 9.60755 17.5713 9.59835C17.4777 9.58779 17.3635 9.65202 17.1351 9.7805L12.8208 12.2073C12.7342 12.256 12.6909 12.2804 12.6593 12.3148C12.6315 12.3453 12.6104 12.3814 12.5975 12.4206C12.5829 12.465 12.5829 12.5147 12.5829 12.614V17.3829C12.5829 17.6438 12.5829 17.7742 12.6377 17.8505C12.6856 17.9171 12.7593 17.9605 12.8407 17.97C12.934 17.9809 13.0477 17.9178 13.275 17.7915C14.2471 17.2518 16.0138 16.2707 17.0528 15.6935L17.0896 15.6731C17.2244 15.5989 17.394 15.5055 17.5242 15.3642C17.6367 15.2421 17.7219 15.0973 17.774 14.9396C17.8343 14.7572 17.8336 14.5637 17.833 14.4097L17.8329 14.3677C17.8329 13.2225 17.8314 11.2746 17.8305 10.186Z" fill="#1751D0"/>
<path d="M11.1584 17.97C11.0651 17.9809 10.9514 17.9178 10.7241 17.7915C9.75207 17.2518 7.98537 16.2707 6.94634 15.6935L6.90949 15.6731C6.77466 15.5989 6.60515 15.5055 6.47497 15.3642C6.36241 15.2421 6.27724 15.0973 6.22513 14.9396C6.16486 14.7572 6.16557 14.5637 6.16613 14.4097L6.16623 14.3677C6.16623 13.2225 6.16771 11.2746 6.16862 10.1861C6.16884 9.92453 6.16895 9.79376 6.2241 9.71741C6.27221 9.6508 6.3462 9.60757 6.42785 9.59836C6.52144 9.5878 6.63564 9.65204 6.86403 9.78051L11.1784 12.2073C11.2649 12.256 11.3083 12.2804 11.3398 12.3149C11.3677 12.3454 11.3888 12.3814 11.4016 12.4207C11.4162 12.465 11.4162 12.5147 11.4162 12.6141V17.3829C11.4162 17.6438 11.4162 17.7742 11.3614 17.8505C11.3135 17.9171 11.2399 17.9604 11.1584 17.97Z" fill="#1751D0"/>
<rect x="0.7" y="0.7" width="22.6" height="22.6" rx="11.3" stroke="#1751D0" stroke-width="1.4"/>
</svg>
