<svg width="20" height="20" viewBox="0 0 20 20" fill="none" xmlns="http://www.w3.org/2000/svg">
<path fill-rule="evenodd" clip-rule="evenodd" d="M10 0.833984C4.93743 0.833984 0.833374 4.93804 0.833374 10.0007C0.833374 15.0633 4.93743 19.1673 10 19.1673C15.0626 19.1673 19.1667 15.0633 19.1667 10.0007C19.1667 4.93804 15.0626 0.833984 10 0.833984ZM14.3393 8.08991C14.6647 7.76447 14.6647 7.23683 14.3393 6.9114C14.0139 6.58596 13.4862 6.58596 13.1608 6.9114L8.75004 11.3221L6.8393 9.4114C6.51386 9.08596 5.98622 9.08596 5.66078 9.4114C5.33535 9.73683 5.33535 10.2645 5.66078 10.5899L8.16078 13.0899C8.48622 13.4153 9.01386 13.4153 9.3393 13.0899L14.3393 8.08991Z" fill="#14AD4D"/>
</svg>
