<svg width="20" height="20" viewBox="0 0 20 20" fill="none" xmlns="http://www.w3.org/2000/svg">
<path fill-rule="evenodd" clip-rule="evenodd" d="M10 1.66699C5.40002 1.66699 1.66669 5.40033 1.66669 10.0003C1.66669 14.6003 5.40002 18.3337 10 18.3337C14.6 18.3337 18.3334 14.6003 18.3334 10.0003C18.3334 5.40033 14.6 1.66699 10 1.66699ZM10 16.667C6.32502 16.667 3.33335 13.6753 3.33335 10.0003C3.33335 6.32533 6.32502 3.33366 10 3.33366C13.675 3.33366 16.6667 6.32533 16.6667 10.0003C16.6667 13.6753 13.675 16.667 10 16.667ZM13.2334 6.90866L8.33335 11.8087L6.76669 10.242C6.44169 9.91699 5.91669 9.91699 5.59169 10.242C5.26669 10.567 5.26669 11.092 5.59169 11.417L7.75002 13.5753C8.07502 13.9003 8.60002 13.9003 8.92502 13.5753L14.4167 8.08366C14.7417 7.75866 14.7417 7.23366 14.4167 6.90866C14.0917 6.58366 13.5584 6.58366 13.2334 6.90866Z" fill="#1751D0"/>
</svg>
