<svg width="20" height="20" viewBox="0 0 20 20" fill="none" xmlns="http://www.w3.org/2000/svg">
<path fill-rule="evenodd" clip-rule="evenodd" d="M9.99935 1.66602C5.39935 1.66602 1.66602 5.39935 1.66602 9.99935C1.66602 14.5993 5.39935 18.3327 9.99935 18.3327C14.5993 18.3327 18.3327 14.5993 18.3327 9.99935C18.3327 5.39935 14.5993 1.66602 9.99935 1.66602ZM9.99935 16.666C6.32435 16.666 3.33268 13.6743 3.33268 9.99935C3.33268 6.32435 6.32435 3.33268 9.99935 3.33268C13.6743 3.33268 16.666 6.32435 16.666 9.99935C16.666 13.6743 13.6743 16.666 9.99935 16.666ZM13.2327 6.90768L8.33268 11.8077L6.76602 10.241C6.44102 9.91602 5.91602 9.91602 5.59102 10.241C5.26602 10.566 5.26602 11.091 5.59102 11.416L7.74935 13.5743C8.07435 13.8993 8.59935 13.8993 8.92435 13.5743L14.416 8.08268C14.741 7.75768 14.741 7.23268 14.416 6.90768C14.091 6.58268 13.5577 6.58268 13.2327 6.90768Z" fill="#1751D0"/>
</svg>
