<svg width="16" height="16" viewBox="0 0 16 16" fill="none" xmlns="http://www.w3.org/2000/svg">
<path fill-rule="evenodd" clip-rule="evenodd" d="M10.2761 8.00033L11.1758 7.10064C12.5572 5.71921 13.3333 3.84559 13.3333 1.89195C13.3333 1.21543 12.7849 0.666992 12.1084 0.666992H3.89162C3.21509 0.666992 2.66666 1.21543 2.66666 1.89195C2.66666 3.84559 3.44274 5.71921 4.82417 7.10064L5.72385 8.00033L4.82417 8.90001C3.44274 10.2814 2.66666 12.1551 2.66666 14.1087C2.66666 14.7852 3.21509 15.3337 3.89162 15.3337H12.1084C12.7849 15.3337 13.3333 14.7852 13.3333 14.1087C13.3333 12.1551 12.5572 10.2814 11.1758 8.90001L10.2761 8.00033ZM8.66664 7.333C8.78375 7.33305 8.84231 7.33308 8.90228 7.32204C8.99167 7.3056 9.08485 7.26703 9.1597 7.21549C9.20993 7.18091 9.25106 7.13978 9.33332 7.05752L10.233 6.15784C11.0805 5.31032 11.6498 4.23659 11.8822 3.07857C11.9434 2.7732 11.9741 2.62052 11.9149 2.4493C11.8684 2.31468 11.745 2.16408 11.6222 2.092C11.4659 2.00033 11.2816 2.00033 10.913 2.00033H5.08694C4.71834 2.00033 4.53404 2.00033 4.3778 2.092C4.25497 2.16408 4.13158 2.31468 4.08507 2.4493C4.02592 2.62052 4.05655 2.7732 4.11782 3.07857C4.35014 4.23659 4.91946 5.31032 5.76698 6.15784L6.66666 7.05752C6.74801 7.13887 6.78868 7.17954 6.83811 7.21376C6.9137 7.2661 7.00757 7.305 7.09802 7.32149C7.15715 7.33227 7.21504 7.3323 7.3308 7.33236L8.66664 7.333Z" fill="#C9C9CC"/>
</svg>
