<svg width="24" height="24" viewBox="0 0 24 24" fill="none" xmlns="http://www.w3.org/2000/svg">
<path d="M12 15C12.4466 15 12.8905 15.0264 13.3281 15.0771C11.995 15.3824 11 16.5743 11 18C11 19.6568 12.3432 20.9999 14 21H15V21.0723C11.4437 21.3576 7.85686 21.1364 4.34855 20.4053C3.79591 20.2901 3.46682 19.712 3.74113 19.2188C4.34671 18.1311 5.30097 17.1747 6.5214 16.4463C8.09311 15.5083 10.0189 15 12 15Z" fill="#ADACB0"/>
<path d="M16.9154 21.0715L17.159 21.6191C17.2313 21.7822 17.3495 21.9207 17.499 22.0179C17.6486 22.1151 17.8232 22.1669 18.0015 22.1668C18.1799 22.1669 18.3545 22.1151 18.504 22.0179C18.6536 21.9207 18.7717 21.7822 18.8441 21.6191L19.0877 21.0715C19.1743 20.8771 19.3202 20.7151 19.5043 20.6085C19.6897 20.5016 19.904 20.4561 20.1168 20.4784L20.7127 20.5418C20.89 20.5606 21.069 20.5275 21.2279 20.4466C21.3869 20.3656 21.5189 20.2403 21.608 20.0858C21.6973 19.9314 21.7398 19.7544 21.7304 19.5764C21.721 19.3983 21.6602 19.2267 21.5553 19.0826L21.2025 18.5978C21.0769 18.424 21.0097 18.2147 21.0108 18.0002C21.0108 17.7862 21.0785 17.5778 21.2043 17.4048L21.5571 16.9201C21.6621 16.7759 21.7229 16.6044 21.7323 16.4263C21.7416 16.2482 21.6991 16.0712 21.6099 15.9168C21.5208 15.7623 21.3887 15.637 21.2298 15.5561C21.0709 15.4751 20.8919 15.4421 20.7145 15.4608L20.1187 15.5242C19.9059 15.5466 19.6915 15.501 19.5062 15.3941C19.3216 15.2869 19.1758 15.1241 19.0895 14.9289L18.8441 14.3812C18.7717 14.2182 18.6536 14.0796 18.504 13.9824C18.3545 13.8852 18.1799 13.8335 18.0015 13.8335C17.8232 13.8335 17.6486 13.8852 17.499 13.9824C17.3495 14.0796 17.2313 14.2182 17.159 14.3812L16.9154 14.9289C16.8292 15.1241 16.6833 15.2869 16.4988 15.3941C16.3134 15.501 16.099 15.5466 15.8863 15.5242L15.2886 15.4608C15.1112 15.4421 14.9322 15.4751 14.7733 15.5561C14.6144 15.637 14.4823 15.7623 14.3932 15.9168C14.304 16.0712 14.2615 16.2482 14.2708 16.4263C14.2802 16.6044 14.341 16.7759 14.446 16.9201L14.7988 17.4048C14.9246 17.5778 14.9923 17.7862 14.9923 18.0002C14.9923 18.2141 14.9246 18.4225 14.7988 18.5955L14.446 19.0803C14.341 19.2244 14.2802 19.396 14.2708 19.574C14.2615 19.7521 14.304 19.9291 14.3932 20.0835C14.4824 20.2379 14.6145 20.3631 14.7734 20.4441C14.9323 20.525 15.1112 20.5582 15.2886 20.5395L15.8844 20.4761C16.0972 20.4537 16.3116 20.4993 16.4969 20.6062C16.6821 20.7131 16.8287 20.876 16.9154 21.0715Z" stroke="#C3C3C3" stroke-width="0.6" stroke-linecap="round" stroke-linejoin="round"/>
<path d="M18 19.25C18.6904 19.25 19.25 18.6903 19.25 18C19.25 17.3096 18.6904 16.75 18 16.75C17.3096 16.75 16.75 17.3096 16.75 18C16.75 18.6903 17.3096 19.25 18 19.25Z" stroke="#C3C3C3" stroke-width="0.6" stroke-linecap="round" stroke-linejoin="round"/>
<path d="M16.9154 21.0715L17.159 21.6191C17.2313 21.7822 17.3495 21.9207 17.499 22.0179C17.6486 22.1151 17.8232 22.1669 18.0015 22.1668C18.1799 22.1669 18.3545 22.1151 18.504 22.0179C18.6536 21.9207 18.7717 21.7822 18.8441 21.6191L19.0877 21.0715C19.1743 20.8771 19.3202 20.7151 19.5043 20.6085C19.6897 20.5016 19.904 20.4561 20.1168 20.4784L20.7127 20.5418C20.89 20.5606 21.069 20.5275 21.2279 20.4466C21.3869 20.3656 21.5189 20.2403 21.608 20.0858C21.6973 19.9314 21.7398 19.7544 21.7304 19.5764C21.721 19.3983 21.6602 19.2267 21.5553 19.0826L21.2025 18.5978C21.0769 18.424 21.0097 18.2147 21.0108 18.0002C21.0108 17.7862 21.0785 17.5778 21.2043 17.4048L21.5571 16.9201C21.6621 16.7759 21.7229 16.6044 21.7323 16.4263C21.7416 16.2482 21.6991 16.0712 21.6099 15.9168C21.5208 15.7623 21.3887 15.637 21.2298 15.5561C21.0709 15.4751 20.8919 15.4421 20.7145 15.4608L20.1187 15.5242C19.9059 15.5466 19.6915 15.501 19.5062 15.3941C19.3216 15.2869 19.1758 15.1241 19.0895 14.9289L18.8441 14.3812C18.7717 14.2182 18.6536 14.0796 18.504 13.9824C18.3545 13.8852 18.1799 13.8335 18.0015 13.8335C17.8232 13.8335 17.6486 13.8852 17.499 13.9824C17.3495 14.0796 17.2313 14.2182 17.159 14.3812L16.9154 14.9289C16.8292 15.1241 16.6833 15.2869 16.4988 15.3941C16.3134 15.501 16.099 15.5466 15.8863 15.5242L15.2886 15.4608C15.1112 15.4421 14.9322 15.4751 14.7733 15.5561C14.6144 15.637 14.4823 15.7623 14.3932 15.9168C14.304 16.0712 14.2615 16.2482 14.2708 16.4263C14.2802 16.6044 14.341 16.7759 14.446 16.9201L14.7988 17.4048C14.9246 17.5778 14.9923 17.7862 14.9923 18.0002C14.9923 18.2141 14.9246 18.4225 14.7988 18.5955L14.446 19.0803C14.341 19.2244 14.2802 19.396 14.2708 19.574C14.2615 19.7521 14.304 19.9291 14.3932 20.0835C14.4824 20.2379 14.6145 20.3631 14.7734 20.4441C14.9323 20.525 15.1112 20.5582 15.2886 20.5395L15.8844 20.4761C16.0972 20.4537 16.3116 20.4993 16.4969 20.6062C16.6821 20.7131 16.8287 20.876 16.9154 21.0715Z" stroke="#ADACB0" stroke-width="0.6" stroke-linecap="round" stroke-linejoin="round"/>
<path d="M18 19.25C18.6904 19.25 19.25 18.6903 19.25 18C19.25 17.3096 18.6904 16.75 18 16.75C17.3096 16.75 16.75 17.3096 16.75 18C16.75 18.6903 17.3096 19.25 18 19.25Z" stroke="#ADACB0" stroke-width="0.6" stroke-linecap="round" stroke-linejoin="round"/>
<path d="M12 13C14.7614 13 17 10.7614 17 8C17 5.23858 14.7614 3 12 3C9.23858 3 7 5.23858 7 8C7 10.7614 9.23858 13 12 13Z" fill="#ADACB0"/>
</svg>
