<svg xmlns="http://www.w3.org/2000/svg" xmlns:xlink="http://www.w3.org/1999/xlink" width="1080" zoomAndPan="magnify" viewBox="0 0 810 809.999993" height="1080" preserveAspectRatio="xMidYMid meet" version="1.0"><defs><clipPath id="3f183500fd"><path d="M 98.855469 41.710938 L 710.855469 41.710938 L 710.855469 768.460938 L 98.855469 768.460938 Z M 98.855469 41.710938 " clip-rule="nonzero"/></clipPath></defs><g clip-path="url(#3f183500fd)"><path fill="#000000" d="M 707.914062 244.886719 L 707.859375 244.804688 C 706.757812 242.734375 705.332031 240.769531 703.636719 238.96875 L 703.179688 238.511719 C 703.179688 238.511719 546.921875 82.222656 546.921875 82.222656 C 545.816406 80.394531 544.5 78.699219 542.992188 77.164062 C 537.9375 72.082031 531.078125 69.230469 523.898438 69.230469 L 146.265625 69.230469 C 131.421875 69.230469 119.371094 81.28125 119.371094 96.128906 L 119.371094 741.730469 C 119.371094 756.578125 131.421875 768.628906 146.265625 768.628906 L 684.164062 768.628906 C 699.011719 768.628906 711.0625 756.578125 711.0625 741.730469 L 711.0625 257.53125 C 711.0625 252.957031 709.929688 248.652344 707.914062 244.886719 Z M 495.902344 257.339844 C 495.847656 264.523438 498.671875 271.410156 503.699219 276.496094 C 508.757812 281.578125 515.640625 284.429688 522.796875 284.429688 L 657.269531 284.429688 C 657.269531 284.429688 657.269531 714.828125 657.269531 714.828125 C 657.269531 714.828125 173.160156 714.828125 173.160156 714.828125 C 173.160156 714.828125 173.160156 123.03125 173.160156 123.03125 C 173.160156 123.03125 496.816406 123.03125 496.816406 123.03125 C 496.816406 123.03125 495.902344 257.339844 495.902344 257.339844 Z M 469.007812 -38.371094 L 38.6875 -38.371094 C 23.839844 -38.371094 11.792969 -26.320312 11.792969 -11.46875 L 11.792969 634.128906 C 11.792969 648.980469 23.839844 661.03125 38.6875 661.03125 C 53.53125 661.03125 65.582031 648.980469 65.582031 634.128906 L 65.582031 15.429688 C 65.582031 15.429688 469.007812 15.429688 469.007812 15.429688 C 483.851562 15.429688 495.902344 3.378906 495.902344 -11.46875 C 495.902344 -26.320312 483.851562 -38.371094 469.007812 -38.371094 Z M 253.847656 538.070312 L 549.691406 538.070312 C 564.535156 538.070312 576.585938 525.992188 576.585938 511.171875 C 576.585938 496.320312 564.535156 484.269531 549.691406 484.269531 L 253.847656 484.269531 C 239 484.269531 226.953125 496.320312 226.953125 511.171875 C 226.953125 525.992188 239 538.070312 253.847656 538.070312 Z M 253.847656 445.828125 L 469.007812 445.828125 C 483.851562 445.828125 495.902344 433.777344 495.902344 418.929688 C 495.902344 404.082031 483.851562 392.03125 469.007812 392.03125 L 253.847656 392.03125 C 239 392.03125 226.953125 404.082031 226.953125 418.929688 C 226.953125 433.777344 239 445.828125 253.847656 445.828125 Z M 253.847656 353.589844 L 415.214844 353.589844 C 430.0625 353.589844 442.109375 341.539062 442.109375 326.691406 C 442.109375 311.867188 430.0625 299.789062 415.214844 299.789062 L 253.847656 299.789062 C 239 299.789062 226.953125 311.867188 226.953125 326.691406 C 226.953125 341.539062 239 353.589844 253.847656 353.589844 Z M 549.878906 230.628906 L 619.242188 230.628906 L 550.335938 161.738281 Z M 549.878906 230.628906 " fill-opacity="1" fill-rule="evenodd"/></g></svg>