<svg width="17" height="17" viewBox="0 0 17 17" fill="none" xmlns="http://www.w3.org/2000/svg">
<path d="M7.42448 10.8332C7.42448 11.2934 7.79757 11.6665 8.25781 11.6665C8.71805 11.6665 9.09115 11.2934 9.09115 10.8332V2.84501L11.8352 5.58909C12.1607 5.91453 12.6883 5.91453 13.0137 5.58909C13.3392 5.26366 13.3392 4.73602 13.0137 4.41058L8.84707 0.243915C8.52163 -0.0815228 7.99399 -0.0815228 7.66856 0.243915L3.50189 4.41058C3.17645 4.73602 3.17645 5.26366 3.50189 5.58909C3.82733 5.91453 4.35497 5.91453 4.6804 5.58909L7.42448 2.84501V10.8332Z" fill="#7F7D83"/>
<path d="M0.833334 9.99463C1.29357 9.99463 1.66667 10.3677 1.66667 10.828V11.828C1.66667 12.5418 1.66732 13.027 1.69796 13.4021C1.72781 13.7674 1.78192 13.9543 1.84832 14.0846C2.00811 14.3982 2.26308 14.6532 2.57668 14.813C2.70702 14.8794 2.89385 14.9335 3.2592 14.9633C3.63427 14.994 4.11952 14.9946 4.83333 14.9946H11.8333C12.5472 14.9946 13.0324 14.994 13.4075 14.9633C13.7728 14.9335 13.9597 14.8794 14.09 14.813C14.4036 14.6532 14.6586 14.3982 14.8183 14.0846C14.8848 13.9543 14.9389 13.7674 14.9687 13.4021C14.9994 13.027 15 12.5418 15 11.828V10.828C15 10.3677 15.3731 9.99463 15.8333 9.99463C16.2936 9.99463 16.6667 10.3677 16.6667 10.828V11.8624C16.6667 12.5332 16.6667 13.0868 16.6298 13.5378C16.5916 14.0062 16.5094 14.4368 16.3034 14.8413C15.9838 15.4685 15.4738 15.9784 14.8466 16.298C14.4422 16.5041 14.0116 16.5862 13.5432 16.6245C13.0922 16.6613 12.5386 16.6613 11.8678 16.6613H4.79892C4.12811 16.6613 3.57448 16.6613 3.12348 16.6245C2.65507 16.5862 2.22448 16.5041 1.82003 16.298C1.19283 15.9784 0.682891 15.4685 0.363313 14.8413C0.157237 14.4368 0.0751001 14.0062 0.0368291 13.5378C-1.847e-05 13.0868 -9.96487e-06 12.5332 3.43284e-07 11.8624V10.828C3.43284e-07 10.3677 0.373097 9.99463 0.833334 9.99463Z" fill="#7F7D83"/>
</svg>
