<svg xmlns="http://www.w3.org/2000/svg" xmlns:xlink="http://www.w3.org/1999/xlink" width="100" zoomAndPan="magnify" viewBox="0 0 75 74.999997" height="100" preserveAspectRatio="xMidYMid meet" version="1.0"><defs><clipPath id="99337e18d6"><path d="M 7.199219 8.738281 L 67.5 8.738281 L 67.5 69.039062 L 7.199219 69.039062 Z M 7.199219 8.738281 " clip-rule="nonzero"/></clipPath><clipPath id="6cbb8cd5ef"><path d="M 37.351562 8.738281 C 20.699219 8.738281 7.199219 22.234375 7.199219 38.886719 C 7.199219 55.539062 20.699219 69.039062 37.351562 69.039062 C 54 69.039062 67.5 55.539062 67.5 38.886719 C 67.5 22.234375 54 8.738281 37.351562 8.738281 Z M 37.351562 8.738281 " clip-rule="nonzero"/></clipPath><clipPath id="f4f8a05ddb"><path d="M 16.265625 17.324219 L 56.765625 17.324219 L 56.765625 60.824219 L 16.265625 60.824219 Z M 16.265625 17.324219 " clip-rule="nonzero"/></clipPath></defs><g clip-path="url(#99337e18d6)"><g clip-path="url(#6cbb8cd5ef)"><path fill="#fecd01" d="M 7.199219 8.738281 L 67.5 8.738281 L 67.5 69.039062 L 7.199219 69.039062 Z M 7.199219 8.738281 " fill-opacity="1" fill-rule="nonzero"/></g></g><g clip-path="url(#f4f8a05ddb)"><path fill="#000000" d="M -23.195312 -42.621094 C -23.082031 3.148438 -22.675781 20.171875 -21.835938 14.253906 C -20.242188 3.035156 -12.648438 -19.4375 -6.902344 -29.945312 C 7.371094 -56.042969 27.757812 -76.566406 53.589844 -90.824219 C 65.089844 -97.171875 87.085938 -104.753906 98.84375 -106.425781 C 104.765625 -107.265625 87.738281 -107.675781 41.96875 -107.789062 L -23.355469 -107.945312 Z M 146.726562 -106.445312 C 179.480469 -101.757812 215.238281 -80.800781 236.851562 -53.621094 C 251.914062 -34.683594 263.066406 -10.511719 266.960938 11.652344 C 268.8125 22.175781 268.90625 19.601562 269.023438 -42.621094 L 269.144531 -107.945312 L 203.820312 -107.789062 C 158.960938 -107.675781 141.074219 -107.257812 146.726562 -106.445312 M 30.941406 25.09375 C 28.527344 27.332031 26.929688 31.25 24.902344 39.882812 C 21.464844 54.523438 21.464844 54.554688 25.34375 54.554688 C 28.019531 54.554688 28.777344 53.648438 29.964844 49.027344 C 35.277344 28.363281 35.140625 28.554688 44.863281 28.554688 C 50.195312 28.554688 52.042969 27.1875 52.042969 23.246094 C 52.042969 22.589844 48.035156 22.054688 43.132812 22.054688 C 35.59375 22.054688 33.71875 22.519531 30.941406 25.09375 M 63.972656 32.828125 C 63.207031 33.75 62.027344 36.96875 61.351562 39.976562 C 60.402344 44.195312 60.503906 45.453125 61.78125 45.453125 C 62.695312 45.453125 63.746094 44.28125 64.121094 42.851562 C 64.675781 40.734375 65.894531 40.253906 70.695312 40.253906 C 73.9375 40.253906 76.953125 39.667969 77.394531 38.953125 C 77.890625 38.152344 75.636719 37.652344 71.511719 37.652344 C 62.429688 37.652344 63.371094 34.550781 72.621094 34.011719 C 76.320312 33.792969 79.34375 33.0625 79.34375 32.386719 C 79.34375 30.492188 65.582031 30.890625 63.972656 32.828125 M 83.226562 33.125 C 82.324219 34.210938 81.519531 37.285156 81.441406 39.949219 L 81.292969 44.804688 L 88.445312 45.140625 C 92.378906 45.324219 96.390625 44.957031 97.363281 44.324219 C 98.332031 43.691406 99.433594 40.46875 99.804688 37.164062 L 100.484375 31.152344 L 92.671875 31.152344 C 87.273438 31.152344 84.359375 31.761719 83.226562 33.125 M 104.042969 37.664062 C 102.265625 45.066406 103.308594 47.621094 106.296875 43.179688 C 108.730469 39.554688 112.597656 39.398438 114.445312 42.851562 C 115.210938 44.28125 116.722656 45.453125 117.804688 45.453125 C 119.246094 45.453125 119.453125 44.882812 118.582031 43.328125 C 117.734375 41.8125 118.113281 40.484375 119.898438 38.699219 C 124.464844 34.132812 122.488281 31.847656 113.601562 31.417969 L 105.632812 31.035156 Z M 126.285156 32.933594 C 125.472656 33.914062 124.667969 36.984375 124.5 39.757812 L 124.195312 44.804688 L 131.667969 45.191406 C 136.269531 45.433594 139.144531 45.058594 139.144531 44.21875 C 139.144531 43.464844 136.511719 42.851562 133.292969 42.851562 C 128.394531 42.851562 127.445312 42.449219 127.445312 40.359375 C 127.445312 34.886719 128.808594 33.753906 135.382812 33.753906 C 138.882812 33.753906 141.746094 33.167969 141.746094 32.453125 C 141.746094 30.429688 128.007812 30.859375 126.285156 32.933594 M 145.710938 33.625 C 144.984375 34.988281 144.234375 38.058594 144.042969 40.449219 L 143.695312 44.804688 L 151.167969 45.191406 C 155.769531 45.433594 158.644531 45.058594 158.644531 44.21875 C 158.644531 43.464844 156.011719 42.851562 152.792969 42.851562 C 148.460938 42.851562 146.945312 42.347656 146.945312 40.902344 C 146.945312 39.429688 148.535156 38.953125 153.445312 38.953125 C 157.019531 38.953125 159.945312 38.410156 159.945312 37.746094 C 159.945312 37.085938 157.3125 36.691406 154.09375 36.871094 C 149.933594 37.105469 148.246094 36.703125 148.246094 35.476562 C 148.246094 34.273438 150.210938 33.753906 154.746094 33.753906 C 158.320312 33.753906 161.246094 33.167969 161.246094 32.453125 C 161.246094 31.738281 158.046875 31.152344 154.140625 31.152344 C 148.488281 31.152344 146.765625 31.660156 145.710938 33.625 M 164.65625 35.214844 C 162.734375 44.820312 163.125 45.453125 170.996094 45.453125 C 174.925781 45.453125 178.144531 44.867188 178.144531 44.152344 C 178.144531 43.4375 175.839844 42.851562 173.019531 42.851562 C 166.839844 42.851562 166.292969 42.144531 167.6875 35.957031 C 168.496094 32.371094 168.351562 31.152344 167.121094 31.152344 C 166.210938 31.152344 165.105469 32.980469 164.65625 35.214844 M 184.070312 34.042969 C 182.957031 35.632812 182.042969 38.847656 182.042969 41.191406 L 182.042969 45.453125 L 189.519531 45.433594 C 193.628906 45.421875 197.789062 44.910156 198.761719 44.292969 C 199.734375 43.679688 200.832031 40.46875 201.207031 37.164062 L 201.882812 31.152344 L 193.988281 31.152344 C 187.300781 31.152344 185.78125 31.597656 184.070312 34.042969 M 206.8125 33.625 C 206.085938 34.988281 205.332031 38.058594 205.140625 40.449219 L 204.792969 44.804688 L 212.472656 45.199219 C 220.660156 45.621094 222.289062 44.640625 222.324219 39.277344 C 222.34375 36.796875 221.652344 36.351562 217.792969 36.351562 C 212.773438 36.351562 211.527344 38.527344 216.167969 39.1875 C 221.136719 39.894531 219.394531 42.179688 213.570312 42.601562 C 208.796875 42.949219 208.042969 42.652344 208.042969 40.433594 C 208.042969 34.761719 209.34375 33.753906 216.632812 33.753906 C 220.488281 33.753906 223.644531 33.167969 223.644531 32.453125 C 223.644531 31.730469 220.191406 31.152344 215.890625 31.152344 C 209.597656 31.152344 207.886719 31.621094 206.8125 33.625 M 85.410156 34.621094 C 84.933594 35.09375 84.542969 37.144531 84.542969 39.167969 C 84.542969 42.601562 84.898438 42.851562 89.777344 42.851562 C 94.195312 42.851562 95.207031 42.335938 96.277344 39.519531 C 96.972656 37.683594 97.542969 35.636719 97.542969 34.96875 C 97.542969 33.59375 86.746094 33.285156 85.410156 34.621094 M 107.945312 36.429688 C 107.945312 38.730469 108.632812 39.054688 112.808594 38.707031 C 116.207031 38.421875 117.800781 37.617188 118.105469 36.027344 C 118.457031 34.164062 117.582031 33.753906 113.238281 33.753906 C 108.761719 33.753906 107.945312 34.164062 107.945312 36.429688 M 185.902344 37.113281 C 184.15625 41.707031 185.226562 42.851562 191.253906 42.851562 C 195.601562 42.851562 196.609375 42.328125 197.6875 39.492188 C 199.433594 34.898438 198.363281 33.753906 192.335938 33.753906 C 187.988281 33.753906 186.980469 34.277344 185.902344 37.113281 M 35.933594 39.710938 C 34.410156 43.683594 35.195312 44.292969 41.320312 43.898438 C 46.589844 43.5625 47.554688 43.074219 47.910156 40.578125 C 48.289062 37.917969 47.796875 37.652344 42.523438 37.652344 C 38.433594 37.652344 36.488281 38.257812 35.933594 39.710938 M -23.195312 119.226562 L -23.355469 184.554688 L 41.96875 184.433594 C 104.195312 184.316406 106.769531 184.21875 96.246094 182.367188 C 59.984375 175.996094 25.371094 153.808594 3.183594 122.714844 C -8.6875 106.078125 -19.207031 80.628906 -21.855469 62.132812 C -22.664062 56.480469 -23.085938 74.367188 -23.195312 119.226562 M 266.734375 65.277344 C 264.699219 78.25 257.074219 99.03125 249.742188 111.585938 C 228.421875 148.089844 189.953125 175.265625 149.542969 182.367188 C 139.019531 184.21875 141.59375 184.316406 203.820312 184.433594 L 269.144531 184.554688 L 269.144531 119.554688 C 269.144531 83.804688 268.980469 54.554688 268.78125 54.554688 C 268.582031 54.554688 267.660156 59.378906 266.734375 65.277344 " fill-opacity="1" fill-rule="evenodd"/></g></svg>