<svg width="164" height="31" viewBox="0 0 164 31" fill="none" xmlns="http://www.w3.org/2000/svg">
<g clip-path="url(#clip0_243_851)">
<g filter="url(#filter0_i_243_851)">
<circle cx="32.5" cy="15.5" r="13.75" fill="white"/>
</g>
<g filter="url(#filter1_i_243_851)">
<path fill-rule="evenodd" clip-rule="evenodd" d="M15.1355 30.5C15.1354 30.5 15.1353 30.5 15.1351 30.5C6.77623 30.5 0 23.7843 0 15.5C0 7.21573 6.77623 0.5 15.1351 0.5C15.1353 0.5 15.1354 0.5 15.1355 0.5V30.5Z" fill="white"/>
</g>
<g filter="url(#filter2_i_243_851)">
<path fill-rule="evenodd" clip-rule="evenodd" d="M49.8645 0.500001C49.8646 0.500001 49.8647 0.500003 49.8649 0.500003C58.2238 0.500002 65 7.21573 65 15.5C65 23.7843 58.2238 30.5 49.8649 30.5C49.8647 30.5 49.8646 30.5 49.8645 30.5L49.8645 0.500001Z" fill="white"/>
</g>
<path d="M81.74 12.108C81.1 12.108 80.52 12.004 80 11.796C79.48 11.58 79.032 11.276 78.656 10.884C78.288 10.492 78.004 10.024 77.804 9.48C77.604 8.928 77.504 8.312 77.504 7.632C77.504 6.944 77.604 6.328 77.804 5.784C78.004 5.232 78.292 4.76 78.668 4.368C79.044 3.976 79.488 3.676 80 3.468C80.52 3.26 81.1 3.156 81.74 3.156C82.444 3.156 83.072 3.28 83.624 3.528C84.184 3.768 84.64 4.112 84.992 4.56C85.352 5.008 85.576 5.536 85.664 6.144H84.62C84.54 5.736 84.372 5.376 84.116 5.064C83.86 4.752 83.532 4.508 83.132 4.332C82.732 4.148 82.268 4.056 81.74 4.056C81.092 4.056 80.528 4.2 80.048 4.488C79.568 4.776 79.2 5.188 78.944 5.724C78.688 6.252 78.56 6.888 78.56 7.632C78.56 8.184 78.632 8.684 78.776 9.132C78.928 9.572 79.14 9.948 79.412 10.26C79.692 10.564 80.028 10.8 80.42 10.968C80.812 11.128 81.252 11.208 81.74 11.208C82.26 11.208 82.72 11.12 83.12 10.944C83.528 10.768 83.86 10.52 84.116 10.2C84.38 9.88 84.548 9.504 84.62 9.072L85.664 9.084C85.592 9.692 85.38 10.224 85.028 10.68C84.676 11.136 84.216 11.488 83.648 11.736C83.088 11.984 82.452 12.108 81.74 12.108ZM88.7295 12.108C88.3455 12.108 87.9935 12.036 87.6735 11.892C87.3615 11.74 87.0895 11.528 86.8575 11.256C86.6255 10.976 86.4455 10.636 86.3175 10.236C86.1975 9.828 86.1375 9.364 86.1375 8.844C86.1375 8.156 86.2455 7.568 86.4615 7.08C86.6855 6.592 86.9895 6.224 87.3735 5.976C87.7655 5.72 88.2175 5.592 88.7295 5.592C89.0975 5.592 89.4295 5.652 89.7255 5.772C90.0295 5.884 90.2855 6.048 90.4935 6.264C90.7015 6.472 90.8575 6.72 90.9615 7.008H91.0215L91.0575 5.7H91.9935V12H91.0215V10.68H90.9615C90.8015 11.104 90.5295 11.448 90.1455 11.712C89.7615 11.976 89.2895 12.108 88.7295 12.108ZM89.0535 11.292C89.4775 11.292 89.8335 11.192 90.1215 10.992C90.4095 10.792 90.6295 10.536 90.7815 10.224C90.9335 9.912 91.0095 9.58 91.0095 9.228V8.46C91.0095 8.108 90.9335 7.776 90.7815 7.464C90.6295 7.144 90.4095 6.888 90.1215 6.696C89.8335 6.496 89.4775 6.396 89.0535 6.396C88.6695 6.396 88.3335 6.492 88.0455 6.684C87.7575 6.868 87.5335 7.14 87.3735 7.5C87.2135 7.86 87.1335 8.308 87.1335 8.844C87.1335 9.372 87.2135 9.82 87.3735 10.188C87.5335 10.548 87.7575 10.824 88.0455 11.016C88.3335 11.2 88.6695 11.292 89.0535 11.292ZM95.48 12.12C94.64 12.12 93.992 11.928 93.536 11.544C93.088 11.16 92.864 10.656 92.864 10.032H93.836C93.836 10.504 93.992 10.852 94.304 11.076C94.616 11.292 95.016 11.4 95.504 11.4C96.008 11.4 96.392 11.308 96.656 11.124C96.92 10.94 97.052 10.68 97.052 10.344C97.052 10.08 96.996 9.876 96.884 9.732C96.772 9.588 96.596 9.48 96.356 9.408C96.116 9.328 95.804 9.26 95.42 9.204C95.06 9.148 94.732 9.084 94.436 9.012C94.148 8.932 93.9 8.828 93.692 8.7C93.484 8.564 93.324 8.392 93.212 8.184C93.1 7.976 93.044 7.72 93.044 7.416C93.044 7.032 93.144 6.704 93.344 6.432C93.552 6.16 93.836 5.952 94.196 5.808C94.564 5.656 94.992 5.58 95.48 5.58C95.992 5.58 96.428 5.66 96.788 5.82C97.148 5.98 97.424 6.208 97.616 6.504C97.808 6.792 97.908 7.14 97.916 7.548H96.968C96.96 7.252 96.892 7.016 96.764 6.84C96.644 6.656 96.472 6.52 96.248 6.432C96.032 6.344 95.772 6.3 95.468 6.3C95.004 6.3 94.644 6.396 94.388 6.588C94.14 6.772 94.016 7.016 94.016 7.32C94.016 7.544 94.076 7.728 94.196 7.872C94.316 8.016 94.5 8.128 94.748 8.208C94.996 8.28 95.308 8.344 95.684 8.4C96.02 8.448 96.328 8.508 96.608 8.58C96.888 8.652 97.136 8.752 97.352 8.88C97.568 9.008 97.736 9.184 97.856 9.408C97.984 9.632 98.048 9.916 98.048 10.26C98.048 10.876 97.816 11.34 97.352 11.652C96.888 11.964 96.264 12.12 95.48 12.12ZM98.9518 12V3.252H99.9118V7.008H99.9838C100.176 6.544 100.472 6.196 100.872 5.964C101.272 5.724 101.708 5.604 102.18 5.604C102.508 5.604 102.808 5.652 103.08 5.748C103.36 5.844 103.6 6 103.8 6.216C104.008 6.432 104.168 6.712 104.28 7.056C104.392 7.392 104.448 7.804 104.448 8.292V12H103.476V8.484C103.476 8.012 103.416 7.624 103.296 7.32C103.184 7.016 103.008 6.792 102.768 6.648C102.536 6.496 102.236 6.42 101.868 6.42C101.476 6.42 101.132 6.516 100.836 6.708C100.54 6.9 100.312 7.16 100.152 7.488C99.9918 7.808 99.9118 8.176 99.9118 8.592V12H98.9518ZM110.364 12.108C109.908 12.108 109.492 12.032 109.116 11.88C108.748 11.728 108.428 11.508 108.156 11.22C107.892 10.932 107.684 10.592 107.532 10.2C107.388 9.8 107.316 9.356 107.316 8.868C107.316 8.22 107.44 7.652 107.688 7.164C107.936 6.676 108.288 6.296 108.744 6.024C109.208 5.744 109.748 5.604 110.364 5.604C110.82 5.604 111.232 5.68 111.6 5.832C111.976 5.976 112.296 6.192 112.56 6.48C112.824 6.768 113.028 7.112 113.172 7.512C113.316 7.912 113.388 8.36 113.388 8.856C113.388 9.496 113.264 10.06 113.016 10.548C112.776 11.036 112.428 11.42 111.972 11.7C111.516 11.972 110.98 12.108 110.364 12.108ZM110.364 11.268C110.772 11.268 111.128 11.176 111.432 10.992C111.736 10.8 111.972 10.524 112.14 10.164C112.316 9.796 112.404 9.36 112.404 8.856C112.404 8.48 112.356 8.144 112.26 7.848C112.164 7.544 112.028 7.288 111.852 7.08C111.676 6.864 111.464 6.7 111.216 6.588C110.968 6.476 110.684 6.42 110.364 6.42C109.956 6.42 109.596 6.52 109.284 6.72C108.98 6.912 108.74 7.188 108.564 7.548C108.396 7.908 108.312 8.348 108.312 8.868C108.312 9.236 108.356 9.572 108.444 9.876C108.54 10.172 108.676 10.424 108.852 10.632C109.036 10.84 109.256 11 109.512 11.112C109.768 11.216 110.052 11.268 110.364 11.268ZM114.167 12V5.7H115.091L115.127 7.008H115.199C115.391 6.544 115.687 6.196 116.087 5.964C116.487 5.724 116.923 5.604 117.395 5.604C117.723 5.604 118.023 5.652 118.295 5.748C118.575 5.844 118.815 6 119.015 6.216C119.223 6.432 119.383 6.712 119.495 7.056C119.607 7.392 119.663 7.804 119.663 8.292V12H118.691V8.484C118.691 8.012 118.631 7.624 118.511 7.32C118.399 7.016 118.223 6.792 117.983 6.648C117.751 6.496 117.451 6.42 117.083 6.42C116.691 6.42 116.347 6.516 116.051 6.708C115.755 6.9 115.527 7.16 115.367 7.488C115.207 7.808 115.127 8.176 115.127 8.592V12H114.167ZM123.179 12V3.252H126.623C127.447 3.252 128.151 3.436 128.735 3.804C129.319 4.164 129.767 4.672 130.079 5.328C130.391 5.984 130.547 6.752 130.547 7.632C130.547 8.288 130.459 8.884 130.283 9.42C130.107 9.956 129.847 10.416 129.503 10.8C129.167 11.184 128.755 11.48 128.267 11.688C127.787 11.896 127.239 12 126.623 12H123.179ZM124.199 11.1H126.491C126.947 11.1 127.359 11.028 127.727 10.884C128.095 10.732 128.411 10.508 128.675 10.212C128.939 9.916 129.139 9.552 129.275 9.12C129.419 8.68 129.491 8.176 129.491 7.608C129.491 6.84 129.367 6.2 129.119 5.688C128.871 5.176 128.519 4.792 128.063 4.536C127.615 4.28 127.091 4.152 126.491 4.152H124.199V11.1ZM134.013 12.108C133.397 12.108 132.865 11.976 132.417 11.712C131.969 11.44 131.621 11.06 131.373 10.572C131.133 10.084 131.013 9.516 131.013 8.868C131.013 8.212 131.133 7.64 131.373 7.152C131.613 6.656 131.953 6.276 132.393 6.012C132.841 5.74 133.365 5.604 133.965 5.604C134.645 5.604 135.201 5.756 135.633 6.06C136.073 6.356 136.389 6.764 136.581 7.284C136.781 7.796 136.849 8.376 136.785 9.024H131.973C131.989 9.504 132.081 9.916 132.249 10.26C132.417 10.596 132.649 10.856 132.945 11.04C133.249 11.216 133.605 11.304 134.013 11.304C134.485 11.304 134.881 11.196 135.201 10.98C135.529 10.756 135.737 10.46 135.825 10.092H136.761C136.705 10.492 136.549 10.844 136.293 11.148C136.045 11.452 135.721 11.688 135.321 11.856C134.929 12.024 134.493 12.108 134.013 12.108ZM131.985 8.448L131.889 8.268H135.945L135.837 8.472C135.853 7.984 135.777 7.588 135.609 7.284C135.449 6.972 135.225 6.748 134.937 6.612C134.649 6.468 134.321 6.396 133.953 6.396C133.569 6.396 133.229 6.48 132.933 6.648C132.645 6.808 132.421 7.044 132.261 7.356C132.101 7.66 132.009 8.024 131.985 8.448ZM137.596 12V3.252H138.568V12H137.596ZM139.796 12V5.7H140.768V12H139.796ZM139.796 4.656V3.252H140.768V4.656H139.796ZM143.353 12L141.037 5.7H142.093L143.509 9.84L143.929 11.136H143.965L144.361 9.84L145.777 5.7H146.821L144.529 12H143.353ZM149.543 12.108C148.927 12.108 148.395 11.976 147.947 11.712C147.499 11.44 147.151 11.06 146.903 10.572C146.663 10.084 146.543 9.516 146.543 8.868C146.543 8.212 146.663 7.64 146.903 7.152C147.143 6.656 147.483 6.276 147.923 6.012C148.371 5.74 148.895 5.604 149.495 5.604C150.175 5.604 150.731 5.756 151.163 6.06C151.603 6.356 151.919 6.764 152.111 7.284C152.311 7.796 152.379 8.376 152.315 9.024H147.503C147.519 9.504 147.611 9.916 147.779 10.26C147.947 10.596 148.179 10.856 148.475 11.04C148.779 11.216 149.135 11.304 149.543 11.304C150.015 11.304 150.411 11.196 150.731 10.98C151.059 10.756 151.267 10.46 151.355 10.092H152.291C152.235 10.492 152.079 10.844 151.823 11.148C151.575 11.452 151.251 11.688 150.851 11.856C150.459 12.024 150.023 12.108 149.543 12.108ZM147.515 8.448L147.419 8.268H151.475L151.367 8.472C151.383 7.984 151.307 7.588 151.139 7.284C150.979 6.972 150.755 6.748 150.467 6.612C150.179 6.468 149.851 6.396 149.483 6.396C149.099 6.396 148.759 6.48 148.463 6.648C148.175 6.808 147.951 7.044 147.791 7.356C147.631 7.66 147.539 8.024 147.515 8.448ZM153.125 12V5.7H153.989L154.049 6.864H154.097C154.233 6.464 154.473 6.156 154.817 5.94C155.161 5.724 155.545 5.616 155.969 5.616C156.041 5.616 156.109 5.62 156.173 5.628C156.237 5.628 156.297 5.632 156.353 5.64V6.564C156.297 6.556 156.237 6.552 156.173 6.552C156.109 6.544 156.041 6.54 155.969 6.54C155.601 6.54 155.281 6.608 155.009 6.744C154.737 6.88 154.521 7.076 154.361 7.332C154.209 7.58 154.117 7.884 154.085 8.244V12H153.125ZM156.368 14.004V13.2H157.016C157.208 13.2 157.372 13.172 157.508 13.116C157.644 13.06 157.76 12.976 157.856 12.864C157.96 12.752 158.044 12.608 158.108 12.432L158.528 11.352V11.784L155.936 5.7H157.004L158.588 9.768L158.888 10.56H158.936L159.212 9.768L160.712 5.7H161.732L159.02 12.672C158.9 12.992 158.756 13.248 158.588 13.44C158.42 13.64 158.22 13.784 157.988 13.872C157.756 13.96 157.48 14.004 157.16 14.004H156.368Z" fill="#94B0EC"/>
<path d="M82.328 28.144C81.2933 28.144 80.424 27.984 79.72 27.664C79.0267 27.344 78.504 26.896 78.152 26.32C77.8 25.744 77.6187 25.088 77.608 24.352H79.768C79.7787 24.7893 79.8747 25.168 80.056 25.488C80.248 25.808 80.536 26.0587 80.92 26.24C81.304 26.4213 81.8 26.512 82.408 26.512C83.1333 26.512 83.7147 26.3787 84.152 26.112C84.5893 25.8347 84.808 25.4293 84.808 24.896C84.808 24.5867 84.76 24.3307 84.664 24.128C84.568 23.9147 84.408 23.7387 84.184 23.6C83.96 23.4613 83.6613 23.344 83.288 23.248C82.9253 23.152 82.4667 23.056 81.912 22.96C81.2507 22.8533 80.664 22.7147 80.152 22.544C79.6507 22.3627 79.2293 22.144 78.888 21.888C78.5467 21.632 78.2907 21.3227 78.12 20.96C77.9493 20.5867 77.864 20.144 77.864 19.632C77.864 18.928 78.04 18.32 78.392 17.808C78.7547 17.296 79.2667 16.9013 79.928 16.624C80.5893 16.336 81.3787 16.192 82.296 16.192C83.2027 16.192 83.976 16.336 84.616 16.624C85.2667 16.912 85.768 17.3173 86.12 17.84C86.472 18.352 86.648 18.9493 86.648 19.632H84.52C84.4987 19.216 84.3867 18.8747 84.184 18.608C83.9813 18.3307 83.7093 18.128 83.368 18C83.0373 17.872 82.6533 17.808 82.216 17.808C81.768 17.808 81.3787 17.872 81.048 18C80.728 18.128 80.4827 18.3093 80.312 18.544C80.1413 18.768 80.056 19.04 80.056 19.36C80.056 19.7547 80.152 20.0587 80.344 20.272C80.5467 20.4747 80.8667 20.6347 81.304 20.752C81.752 20.8693 82.328 20.9867 83.032 21.104C83.5333 21.1893 84.0187 21.296 84.488 21.424C84.968 21.552 85.3947 21.744 85.768 22C86.152 22.2453 86.456 22.5867 86.68 23.024C86.904 23.4507 87.016 24.0053 87.016 24.688C87.016 25.3707 86.84 25.9733 86.488 26.496C86.136 27.0187 85.6133 27.424 84.92 27.712C84.2267 28 83.3627 28.144 82.328 28.144ZM88.4239 30.672L88.4399 19.488H90.3599L90.4239 21.056H90.5519C90.7545 20.544 91.0959 20.128 91.5759 19.808C92.0665 19.488 92.6585 19.328 93.3519 19.328C93.8639 19.328 94.3279 19.424 94.7439 19.616C95.1705 19.7973 95.5332 20.0747 95.8319 20.448C96.1412 20.8213 96.3759 21.2853 96.5359 21.84C96.7065 22.384 96.7919 23.0187 96.7919 23.744C96.7919 24.704 96.6479 25.5147 96.3599 26.176C96.0719 26.8267 95.6665 27.3227 95.1439 27.664C94.6319 27.9947 94.0345 28.16 93.3519 28.16C92.8932 28.16 92.4772 28.0907 92.1039 27.952C91.7305 27.8027 91.4105 27.6 91.1439 27.344C90.8879 27.0773 90.6905 26.7733 90.5519 26.432H90.4239V30.672H88.4239ZM92.6159 26.528C93.0425 26.528 93.4159 26.4267 93.7359 26.224C94.0559 26.0107 94.3012 25.7013 94.4719 25.296C94.6532 24.88 94.7439 24.3627 94.7439 23.744C94.7439 23.1147 94.6532 22.5973 94.4719 22.192C94.3012 21.776 94.0559 21.4667 93.7359 21.264C93.4159 21.0613 93.0425 20.96 92.6159 20.96C92.1359 20.96 91.7359 21.072 91.4159 21.296C91.0959 21.52 90.8559 21.808 90.6959 22.16C90.5359 22.512 90.4559 22.8907 90.4559 23.296V24.192C90.4559 24.4907 90.4985 24.7787 90.5839 25.056C90.6799 25.3333 90.8132 25.584 90.9839 25.808C91.1652 26.0213 91.3892 26.1973 91.6559 26.336C91.9332 26.464 92.2532 26.528 92.6159 26.528ZM101.925 28.144C101.285 28.144 100.709 28.048 100.197 27.856C99.6849 27.6533 99.2369 27.36 98.8529 26.976C98.4795 26.592 98.1915 26.128 97.9889 25.584C97.7969 25.04 97.7009 24.4267 97.7009 23.744C97.7009 22.8693 97.8662 22.1013 98.1969 21.44C98.5382 20.7787 99.0235 20.2613 99.6529 19.888C100.282 19.5147 101.04 19.328 101.925 19.328C102.554 19.328 103.125 19.4293 103.637 19.632C104.149 19.8347 104.586 20.128 104.949 20.512C105.322 20.896 105.61 21.36 105.813 21.904C106.016 22.4373 106.117 23.0507 106.117 23.744C106.117 24.608 105.946 25.3707 105.605 26.032C105.274 26.6933 104.794 27.2107 104.165 27.584C103.546 27.9573 102.8 28.144 101.925 28.144ZM101.909 26.496C102.346 26.496 102.73 26.3947 103.061 26.192C103.392 25.9787 103.648 25.6693 103.829 25.264C104.01 24.848 104.101 24.3413 104.101 23.744C104.101 23.296 104.048 22.9013 103.941 22.56C103.845 22.208 103.701 21.9147 103.509 21.68C103.317 21.4453 103.088 21.2693 102.821 21.152C102.554 21.0347 102.256 20.976 101.925 20.976C101.488 20.976 101.098 21.0827 100.757 21.296C100.426 21.4987 100.17 21.808 99.9889 22.224C99.8075 22.6293 99.7169 23.136 99.7169 23.744C99.7169 24.192 99.7649 24.592 99.8609 24.944C99.9675 25.2853 100.117 25.5733 100.309 25.808C100.501 26.032 100.73 26.2027 100.997 26.32C101.274 26.4373 101.578 26.496 101.909 26.496ZM110.049 28C109.526 28 109.116 27.9253 108.817 27.776C108.529 27.616 108.326 27.392 108.209 27.104C108.092 26.816 108.033 26.4693 108.033 26.064V21.104H106.465V19.488H108.033V17.088L110.017 16.88V19.488H111.825V21.104H110.017V25.696C110.017 25.9627 110.076 26.144 110.193 26.24C110.31 26.3253 110.492 26.368 110.737 26.368H111.825V28H110.049Z" fill="white"/>
</g>
<defs>
<filter id="filter0_i_243_851" x="16.75" y="1.75" width="29.5" height="32.5" filterUnits="userSpaceOnUse" color-interpolation-filters="sRGB">
<feFlood flood-opacity="0" result="BackgroundImageFix"/>
<feBlend mode="normal" in="SourceGraphic" in2="BackgroundImageFix" result="shape"/>
<feColorMatrix in="SourceAlpha" type="matrix" values="0 0 0 0 0 0 0 0 0 0 0 0 0 0 0 0 0 0 127 0" result="hardAlpha"/>
<feOffset dx="-2" dy="5"/>
<feGaussianBlur stdDeviation="3"/>
<feComposite in2="hardAlpha" operator="arithmetic" k2="-1" k3="1"/>
<feColorMatrix type="matrix" values="0 0 0 0 0 0 0 0 0 0 0 0 0 0 0 0 0 0 0.25 0"/>
<feBlend mode="normal" in2="shape" result="effect1_innerShadow_243_851"/>
</filter>
<filter id="filter1_i_243_851" x="-2" y="0.5" width="17.1355" height="35" filterUnits="userSpaceOnUse" color-interpolation-filters="sRGB">
<feFlood flood-opacity="0" result="BackgroundImageFix"/>
<feBlend mode="normal" in="SourceGraphic" in2="BackgroundImageFix" result="shape"/>
<feColorMatrix in="SourceAlpha" type="matrix" values="0 0 0 0 0 0 0 0 0 0 0 0 0 0 0 0 0 0 127 0" result="hardAlpha"/>
<feOffset dx="-2" dy="5"/>
<feGaussianBlur stdDeviation="3"/>
<feComposite in2="hardAlpha" operator="arithmetic" k2="-1" k3="1"/>
<feColorMatrix type="matrix" values="0 0 0 0 0 0 0 0 0 0 0 0 0 0 0 0 0 0 0.25 0"/>
<feBlend mode="normal" in2="shape" result="effect1_innerShadow_243_851"/>
</filter>
<filter id="filter2_i_243_851" x="47.8645" y="0.5" width="17.1355" height="35" filterUnits="userSpaceOnUse" color-interpolation-filters="sRGB">
<feFlood flood-opacity="0" result="BackgroundImageFix"/>
<feBlend mode="normal" in="SourceGraphic" in2="BackgroundImageFix" result="shape"/>
<feColorMatrix in="SourceAlpha" type="matrix" values="0 0 0 0 0 0 0 0 0 0 0 0 0 0 0 0 0 0 127 0" result="hardAlpha"/>
<feOffset dx="-2" dy="5"/>
<feGaussianBlur stdDeviation="3"/>
<feComposite in2="hardAlpha" operator="arithmetic" k2="-1" k3="1"/>
<feColorMatrix type="matrix" values="0 0 0 0 0 0 0 0 0 0 0 0 0 0 0 0 0 0 0.25 0"/>
<feBlend mode="normal" in2="shape" result="effect1_innerShadow_243_851"/>
</filter>
<clipPath id="clip0_243_851">
<rect width="164" height="31" fill="white"/>
</clipPath>
</defs>
</svg>
