<svg xmlns="http://www.w3.org/2000/svg" width="20" height="20" viewBox="0 0 20 20" fill="none"><path fill-rule="evenodd" clip-rule="evenodd" d="M9.58268 1.66699C5.21043 1.66699 1.66602 5.2114 1.66602 9.58366C1.66602 13.9559 5.21043 17.5003 9.58268 17.5003C11.4686 17.5003 13.2006 16.8409 14.5604 15.7399L16.9101 18.0896C17.2355 18.415 17.7632 18.415 18.0886 18.0896C18.414 17.7641 18.414 17.2365 18.0886 16.9111L15.739 14.5614C16.8399 13.2015 17.4993 11.4696 17.4993 9.58366C17.4993 5.2114 13.9549 1.66699 9.58268 1.66699ZM3.33268 9.58366C3.33268 6.13188 6.1309 3.33366 9.58268 3.33366C13.0345 3.33366 15.8327 6.13188 15.8327 9.58366C15.8327 13.0354 13.0345 15.8337 9.58268 15.8337C6.1309 15.8337 3.33268 13.0354 3.33268 9.58366Z" fill="#F9F9F9"></path></svg>