<svg width="42" height="42" viewBox="0 0 42 42" fill="none" xmlns="http://www.w3.org/2000/svg">
<path d="M9.51854 23.8547C7.94174 22.2779 7.94174 19.7214 9.51854 18.1446L24.3411 3.32196C25.9032 1.75987 28.4359 1.75987 29.998 3.32196C31.5601 4.88406 31.5601 7.41672 29.998 8.97882L12.6058 26.371C12.4482 26.5287 12.1925 26.5287 12.0348 26.371L9.51854 23.8547Z" fill="#2A8CFF"/>
<path d="M18.8893 22.4818C19.047 22.3241 19.3027 22.3241 19.4604 22.4818L29.7815 32.8029C31.3436 34.365 31.3436 36.8976 29.7815 38.4597C28.2194 40.0218 25.6867 40.0218 24.1246 38.4597L13.8035 28.1386C13.6458 27.9809 13.6458 27.7253 13.8035 27.5676L18.8893 22.4818Z" fill="#FB005E"/>
<path d="M20.656 21.2851C20.4983 21.1275 20.4983 20.8718 20.656 20.7141L24.281 17.0891C25.779 15.5911 28.2077 15.5911 29.7057 17.0891L29.7951 17.1786C31.3719 18.7554 31.3719 21.3119 29.7951 22.8887L26.3129 26.371C26.1552 26.5287 25.8995 26.5287 25.7419 26.371L20.656 21.2851Z" fill="#FFC108"/>
</svg>
