<svg xmlns="http://www.w3.org/2000/svg" xmlns:xlink="http://www.w3.org/1999/xlink" width="40" zoomAndPan="magnify" viewBox="0 0 30 30.000001" height="40" preserveAspectRatio="xMidYMid meet" version="1.0"><defs><clipPath id="11e6817069"><path d="M 3.484375 3.703125 L 26.710938 3.703125 L 26.710938 26.203125 L 3.484375 26.203125 Z M 3.484375 3.703125 " clip-rule="nonzero"/></clipPath></defs><g clip-path="url(#11e6817069)"><path fill="#7f7d83" d="M 13.609375 3.722656 C 13.613281 3.726562 13.679688 3.738281 13.753906 3.75 C 14.03125 3.789062 14.464844 3.96875 14.636719 4.113281 C 14.765625 4.21875 14.996094 4.453125 14.996094 4.476562 C 14.996094 4.488281 15.007812 4.507812 15.019531 4.515625 C 15.046875 4.527344 15.183594 4.710938 15.183594 4.730469 C 15.183594 4.738281 15.207031 4.785156 15.234375 4.832031 C 15.300781 4.945312 15.375 5.171875 15.367188 5.230469 C 15.359375 5.28125 15.230469 5.359375 15.070312 5.410156 C 15.011719 5.421875 14.957031 5.445312 14.945312 5.453125 C 14.933594 5.460938 14.9375 5.527344 14.960938 5.664062 C 15 5.90625 15.003906 5.992188 14.96875 6.089844 C 14.941406 6.160156 14.945312 6.171875 15.007812 6.339844 C 15.042969 6.4375 15.089844 6.554688 15.109375 6.601562 C 15.132812 6.644531 15.152344 6.726562 15.15625 6.777344 C 15.167969 6.867188 15.164062 6.875 15.117188 6.898438 C 15.089844 6.910156 15.027344 6.917969 14.980469 6.917969 L 14.890625 6.917969 L 14.886719 7.019531 C 14.882812 7.144531 14.820312 7.386719 14.761719 7.507812 C 14.710938 7.621094 14.613281 7.726562 14.566406 7.726562 C 14.546875 7.726562 14.519531 7.738281 14.507812 7.75 C 14.460938 7.808594 14.117188 7.839844 13.984375 7.800781 C 13.90625 7.777344 13.84375 7.808594 13.726562 7.925781 C 13.652344 8 13.621094 8.0625 13.664062 8.0625 C 13.671875 8.0625 13.683594 8.101562 13.683594 8.148438 C 13.683594 8.195312 13.691406 8.230469 13.703125 8.230469 C 13.710938 8.230469 13.71875 8.261719 13.71875 8.296875 C 13.71875 8.332031 13.726562 8.363281 13.738281 8.363281 C 13.75 8.363281 13.757812 8.371094 13.757812 8.382812 C 13.757812 8.421875 14.023438 8.925781 14.144531 9.125 C 14.300781 9.378906 14.46875 9.703125 14.542969 9.902344 C 14.578125 9.988281 14.636719 10.101562 14.679688 10.15625 C 14.71875 10.210938 14.757812 10.269531 14.765625 10.289062 C 14.773438 10.304688 14.785156 10.332031 14.796875 10.34375 C 14.847656 10.398438 14.882812 10.445312 14.878906 10.457031 C 14.878906 10.464844 14.878906 10.484375 14.886719 10.5 C 14.894531 10.515625 14.910156 10.574219 14.917969 10.632812 C 14.949219 10.765625 15 10.910156 15.015625 10.910156 C 15.023438 10.910156 15.125 11.003906 15.242188 11.121094 C 15.429688 11.304688 15.476562 11.339844 15.621094 11.410156 C 15.714844 11.453125 15.871094 11.535156 15.96875 11.597656 C 16.582031 11.96875 16.59375 11.976562 16.925781 12.101562 C 17.054688 12.152344 17.230469 12.226562 17.320312 12.269531 C 17.40625 12.3125 17.660156 12.429688 17.882812 12.523438 C 18.101562 12.617188 18.386719 12.75 18.507812 12.820312 C 18.796875 12.980469 18.921875 13.027344 19.023438 13.03125 C 19.117188 13.03125 19.117188 13.03125 19.214844 12.835938 C 19.359375 12.554688 19.515625 12.390625 19.808594 12.226562 C 19.886719 12.183594 19.960938 12.148438 19.984375 12.148438 C 20 12.148438 20.019531 12.140625 20.019531 12.132812 C 20.019531 12.113281 20.15625 12.078125 20.328125 12.054688 C 20.410156 12.042969 20.488281 12.027344 20.496094 12.019531 C 20.519531 12 20.671875 11.984375 20.96875 11.972656 C 21.210938 11.960938 21.207031 11.960938 21.273438 12.140625 C 21.296875 12.203125 21.324219 12.265625 21.332031 12.285156 C 21.34375 12.304688 21.351562 12.332031 21.351562 12.347656 C 21.351562 12.359375 21.355469 12.390625 21.367188 12.40625 C 21.417969 12.511719 21.5625 13.070312 21.589844 13.28125 C 21.625 13.527344 21.617188 13.648438 21.5625 13.757812 C 21.453125 13.980469 21.238281 14.066406 20.75 14.085938 C 20.347656 14.105469 20.320312 14.109375 20.222656 14.199219 C 20.109375 14.300781 20.089844 14.394531 20.152344 14.503906 C 20.222656 14.625 20.300781 14.792969 20.300781 14.820312 C 20.300781 14.832031 20.320312 14.878906 20.347656 14.925781 C 20.371094 14.96875 20.402344 15.027344 20.417969 15.054688 C 20.429688 15.082031 20.445312 15.105469 20.453125 15.109375 C 20.457031 15.117188 20.472656 15.152344 20.484375 15.191406 C 20.5 15.230469 20.515625 15.261719 20.523438 15.261719 C 20.53125 15.261719 20.546875 15.292969 20.558594 15.335938 C 20.570312 15.375 20.59375 15.417969 20.609375 15.429688 C 20.625 15.441406 20.636719 15.464844 20.636719 15.476562 C 20.636719 15.496094 20.699219 15.621094 20.847656 15.898438 C 20.890625 15.976562 20.960938 16.109375 21.007812 16.199219 C 21.054688 16.285156 21.117188 16.410156 21.15625 16.46875 C 21.191406 16.53125 21.234375 16.617188 21.257812 16.65625 C 21.277344 16.699219 21.300781 16.746094 21.308594 16.761719 C 21.316406 16.777344 21.347656 16.832031 21.371094 16.882812 C 21.394531 16.933594 21.425781 16.988281 21.4375 17.003906 C 21.449219 17.019531 21.492188 17.097656 21.53125 17.171875 C 21.628906 17.355469 21.707031 17.496094 21.730469 17.527344 C 21.742188 17.539062 21.78125 17.613281 21.816406 17.683594 C 21.855469 17.757812 21.902344 17.824219 21.921875 17.835938 C 21.941406 17.847656 21.960938 17.863281 21.96875 17.867188 C 21.972656 17.875 22.003906 17.886719 22.035156 17.890625 C 22.0625 17.898438 22.140625 17.910156 22.203125 17.921875 C 22.265625 17.933594 22.34375 17.953125 22.378906 17.96875 C 22.417969 17.984375 22.460938 18 22.476562 18.003906 C 22.492188 18.007812 22.519531 18.039062 22.53125 18.070312 C 22.554688 18.121094 22.570312 18.128906 22.65625 18.140625 C 22.710938 18.144531 22.769531 18.164062 22.785156 18.179688 C 22.796875 18.191406 22.84375 18.207031 22.886719 18.214844 C 22.980469 18.230469 23.113281 18.347656 23.113281 18.417969 C 23.113281 18.441406 23.117188 18.464844 23.125 18.472656 C 23.140625 18.488281 23.183594 18.609375 23.207031 18.691406 C 23.285156 19.023438 23.238281 18.992188 23.664062 18.992188 C 23.863281 18.992188 24.109375 19.003906 24.21875 19.019531 C 24.566406 19.066406 24.789062 19.105469 24.800781 19.121094 C 24.804688 19.128906 24.894531 19.164062 24.996094 19.199219 C 25.097656 19.234375 25.191406 19.273438 25.203125 19.285156 C 25.210938 19.300781 25.253906 19.320312 25.289062 19.339844 C 25.328125 19.351562 25.363281 19.375 25.371094 19.386719 C 25.375 19.394531 25.398438 19.402344 25.417969 19.402344 C 25.4375 19.402344 25.453125 19.410156 25.457031 19.417969 C 25.460938 19.429688 25.511719 19.464844 25.566406 19.503906 C 25.691406 19.585938 25.972656 19.859375 26.089844 20.011719 C 26.136719 20.074219 26.1875 20.136719 26.199219 20.148438 C 26.210938 20.160156 26.238281 20.203125 26.261719 20.242188 C 26.289062 20.28125 26.3125 20.320312 26.324219 20.324219 C 26.335938 20.332031 26.351562 20.367188 26.363281 20.40625 C 26.386719 20.46875 26.386719 20.476562 26.355469 20.492188 C 26.335938 20.503906 26.292969 20.511719 26.261719 20.511719 C 26.230469 20.511719 26.203125 20.515625 26.203125 20.527344 C 26.203125 20.535156 26.152344 20.550781 26.089844 20.554688 C 26.023438 20.5625 25.910156 20.582031 25.839844 20.597656 C 25.765625 20.613281 25.636719 20.632812 25.550781 20.640625 C 25.464844 20.652344 25.386719 20.664062 25.382812 20.675781 C 25.375 20.683594 25.320312 20.703125 25.257812 20.714844 C 25.195312 20.726562 25.109375 20.75 25.066406 20.765625 C 25.023438 20.78125 24.953125 20.792969 24.910156 20.792969 C 24.871094 20.792969 24.832031 20.800781 24.824219 20.816406 C 24.816406 20.832031 24.746094 20.855469 24.667969 20.875 C 24.515625 20.914062 24.519531 20.929688 24.6875 20.960938 C 24.742188 20.972656 24.792969 20.984375 24.796875 20.992188 C 24.808594 21.015625 25.019531 21.109375 25.050781 21.109375 C 25.0625 21.109375 25.089844 21.121094 25.109375 21.136719 C 25.183594 21.195312 25.28125 21.257812 25.320312 21.269531 C 25.34375 21.273438 25.359375 21.289062 25.359375 21.296875 C 25.359375 21.304688 25.402344 21.339844 25.449219 21.371094 C 25.726562 21.570312 26.054688 21.9375 26.195312 22.207031 C 26.230469 22.277344 26.265625 22.339844 26.273438 22.351562 C 26.300781 22.386719 26.425781 22.738281 26.472656 22.898438 C 26.507812 23.035156 26.507812 23.933594 26.46875 24.054688 C 26.40625 24.253906 26.332031 24.480469 26.308594 24.523438 C 26.222656 24.6875 26.191406 24.753906 26.113281 24.867188 C 26.066406 24.941406 26.015625 25.007812 26.003906 25.015625 C 25.992188 25.023438 25.980469 25.039062 25.980469 25.054688 C 25.980469 25.105469 25.507812 25.558594 25.382812 25.628906 C 25.355469 25.644531 25.328125 25.660156 25.324219 25.664062 C 25.296875 25.691406 25.160156 25.773438 25.117188 25.785156 C 25.089844 25.792969 25.066406 25.808594 25.058594 25.820312 C 25.039062 25.847656 24.796875 25.945312 24.75 25.945312 C 24.722656 25.945312 24.707031 25.953125 24.707031 25.960938 C 24.707031 25.976562 24.59375 26.019531 24.550781 26.019531 C 24.53125 26.019531 24.503906 26.027344 24.484375 26.039062 C 24.46875 26.046875 24.402344 26.066406 24.339844 26.082031 C 24.183594 26.113281 23.269531 26.113281 23.140625 26.082031 C 23.085938 26.066406 23.011719 26.046875 22.972656 26.035156 C 22.929688 26.027344 22.882812 26.011719 22.863281 26 C 22.84375 25.992188 22.8125 25.984375 22.792969 25.984375 C 22.773438 25.984375 22.753906 25.972656 22.753906 25.964844 C 22.753906 25.953125 22.742188 25.945312 22.726562 25.945312 C 22.683594 25.945312 22.449219 25.847656 22.425781 25.824219 C 22.414062 25.808594 22.394531 25.796875 22.378906 25.796875 C 22.34375 25.796875 22.175781 25.6875 22.175781 25.664062 C 22.175781 25.652344 22.160156 25.644531 22.140625 25.644531 C 22.085938 25.644531 21.980469 25.558594 21.695312 25.273438 C 21.585938 25.167969 21.5 25.070312 21.5 25.054688 C 21.5 25.039062 21.484375 25.019531 21.464844 25.003906 C 21.414062 24.972656 21.257812 24.710938 21.175781 24.527344 C 21.113281 24.386719 21.0625 24.222656 20.992188 23.949219 C 20.980469 23.898438 20.96875 23.714844 20.960938 23.542969 C 20.949219 23.222656 20.976562 22.992188 21.042969 22.78125 C 21.085938 22.652344 21.082031 22.648438 20.949219 22.65625 C 20.886719 22.660156 20.707031 22.660156 20.554688 22.664062 L 20.273438 22.667969 L 20.179688 22.804688 C 20.09375 22.941406 19.765625 23.304688 19.734375 23.304688 C 19.726562 23.304688 19.703125 23.320312 19.679688 23.339844 C 19.648438 23.375 19.644531 23.386719 19.664062 23.472656 C 19.6875 23.582031 19.675781 23.71875 19.636719 23.8125 C 19.597656 23.902344 19.417969 24.0625 19.335938 24.078125 C 19.300781 24.085938 19.269531 24.101562 19.261719 24.113281 C 19.253906 24.152344 11.464844 24.15625 11.429688 24.121094 C 11.414062 24.105469 11.375 24.089844 11.339844 24.082031 C 11.308594 24.074219 11.246094 24.035156 11.203125 23.996094 C 11.160156 23.957031 11.125 23.921875 11.125 23.925781 C 11.097656 23.980469 11.078125 24.046875 11.078125 24.089844 C 11.078125 24.121094 11.0625 24.15625 11.046875 24.171875 C 11.035156 24.1875 11.019531 24.222656 11.019531 24.246094 C 11.019531 24.273438 11.011719 24.296875 11 24.296875 C 10.992188 24.296875 10.984375 24.316406 10.984375 24.34375 C 10.984375 24.371094 10.972656 24.390625 10.964844 24.390625 C 10.953125 24.390625 10.945312 24.410156 10.945312 24.4375 C 10.945312 24.464844 10.9375 24.484375 10.925781 24.484375 C 10.914062 24.484375 10.90625 24.5 10.90625 24.523438 C 10.90625 24.542969 10.898438 24.558594 10.890625 24.558594 C 10.878906 24.558594 10.871094 24.578125 10.871094 24.605469 C 10.871094 24.632812 10.859375 24.652344 10.851562 24.652344 C 10.839844 24.652344 10.832031 24.664062 10.832031 24.679688 C 10.832031 24.695312 10.824219 24.710938 10.8125 24.710938 C 10.804688 24.710938 10.796875 24.730469 10.796875 24.757812 C 10.796875 24.78125 10.785156 24.804688 10.777344 24.804688 C 10.765625 24.804688 10.757812 24.816406 10.757812 24.832031 C 10.757812 24.847656 10.75 24.859375 10.738281 24.859375 C 10.726562 24.859375 10.71875 24.871094 10.71875 24.886719 C 10.71875 24.902344 10.710938 24.914062 10.703125 24.914062 C 10.691406 24.914062 10.683594 24.925781 10.683594 24.941406 C 10.683594 24.953125 10.667969 24.976562 10.644531 24.992188 C 10.625 25.003906 10.609375 25.027344 10.609375 25.039062 C 10.609375 25.054688 10.597656 25.066406 10.589844 25.066406 C 10.578125 25.066406 10.570312 25.074219 10.570312 25.085938 C 10.570312 25.109375 10.5 25.179688 10.472656 25.179688 C 10.464844 25.179688 10.457031 25.191406 10.457031 25.207031 C 10.457031 25.234375 10.421875 25.269531 10.257812 25.421875 C 10.234375 25.441406 10.195312 25.46875 10.167969 25.480469 C 10.140625 25.492188 10.121094 25.507812 10.121094 25.519531 C 10.121094 25.546875 10.078125 25.582031 10.007812 25.617188 C 9.972656 25.636719 9.933594 25.660156 9.921875 25.671875 C 9.859375 25.726562 9.839844 25.738281 9.820312 25.738281 C 9.808594 25.738281 9.789062 25.753906 9.773438 25.769531 C 9.753906 25.785156 9.726562 25.796875 9.707031 25.796875 C 9.6875 25.796875 9.671875 25.804688 9.671875 25.8125 C 9.671875 25.835938 9.421875 25.945312 9.367188 25.945312 C 9.335938 25.945312 9.316406 25.953125 9.316406 25.960938 C 9.316406 25.96875 9.25 25.992188 9.167969 26.015625 C 9.089844 26.042969 8.996094 26.070312 8.96875 26.082031 C 8.890625 26.109375 8.0625 26.121094 7.898438 26.097656 C 7.695312 26.070312 7.40625 25.992188 7.382812 25.964844 C 7.378906 25.957031 7.347656 25.945312 7.316406 25.941406 C 7.234375 25.925781 7.046875 25.835938 7.046875 25.816406 C 7.046875 25.804688 7.03125 25.796875 7.011719 25.796875 C 6.972656 25.796875 6.785156 25.691406 6.785156 25.667969 C 6.785156 25.65625 6.761719 25.644531 6.738281 25.640625 C 6.714844 25.632812 6.660156 25.59375 6.617188 25.550781 C 6.574219 25.511719 6.53125 25.476562 6.523438 25.476562 C 6.515625 25.476562 6.476562 25.441406 6.433594 25.398438 C 6.390625 25.355469 6.339844 25.300781 6.3125 25.277344 C 6.210938 25.1875 5.996094 24.921875 5.996094 24.890625 C 5.996094 24.878906 5.984375 24.855469 5.96875 24.84375 C 5.914062 24.777344 5.761719 24.480469 5.742188 24.394531 C 5.738281 24.363281 5.722656 24.335938 5.714844 24.335938 C 5.703125 24.335938 5.695312 24.308594 5.695312 24.28125 C 5.695312 24.246094 5.6875 24.21875 5.679688 24.214844 C 5.671875 24.207031 5.660156 24.175781 5.652344 24.144531 C 5.648438 24.109375 5.632812 24.011719 5.613281 23.933594 C 5.574219 23.714844 5.558594 23.429688 5.582031 23.21875 C 5.605469 23.011719 5.628906 22.878906 5.648438 22.832031 C 5.664062 22.800781 5.609375 22.796875 4.765625 22.792969 L 3.867188 22.789062 L 3.863281 22.738281 C 3.859375 22.683594 3.839844 22.671875 3.726562 22.660156 C 3.675781 22.65625 3.679688 22.683594 3.710938 22.308594 C 3.71875 22.179688 3.738281 22.023438 3.746094 21.960938 C 3.757812 21.902344 3.773438 21.800781 3.78125 21.738281 C 3.824219 21.460938 3.863281 21.265625 3.878906 21.253906 C 3.890625 21.242188 3.898438 21.21875 3.898438 21.199219 C 3.898438 21.164062 3.933594 21.03125 4.019531 20.761719 C 4.054688 20.65625 4.066406 20.59375 4.058594 20.550781 C 4.046875 20.507812 4.039062 18.554688 4.046875 18.328125 C 4.046875 18.308594 4.0625 18.296875 4.09375 18.296875 L 4.140625 18.296875 L 4.140625 17.941406 C 4.140625 17.609375 4.140625 17.585938 4.105469 17.585938 C 4.046875 17.585938 4.023438 17.511719 4.03125 17.316406 C 4.039062 17.160156 4.035156 17.136719 4.007812 17.136719 C 3.988281 17.136719 3.960938 17.121094 3.949219 17.109375 C 3.921875 17.082031 3.820312 17.0625 3.5625 17.027344 L 3.484375 17.019531 L 3.484375 11.871094 L 3.527344 11.863281 C 3.550781 11.859375 3.601562 11.863281 3.644531 11.871094 C 3.683594 11.878906 4.761719 11.886719 6.039062 11.886719 C 7.5625 11.886719 8.359375 11.890625 8.367188 11.90625 C 8.375 11.914062 8.433594 11.925781 8.496094 11.925781 C 8.558594 11.925781 8.648438 11.933594 8.691406 11.941406 C 8.734375 11.953125 8.804688 11.96875 8.84375 11.980469 C 8.886719 11.984375 8.929688 12.007812 8.949219 12.023438 C 8.964844 12.039062 9.046875 12.058594 9.164062 12.074219 L 9.351562 12.097656 L 9.351562 17.136719 L 9.980469 17.136719 C 10.542969 17.136719 10.609375 17.132812 10.582031 17.109375 C 10.566406 17.09375 10.515625 17.074219 10.46875 17.066406 C 10.414062 17.0625 10.382812 17.046875 10.382812 17.03125 C 10.382812 17.015625 10.375 17.003906 10.363281 17.003906 C 10.351562 17.003906 10.347656 16.835938 10.347656 16.535156 C 10.347656 16.234375 10.351562 16.066406 10.363281 16.066406 C 10.375 16.066406 10.382812 16.054688 10.382812 16.039062 C 10.382812 15.984375 10.523438 15.972656 11.195312 15.976562 C 11.894531 15.984375 11.875 15.988281 11.660156 15.910156 C 11.628906 15.898438 11.601562 15.878906 11.601562 15.867188 C 11.601562 15.855469 11.59375 15.84375 11.585938 15.84375 C 11.574219 15.84375 11.542969 15.816406 11.507812 15.785156 C 11.472656 15.753906 11.441406 15.730469 11.429688 15.730469 C 11.421875 15.730469 11.414062 15.714844 11.414062 15.703125 C 11.414062 15.6875 11.40625 15.671875 11.394531 15.671875 C 11.382812 15.671875 11.375 15.660156 11.375 15.644531 C 11.375 15.628906 11.371094 15.617188 11.363281 15.617188 C 11.34375 15.617188 11.28125 15.398438 11.261719 15.25 C 11.25 15.191406 11.234375 15.042969 11.230469 14.925781 L 11.21875 14.710938 L 11.15625 14.695312 C 11.082031 14.675781 11.082031 14.675781 11.066406 14.285156 C 11.058594 14.117188 11.046875 13.972656 11.039062 13.972656 C 11.027344 13.96875 11.019531 13.867188 11.019531 13.75 C 11.019531 13.621094 11.011719 13.535156 11 13.535156 C 10.992188 13.535156 10.984375 13.433594 10.984375 13.265625 C 10.984375 13.097656 10.976562 12.992188 10.964844 12.992188 C 10.953125 12.992188 10.945312 12.9375 10.945312 12.863281 C 10.945312 12.785156 10.9375 12.730469 10.925781 12.730469 C 10.914062 12.730469 10.90625 12.632812 10.90625 12.46875 C 10.90625 12.304688 10.902344 12.207031 10.890625 12.207031 C 10.878906 12.207031 10.871094 12.097656 10.871094 11.925781 C 10.871094 11.75 10.863281 11.644531 10.851562 11.644531 C 10.839844 11.644531 10.832031 11.460938 10.832031 11.128906 C 10.832031 10.796875 10.839844 10.613281 10.851562 10.613281 C 10.863281 10.613281 10.871094 10.523438 10.871094 10.378906 C 10.871094 10.234375 10.878906 10.144531 10.890625 10.144531 C 10.902344 10.144531 10.90625 10.074219 10.90625 9.976562 C 10.90625 9.875 10.914062 9.804688 10.925781 9.804688 C 10.9375 9.804688 10.945312 9.75 10.945312 9.675781 C 10.945312 9.601562 10.953125 9.542969 10.964844 9.542969 C 10.972656 9.542969 10.984375 9.496094 10.984375 9.441406 C 10.984375 9.382812 10.992188 9.335938 11 9.335938 C 11.011719 9.335938 11.019531 9.308594 11.019531 9.273438 C 11.019531 9.234375 11.027344 9.207031 11.035156 9.207031 C 11.046875 9.207031 11.0625 9.160156 11.074219 9.101562 C 11.089844 9.046875 11.105469 8.996094 11.117188 8.992188 C 11.125 8.984375 11.132812 8.964844 11.132812 8.953125 C 11.132812 8.9375 11.179688 8.828125 11.234375 8.714844 C 11.292969 8.597656 11.339844 8.492188 11.339844 8.484375 C 11.339844 8.472656 11.355469 8.453125 11.375 8.4375 C 11.398438 8.421875 11.414062 8.394531 11.414062 8.378906 C 11.414062 8.359375 11.421875 8.34375 11.433594 8.34375 C 11.441406 8.34375 11.453125 8.328125 11.453125 8.304688 C 11.453125 8.285156 11.460938 8.269531 11.46875 8.269531 C 11.480469 8.269531 11.488281 8.253906 11.488281 8.242188 C 11.488281 8.226562 11.496094 8.210938 11.507812 8.210938 C 11.515625 8.210938 11.527344 8.199219 11.527344 8.183594 C 11.527344 8.167969 11.535156 8.15625 11.546875 8.15625 C 11.554688 8.15625 11.5625 8.148438 11.5625 8.136719 C 11.5625 8.117188 11.605469 8.066406 11.691406 7.976562 C 11.722656 7.941406 11.75 7.90625 11.753906 7.898438 C 11.753906 7.890625 11.796875 7.847656 11.847656 7.800781 C 11.898438 7.753906 12.011719 7.648438 12.101562 7.558594 C 12.253906 7.414062 12.261719 7.40625 12.324219 7.417969 L 12.390625 7.429688 L 12.390625 7.332031 C 12.390625 7.28125 12.398438 7.238281 12.40625 7.238281 C 12.417969 7.238281 12.425781 7.199219 12.425781 7.15625 C 12.425781 7.089844 12.417969 7.070312 12.378906 7.054688 C 12.351562 7.042969 12.320312 7.03125 12.304688 7.03125 C 12.289062 7.03125 12.277344 7.023438 12.277344 7.015625 C 12.277344 7.007812 12.257812 6.992188 12.230469 6.980469 C 12.175781 6.953125 12.160156 6.941406 12.050781 6.839844 C 12.011719 6.804688 11.976562 6.761719 11.976562 6.753906 C 11.976562 6.742188 11.96875 6.730469 11.957031 6.730469 C 11.945312 6.730469 11.9375 6.71875 11.9375 6.703125 C 11.9375 6.6875 11.929688 6.675781 11.921875 6.675781 C 11.910156 6.675781 11.902344 6.660156 11.902344 6.640625 C 11.902344 6.621094 11.886719 6.597656 11.863281 6.582031 C 11.84375 6.566406 11.828125 6.539062 11.828125 6.523438 C 11.828125 6.503906 11.816406 6.488281 11.808594 6.488281 C 11.796875 6.488281 11.789062 6.472656 11.789062 6.449219 C 11.789062 6.429688 11.78125 6.414062 11.769531 6.414062 C 11.757812 6.414062 11.75 6.394531 11.75 6.375 C 11.75 6.355469 11.742188 6.339844 11.734375 6.339844 C 11.722656 6.339844 11.714844 6.316406 11.714844 6.292969 C 11.714844 6.265625 11.703125 6.246094 11.695312 6.246094 C 11.683594 6.246094 11.675781 6.222656 11.675781 6.199219 C 11.675781 6.171875 11.667969 6.152344 11.65625 6.152344 C 11.648438 6.152344 11.640625 6.125 11.640625 6.09375 C 11.640625 6.0625 11.628906 6.039062 11.621094 6.039062 C 11.609375 6.039062 11.601562 6.003906 11.601562 5.964844 C 11.601562 5.921875 11.59375 5.886719 11.582031 5.886719 C 11.570312 5.886719 11.5625 5.851562 11.5625 5.804688 C 11.5625 5.757812 11.554688 5.71875 11.546875 5.71875 C 11.535156 5.71875 11.527344 5.664062 11.527344 5.589844 C 11.527344 5.511719 11.519531 5.457031 11.507812 5.457031 C 11.496094 5.457031 11.488281 5.378906 11.488281 5.261719 C 11.488281 5.140625 11.496094 5.0625 11.507812 5.0625 C 11.519531 5.0625 11.527344 5.011719 11.527344 4.949219 C 11.527344 4.890625 11.535156 4.839844 11.546875 4.839844 C 11.554688 4.839844 11.5625 4.808594 11.5625 4.773438 C 11.5625 4.738281 11.570312 4.707031 11.582031 4.707031 C 11.59375 4.707031 11.601562 4.679688 11.601562 4.652344 C 11.601562 4.617188 11.609375 4.59375 11.621094 4.59375 C 11.628906 4.59375 11.640625 4.578125 11.640625 4.558594 C 11.640625 4.535156 11.648438 4.519531 11.65625 4.519531 C 11.667969 4.519531 11.675781 4.507812 11.675781 4.492188 C 11.675781 4.476562 11.683594 4.464844 11.695312 4.464844 C 11.703125 4.464844 11.714844 4.445312 11.714844 4.425781 C 11.714844 4.40625 11.722656 4.386719 11.734375 4.386719 C 11.742188 4.386719 11.75 4.375 11.75 4.359375 C 11.75 4.34375 11.757812 4.332031 11.769531 4.332031 C 11.78125 4.332031 11.789062 4.320312 11.789062 4.304688 C 11.789062 4.289062 11.796875 4.277344 11.804688 4.277344 C 11.816406 4.277344 11.867188 4.238281 11.917969 4.1875 C 11.96875 4.136719 12.027344 4.085938 12.050781 4.070312 C 12.074219 4.054688 12.105469 4.03125 12.121094 4.015625 C 12.132812 4.007812 12.15625 3.996094 12.171875 3.996094 C 12.1875 3.996094 12.203125 3.988281 12.203125 3.980469 C 12.203125 3.941406 12.601562 3.792969 12.816406 3.75 C 12.929688 3.726562 13.589844 3.703125 13.609375 3.722656 Z M 14.207031 11.800781 C 14.207031 11.847656 14.21875 11.886719 14.230469 11.890625 C 14.242188 11.894531 14.257812 11.949219 14.265625 12.011719 C 14.273438 12.070312 14.289062 12.179688 14.300781 12.253906 C 14.3125 12.324219 14.324219 12.425781 14.328125 12.476562 C 14.335938 12.527344 14.347656 12.613281 14.355469 12.664062 C 14.367188 12.714844 14.382812 12.851562 14.394531 12.964844 C 14.40625 13.078125 14.421875 13.226562 14.433594 13.292969 C 14.445312 13.359375 14.457031 13.519531 14.464844 13.648438 C 14.480469 13.917969 14.460938 13.890625 14.71875 13.980469 C 14.859375 14.027344 14.925781 14.054688 14.980469 14.082031 C 15 14.089844 15.03125 14.097656 15.050781 14.097656 C 15.070312 14.097656 15.101562 14.105469 15.121094 14.117188 C 15.140625 14.125 15.28125 14.171875 15.433594 14.222656 C 15.589844 14.269531 15.734375 14.316406 15.753906 14.324219 C 15.820312 14.347656 16.617188 14.59375 16.730469 14.625 C 16.871094 14.664062 16.996094 14.699219 17.023438 14.71875 C 17.042969 14.730469 17.070312 14.734375 17.085938 14.734375 C 17.101562 14.734375 17.128906 14.742188 17.148438 14.753906 C 17.164062 14.761719 17.210938 14.78125 17.253906 14.789062 C 17.292969 14.800781 17.398438 14.832031 17.480469 14.859375 C 17.566406 14.882812 17.648438 14.90625 17.664062 14.90625 C 17.679688 14.90625 17.703125 14.917969 17.714844 14.929688 C 17.730469 14.945312 17.796875 14.960938 17.863281 14.96875 C 17.929688 14.976562 17.992188 14.988281 18.003906 15 C 18.011719 15.007812 18.050781 15.015625 18.082031 15.023438 C 18.238281 15.054688 18.261719 15.0625 18.269531 15.085938 C 18.273438 15.101562 18.296875 15.109375 18.316406 15.109375 C 18.40625 15.109375 18.6875 15.324219 18.6875 15.390625 C 18.6875 15.410156 18.699219 15.429688 18.714844 15.433594 C 18.730469 15.441406 18.761719 15.488281 18.785156 15.546875 C 18.960938 15.902344 18.976562 16.457031 18.835938 17.210938 C 18.789062 17.464844 18.769531 17.609375 18.726562 17.988281 C 18.714844 18.082031 18.695312 18.253906 18.679688 18.371094 C 18.660156 18.492188 18.640625 18.644531 18.632812 18.710938 C 18.621094 18.777344 18.605469 18.898438 18.59375 18.980469 C 18.570312 19.148438 18.542969 19.332031 18.515625 19.515625 C 18.507812 19.582031 18.496094 19.679688 18.488281 19.730469 C 18.484375 19.78125 18.472656 19.84375 18.460938 19.863281 C 18.453125 19.882812 18.441406 19.949219 18.4375 20.003906 C 18.425781 20.105469 18.410156 20.234375 18.371094 20.480469 C 18.359375 20.554688 18.335938 20.703125 18.320312 20.808594 C 18.308594 20.917969 18.285156 21.058594 18.273438 21.121094 C 18.265625 21.179688 18.25 21.289062 18.238281 21.355469 C 18.226562 21.425781 18.214844 21.503906 18.210938 21.527344 C 18.199219 21.570312 18.203125 21.578125 18.253906 21.589844 C 18.285156 21.59375 18.3125 21.609375 18.3125 21.617188 C 18.3125 21.636719 18.542969 21.707031 18.6875 21.726562 C 18.75 21.734375 18.808594 21.75 18.816406 21.757812 C 18.824219 21.769531 18.871094 21.785156 18.925781 21.800781 C 19.003906 21.820312 19.027344 21.820312 19.0625 21.800781 C 19.082031 21.785156 19.101562 21.769531 19.101562 21.761719 C 19.101562 21.753906 19.132812 21.730469 19.167969 21.710938 C 19.207031 21.691406 19.257812 21.65625 19.28125 21.632812 C 19.304688 21.609375 19.351562 21.5625 19.390625 21.53125 C 19.425781 21.5 19.457031 21.46875 19.457031 21.460938 C 19.457031 21.453125 19.488281 21.417969 19.53125 21.378906 C 19.574219 21.34375 19.605469 21.300781 19.605469 21.285156 C 19.605469 21.269531 19.613281 21.261719 19.621094 21.261719 C 19.636719 21.261719 19.8125 21.027344 19.8125 21.003906 C 19.8125 20.996094 19.832031 20.964844 19.859375 20.929688 C 19.886719 20.894531 19.914062 20.847656 19.925781 20.824219 C 19.9375 20.800781 19.964844 20.75 19.992188 20.707031 C 20.046875 20.613281 20.164062 20.371094 20.261719 20.152344 C 20.359375 19.921875 20.507812 19.417969 20.546875 19.167969 C 20.636719 18.574219 20.628906 18.289062 20.511719 17.765625 C 20.492188 17.691406 20.484375 17.664062 20.410156 17.496094 C 20.390625 17.453125 20.375 17.40625 20.375 17.390625 C 20.375 17.375 20.371094 17.359375 20.359375 17.355469 C 20.351562 17.351562 20.289062 17.238281 20.21875 17.097656 C 20.148438 16.960938 20.085938 16.832031 20.078125 16.816406 C 20.070312 16.800781 20.050781 16.769531 20.039062 16.742188 C 19.921875 16.527344 19.878906 16.445312 19.851562 16.40625 C 19.835938 16.378906 19.808594 16.332031 19.792969 16.300781 C 19.777344 16.269531 19.757812 16.234375 19.75 16.226562 C 19.710938 16.179688 19.53125 15.882812 19.503906 15.828125 C 19.488281 15.796875 19.398438 15.648438 19.308594 15.503906 C 19.214844 15.359375 19.136719 15.234375 19.136719 15.222656 C 19.136719 15.203125 19.101562 15.128906 19.082031 15.109375 C 19.039062 15.070312 18.914062 14.742188 18.914062 14.679688 C 18.914062 14.648438 18.886719 14.574219 18.859375 14.507812 C 18.828125 14.441406 18.796875 14.363281 18.789062 14.332031 C 18.78125 14.300781 18.769531 14.269531 18.761719 14.257812 C 18.753906 14.246094 18.738281 14.199219 18.726562 14.152344 C 18.710938 14.101562 18.691406 14.050781 18.675781 14.039062 C 18.660156 14.03125 18.648438 14 18.648438 13.972656 C 18.648438 13.949219 18.632812 13.902344 18.609375 13.875 C 18.574219 13.824219 18.570312 13.804688 18.582031 13.671875 C 18.59375 13.523438 18.582031 13.480469 18.523438 13.480469 C 18.507812 13.480469 18.46875 13.46875 18.4375 13.453125 C 18.382812 13.429688 18.078125 13.351562 17.917969 13.320312 C 17.882812 13.3125 17.84375 13.300781 17.835938 13.292969 C 17.8125 13.277344 17.695312 13.246094 17.496094 13.207031 C 17.425781 13.195312 17.316406 13.167969 17.253906 13.152344 C 16.949219 13.066406 16.886719 13.054688 16.871094 13.074219 C 16.855469 13.089844 16.824219 13.085938 16.765625 13.070312 C 16.71875 13.058594 16.664062 13.050781 16.644531 13.050781 C 16.625 13.050781 16.59375 13.042969 16.574219 13.03125 C 16.554688 13.023438 16.488281 13.007812 16.417969 12.996094 C 16.269531 12.964844 15.855469 12.847656 15.753906 12.804688 C 15.710938 12.785156 15.660156 12.765625 15.632812 12.757812 C 15.558594 12.734375 15.160156 12.539062 15.097656 12.492188 C 15.0625 12.46875 15.03125 12.449219 15.023438 12.449219 C 14.984375 12.449219 14.796875 12.277344 14.371094 11.855469 C 14.296875 11.78125 14.230469 11.71875 14.21875 11.71875 C 14.214844 11.71875 14.207031 11.753906 14.207031 11.800781 Z M 15.539062 16.644531 C 15.539062 16.667969 15.527344 16.691406 15.519531 16.695312 C 15.507812 16.699219 15.5 16.730469 15.5 16.757812 C 15.5 16.785156 15.492188 16.816406 15.484375 16.828125 C 15.476562 16.835938 15.457031 16.878906 15.445312 16.921875 C 15.429688 16.960938 15.410156 17.019531 15.398438 17.050781 C 15.382812 17.082031 15.359375 17.15625 15.339844 17.214844 C 15.324219 17.277344 15.296875 17.335938 15.285156 17.351562 C 15.269531 17.363281 15.257812 17.386719 15.257812 17.394531 C 15.257812 17.429688 15.128906 17.527344 15.066406 17.539062 C 15.03125 17.546875 15 17.5625 14.992188 17.574219 C 14.984375 17.582031 14.917969 17.59375 14.835938 17.601562 L 14.695312 17.609375 L 14.695312 17.71875 C 14.695312 17.808594 14.707031 17.855469 14.753906 17.949219 C 14.785156 18.011719 14.882812 18.222656 14.96875 18.417969 C 15.054688 18.613281 15.171875 18.855469 15.222656 18.953125 C 15.328125 19.148438 15.785156 19.949219 15.871094 20.089844 L 15.925781 20.175781 L 15.941406 20.101562 C 15.949219 20.0625 15.960938 19.988281 15.96875 19.9375 C 15.980469 19.886719 15.992188 19.792969 16.003906 19.730469 C 16.015625 19.671875 16.035156 19.558594 16.042969 19.488281 C 16.058594 19.414062 16.074219 19.3125 16.085938 19.261719 C 16.09375 19.210938 16.109375 19.117188 16.113281 19.058594 C 16.117188 18.996094 16.128906 18.9375 16.140625 18.925781 C 16.148438 18.917969 16.15625 18.878906 16.15625 18.839844 C 16.15625 18.804688 16.175781 18.671875 16.195312 18.542969 C 16.21875 18.414062 16.238281 18.269531 16.246094 18.222656 C 16.25 18.175781 16.261719 18.121094 16.269531 18.101562 C 16.277344 18.082031 16.289062 18.035156 16.296875 18 C 16.316406 17.851562 16.34375 17.71875 16.382812 17.578125 C 16.40625 17.492188 16.425781 17.398438 16.433594 17.363281 C 16.4375 17.332031 16.449219 17.300781 16.457031 17.292969 C 16.46875 17.289062 16.476562 17.265625 16.476562 17.246094 C 16.476562 17.207031 16.515625 17.066406 16.5625 16.941406 C 16.578125 16.90625 16.589844 16.867188 16.589844 16.855469 C 16.589844 16.847656 16.542969 16.835938 16.484375 16.832031 C 16.425781 16.828125 16.371094 16.816406 16.367188 16.804688 C 16.359375 16.792969 16.324219 16.78125 16.289062 16.773438 C 16.128906 16.746094 16.089844 16.738281 16.054688 16.722656 C 16.007812 16.703125 15.917969 16.6875 15.765625 16.671875 C 15.703125 16.667969 15.652344 16.65625 15.652344 16.648438 C 15.652344 16.636719 15.632812 16.628906 15.550781 16.613281 C 15.542969 16.613281 15.539062 16.628906 15.539062 16.644531 Z M 15.539062 16.644531 " fill-opacity="1" fill-rule="nonzero"/></g><path fill="#7f7d83" d="M 19.164062 12.832031 C 19.15625 12.847656 19.148438 12.863281 19.144531 12.863281 C 19.140625 12.863281 19.136719 12.847656 19.136719 12.832031 C 19.136719 12.820312 19.144531 12.804688 19.15625 12.804688 C 19.164062 12.804688 19.167969 12.820312 19.164062 12.832031 Z M 19.164062 12.832031 " fill-opacity="1" fill-rule="nonzero"/></svg>