<svg width="220" height="168" viewBox="0 0 220 168" fill="none" xmlns="http://www.w3.org/2000/svg">
<circle cx="110" cy="88" r="80" fill="#D6E0F7"/>
<circle cx="26" cy="28" r="8" fill="#94B0EC"/>
<circle cx="198" cy="134" r="6" fill="#94B0EC"/>
<circle cx="25" cy="146" r="10" fill="#94B0EC"/>
<circle cx="210" cy="54" r="10" fill="#94B0EC"/>
<circle cx="191" cy="19" r="7" fill="#94B0EC"/>
<path fill-rule="evenodd" clip-rule="evenodd" d="M71.4818 19H120.336C123.69 18.9999 126.584 18.9998 128.968 19.1681C131.483 19.3458 133.986 19.738 136.394 20.7984C139.986 22.3803 142.906 24.9045 144.737 28.0092C145.963 30.0903 146.417 32.253 146.623 34.4274C146.818 36.4875 146.817 38.9888 146.817 41.8881V46.5011H155.327L155.652 46.5006C156.86 46.4978 158.382 46.4942 159.88 46.805C161.178 47.0744 162.42 47.5189 163.559 48.122C164.872 48.8175 165.945 49.75 166.797 50.4905L167.026 50.6894L180.153 62.0345L180.383 62.2326C181.24 62.9693 182.319 63.8968 183.123 65.0317C183.821 66.0159 184.335 67.0889 184.647 68.2113C185.007 69.5057 185.003 70.8209 184.999 71.8654L184.999 72.1461L184.999 87.3765C184.999 88.7645 184.999 90.1165 184.891 91.2613C184.772 92.5186 184.492 94.0021 183.612 95.4949C182.391 97.5647 180.444 99.2475 178.05 100.302C176.322 101.063 174.606 101.305 173.151 101.408C172.236 101.472 171.206 101.492 170.127 101.498C171.502 103.999 172.272 106.797 172.272 109.75C172.272 120.381 162.3 129 149.999 129C137.698 129 127.727 120.381 127.727 109.75C127.727 106.798 128.496 104 129.87 101.5H100.129C101.503 104 102.272 106.798 102.272 109.75C102.272 120.381 92.3005 129 79.9997 129C67.6989 129 57.7272 120.381 57.7272 109.75C57.7272 106.613 58.5954 103.651 60.1354 101.034C58.5404 100.784 56.9628 100.379 55.4237 99.7016C51.8316 98.1197 48.9111 95.5955 47.0808 92.4909C45.8539 90.4098 45.4001 88.2471 45.1945 86.0727C44.9998 84.0126 44.9999 81.5115 45 78.6122V41.888C44.9999 38.9888 44.9998 36.4874 45.1945 34.4274C45.4001 32.253 45.8539 30.0903 47.0808 28.0092C48.9111 24.9045 51.8316 22.3803 55.4237 20.7984C57.8316 19.738 60.3339 19.3458 62.8497 19.1681C65.2332 18.9998 68.1273 18.9999 71.4818 19ZM149.845 101.501H150.153C155.354 101.572 159.544 105.238 159.544 109.75C159.544 114.306 155.271 118 149.999 118C144.727 118 140.454 114.306 140.454 109.75C140.454 105.238 144.644 101.572 149.845 101.501ZM149.764 90.5011H146.817V57.5011H155.327C156.161 57.5011 156.577 57.5024 156.879 57.5143L156.902 57.5153L156.919 57.5285C157.142 57.7048 157.437 57.9581 158.027 58.4676L171.153 69.8127C171.743 70.3222 172.036 70.5774 172.24 70.7705L172.255 70.7851L172.256 70.8048C172.27 71.066 172.272 71.4256 172.272 72.1461V87.2011C172.272 88.832 172.267 89.7244 172.206 90.3656L172.199 90.4381L172.115 90.4444C171.373 90.4968 170.34 90.5011 168.453 90.5011H150.234C150.156 90.5004 150.078 90.5 149.999 90.5C149.921 90.5 149.842 90.5004 149.764 90.5011ZM89.5451 109.75C89.5451 105.198 85.2798 101.507 80.0151 101.5H79.9843C74.7196 101.507 70.4543 105.198 70.4543 109.75C70.4543 114.306 74.7279 118 79.9997 118C85.2715 118 89.5451 114.306 89.5451 109.75Z" fill="#6C92E4"/>
</svg>
