<svg width="20" height="20" viewBox="0 0 20 20" fill="none" xmlns="http://www.w3.org/2000/svg">
<path fill-rule="evenodd" clip-rule="evenodd" d="M10.0007 0.833252C4.93804 0.833252 0.833984 4.93731 0.833984 9.99992C0.833984 15.0625 4.93804 19.1666 10.0007 19.1666C15.0633 19.1666 19.1673 15.0625 19.1673 9.99992C19.1673 4.93731 15.0633 0.833252 10.0007 0.833252ZM13.0899 6.91066C13.4153 7.2361 13.4153 7.76374 13.0899 8.08917L11.1792 9.99992L13.0899 11.9107C13.4153 12.2361 13.4153 12.7637 13.0899 13.0892C12.7645 13.4146 12.2368 13.4146 11.9114 13.0892L10.0007 11.1784L8.08991 13.0892C7.76447 13.4146 7.23683 13.4146 6.9114 13.0892C6.58596 12.7637 6.58596 12.2361 6.9114 11.9107L8.82214 9.99992L6.9114 8.08917C6.58596 7.76374 6.58596 7.2361 6.9114 6.91066C7.23683 6.58523 7.76447 6.58523 8.08991 6.91066L10.0007 8.82141L11.9114 6.91066C12.2368 6.58523 12.7645 6.58523 13.0899 6.91066Z" fill="#E12121"/>
</svg>
