<svg width="24" height="24" viewBox="0 0 24 24" fill="none" xmlns="http://www.w3.org/2000/svg">
<path d="M19.8718 4.71281C19.8553 4.59281 19.7502 4.5264 19.6633 4.51909C19.5766 4.51186 17.7414 4.37583 17.7414 4.37583C17.7414 4.37583 16.4669 3.11049 16.327 2.97043C16.187 2.83046 15.9136 2.87303 15.8075 2.90427C15.7919 2.90887 15.5291 2.98999 15.0943 3.12454C14.6685 1.89939 13.9171 0.773526 12.5952 0.773526C12.5587 0.773526 12.5212 0.775006 12.4836 0.777143C12.1077 0.279965 11.642 0.0639648 11.2397 0.0639648C8.16041 0.0639648 6.68926 3.91342 6.228 5.86958C5.03145 6.24035 4.18142 6.50394 4.07285 6.53805C3.40496 6.74755 3.38383 6.7686 3.29614 7.39794C3.23014 7.8744 1.48257 21.3891 1.48257 21.3891L15.0999 23.9405L22.4783 22.3444C22.4783 22.3444 19.8881 4.83281 19.8718 4.71281ZM14.3416 3.35731L13.1894 3.71394C13.1898 3.63273 13.1902 3.55284 13.1902 3.46547C13.1902 2.70405 13.0845 2.09098 12.915 1.60498C13.5961 1.69046 14.0497 2.46544 14.3416 3.35731ZM12.07 1.75596C12.2594 2.23046 12.3825 2.91142 12.3825 3.83032C12.3825 3.87734 12.3821 3.92032 12.3817 3.9638C11.6324 4.19591 10.8181 4.44791 10.002 4.70073C10.4602 2.93229 11.3191 2.07816 12.07 1.75596ZM11.1552 0.88991C11.2881 0.88991 11.4219 0.935033 11.5501 1.02323C10.5632 1.48761 9.5054 2.6572 9.05868 4.99284L7.17764 5.57542C7.70088 3.79391 8.94337 0.88991 11.1552 0.88991Z" fill="#95BF46"/>
<path d="M19.6633 4.51936C19.5766 4.51212 17.7414 4.3761 17.7414 4.3761C17.7414 4.3761 16.4669 3.11075 16.327 2.9707C16.2746 2.91859 16.204 2.89188 16.1302 2.88037L15.1006 23.9406L22.4783 22.3446C22.4783 22.3446 19.8881 4.83308 19.8718 4.71308C19.8553 4.59308 19.7502 4.52667 19.6633 4.51936Z" fill="#5E8E3E"/>
<path d="M12.5952 8.59581L11.6855 11.3021C11.6855 11.3021 10.8884 10.8766 9.91126 10.8766C8.47882 10.8766 8.40674 11.7756 8.40674 12.0021C8.40674 13.2381 11.6287 13.7117 11.6287 16.6068C11.6287 18.8846 10.184 20.3513 8.23603 20.3513C5.89849 20.3513 4.70309 18.8965 4.70309 18.8965L5.32898 16.8285C5.32898 16.8285 6.55775 17.8835 7.5946 17.8835C8.27211 17.8835 8.5477 17.3501 8.5477 16.9603C8.5477 15.348 5.90441 15.2761 5.90441 12.6268C5.90441 10.397 7.50485 8.23926 10.7355 8.23926C11.9803 8.23926 12.5952 8.59581 12.5952 8.59581Z" fill="white"/>
</svg>
