<svg xmlns="http://www.w3.org/2000/svg" xmlns:xlink="http://www.w3.org/1999/xlink" width="1080" zoomAndPan="magnify" viewBox="0 0 810 809.999993" height="1080" preserveAspectRatio="xMidYMid meet" version="1.0"><defs><clipPath id="b38efe8871"><path d="M 288.027344 592.578125 L 729 592.578125 L 729 729 L 288.027344 729 Z M 288.027344 592.578125 " clip-rule="nonzero"/></clipPath><clipPath id="4c9d2c4c10"><path d="M 137.945312 81 L 764.945312 81 L 764.945312 772 L 137.945312 772 Z M 137.945312 81 " clip-rule="nonzero"/></clipPath><clipPath id="1b7dfad0dc"><path d="M 137.945312 81 L 764.945312 81 L 764.945312 810 L 137.945312 810 Z M 137.945312 81 " clip-rule="nonzero"/></clipPath><clipPath id="78d4657b15"><path d="M 71 548.34375 L 772.265625 548.34375 L 772.265625 772 L 71 772 Z M 71 548.34375 " clip-rule="nonzero"/></clipPath><clipPath id="bab1f04949"><path d="M 29.015625 548.34375 L 772.265625 548.34375 L 772.265625 810 L 29.015625 810 Z M 29.015625 548.34375 " clip-rule="nonzero"/></clipPath><clipPath id="0a47c63f91"><path d="M 100.152344 493.695312 L 772.152344 493.695312 L 772.152344 772 L 100.152344 772 Z M 100.152344 493.695312 " clip-rule="nonzero"/></clipPath><clipPath id="4c094a8146"><path d="M 100.152344 493.695312 L 772.152344 493.695312 L 772.152344 810 L 100.152344 810 Z M 100.152344 493.695312 " clip-rule="nonzero"/></clipPath><clipPath id="e0bf4af1a5"><path d="M 157.636719 81 L 780.886719 81 L 780.886719 302.25 L 157.636719 302.25 Z M 157.636719 81 " clip-rule="nonzero"/></clipPath></defs><rect x="-81" width="972" fill="#ffffff" y="-80.999999" height="971.999992" fill-opacity="1"/><rect x="-81" width="972" fill="#ffffff" y="-80.999999" height="971.999992" fill-opacity="1"/><path fill="#fe7c03" d="M 509.949219 638.042969 L 509.632812 639.523438 C 508.386719 645.433594 511.25 647.039062 520.820312 647.039062 C 527.382812 647.039062 538.515625 646.34375 542.53125 646.039062 L 540.027344 658.015625 C 539.378906 658.417969 526.023438 659.472656 516.160156 659.472656 C 493.195312 659.472656 486.269531 651.230469 488.949219 638.5625 L 491.453125 626.53125 C 493.792969 615.449219 502.609375 605.953125 526.109375 605.953125 C 549.613281 605.953125 552.558594 616.082031 550.171875 627.273438 L 547.898438 638.046875 L 509.949219 638.046875 Z M 531.101562 624.421875 C 531.855469 620.839844 531.035156 617.890625 523.773438 617.890625 C 516.511719 617.890625 513.578125 620.847656 512.835938 624.421875 L 512.363281 626.597656 L 530.640625 626.597656 L 531.101562 624.417969 Z M 446.613281 638.042969 L 446.308594 639.523438 C 445.0625 645.433594 447.917969 647.015625 457.496094 647.015625 C 464.054688 647.015625 475.179688 646.320312 479.207031 646.015625 L 476.6875 657.992188 C 476.050781 658.394531 462.699219 659.449219 452.835938 659.449219 C 429.871094 659.449219 422.945312 651.207031 425.613281 638.546875 L 428.152344 626.5 C 430.492188 615.417969 439.316406 605.921875 462.824219 605.921875 C 486.324219 605.921875 489.265625 616.046875 486.882812 627.242188 L 484.613281 638.015625 Z M 467.777344 624.421875 C 468.53125 620.839844 467.699219 617.890625 460.449219 617.890625 C 453.195312 617.890625 450.246094 620.847656 449.511719 624.421875 L 449.039062 626.597656 L 467.28125 626.597656 L 467.773438 624.414062 Z M 406.632812 605.957031 L 365.945312 605.957031 L 363.996094 615.675781 C 364.34375 615.675781 369.003906 616.320312 369.003906 616.320312 L 384.765625 612.195312 L 384.9375 617.101562 C 384.9375 617.101562 396.207031 618.664062 403.816406 626.042969 L 403.761719 632.101562 L 409.644531 637.652344 L 405.980469 644.847656 L 404.890625 645.820312 L 404.96875 646.910156 L 403.664062 649.464844 L 393.933594 647.863281 C 394.777344 647.257812 395.550781 646.566406 396.246094 645.792969 C 396.945312 645.019531 397.550781 644.183594 398.070312 643.28125 C 398.589844 642.378906 399.007812 641.433594 399.328125 640.441406 C 399.644531 639.449219 399.855469 638.4375 399.957031 637.402344 C 398.730469 640.136719 397.058594 642.574219 394.949219 644.707031 C 391.917969 647.648438 385.511719 649.34375 379.140625 644.359375 L 356.59375 651.679688 L 350.839844 679.226562 L 375.894531 659.484375 L 393.875 659.484375 C 410.421875 659.484375 419.117188 652.609375 421.6875 640.472656 L 424.96875 624.953125 C 427.613281 612.390625 421 605.953125 406.640625 605.953125 " fill-opacity="1" fill-rule="nonzero"/><g clip-path="url(#b38efe8871)"><path fill="#fe7c03" d="M 400.019531 630.050781 L 392.746094 629.167969 L 399.976562 633.359375 Z M 603.257812 592.683594 L 599.980469 607.425781 C 594.128906 606.464844 588.238281 605.976562 582.308594 605.953125 C 565.769531 605.953125 557.0625 612.816406 554.503906 624.953125 L 551.222656 640.472656 C 548.578125 653.039062 555.195312 659.484375 569.554688 659.484375 C 576.171875 659.484375 584.679688 656.214844 590.265625 654.039062 L 589.238281 658.394531 L 606.742188 658.394531 L 620.753906 592.683594 Z M 572.15625 640.503906 L 575.4375 624.984375 C 576.148438 621.613281 578.722656 619.183594 584.191406 619.183594 C 588.597656 619.246094 592.972656 619.667969 597.3125 620.445312 L 593.058594 641.070312 C 589.613281 642.964844 583.289062 646.320312 578.503906 646.320312 C 573.035156 646.320312 571.425781 644.136719 572.179688 640.5 M 333.460938 619.890625 C 318.78125 617.453125 318.367188 617.351562 319.746094 611.101562 C 320.773438 606.648438 322.828125 606.117188 331.019531 605.964844 L 360.550781 605.964844 L 363.414062 592.589844 L 335.636719 592.589844 C 307.789062 592.589844 301.089844 597.765625 298.125 610.71875 C 294.921875 624.765625 297.683594 627.882812 320.261719 631.304688 C 335.570312 633.644531 335.824219 634.320312 334.480469 640.179688 C 333.25 645.570312 330.78125 646.222656 319.933594 646.257812 L 290.621094 646.257812 L 288.027344 658.597656 L 318.992188 658.597656 C 348.179688 658.628906 352.707031 653.316406 355.648438 640.5 C 358.59375 627.679688 358.613281 624.167969 333.460938 619.941406 M 663.292969 607.425781 C 657.457031 606.46875 651.578125 605.976562 645.664062 605.953125 C 629.117188 605.953125 620.421875 612.816406 617.859375 624.953125 L 614.582031 640.472656 C 611.933594 653.039062 618.550781 659.484375 632.914062 659.484375 C 639.527344 659.484375 648.027344 656.214844 653.625 654.039062 L 652.597656 658.394531 L 670.097656 658.394531 L 681.035156 606.546875 L 663.535156 606.546875 L 663.292969 607.429688 Z M 635.425781 640.503906 L 638.707031 624.984375 C 639.417969 621.613281 641.992188 619.183594 647.460938 619.183594 C 651.839844 619.25 656.214844 619.671875 660.527344 620.445312 L 656.28125 641.070312 C 652.835938 642.964844 646.519531 646.320312 641.726562 646.320312 C 636.257812 646.320312 634.648438 644.136719 635.410156 640.5 M 714.570312 632.664062 L 696.773438 632.664062 L 691.445312 658.394531 L 674.035156 658.394531 L 680.453125 627.777344 L 683.300781 614.457031 L 684.390625 609.492188 C 684.894531 607.214844 685.738281 605.074219 686.929688 603.066406 C 688.117188 601.058594 689.589844 599.285156 691.34375 597.75 C 695.023438 594.378906 699.800781 592.6875 705.675781 592.683594 L 728.980469 592.683594 L 726.136719 605.816406 L 706 605.816406 C 705.492188 605.777344 704.992188 605.835938 704.503906 605.988281 C 704.015625 606.144531 703.574219 606.382812 703.179688 606.707031 C 702.785156 607.03125 702.464844 607.417969 702.21875 607.867188 C 701.972656 608.316406 701.820312 608.792969 701.761719 609.300781 L 699.574219 619.347656 L 717.320312 619.347656 L 714.566406 632.667969 Z M 527.035156 713.777344 L 521.980469 701.921875 L 511.851562 713.777344 L 505.277344 713.777344 L 519.453125 697.082031 L 512.386719 679.992188 L 519.542969 679.992188 L 524.546875 691.695312 L 534.566406 679.992188 L 540.929688 679.992188 L 527.089844 696.464844 L 534.394531 713.777344 L 527.03125 713.777344 Z M 535.132812 728.96875 L 545.167969 679.964844 L 552.699219 679.964844 L 551.925781 683.800781 L 553.820312 682.710938 C 556.792969 681.015625 561.636719 679.195312 565.246094 679.195312 C 568.175781 679.195312 570.296875 679.953125 571.535156 681.460938 C 573.089844 683.367188 573.425781 686.523438 572.539062 690.878906 L 570.242188 702.125 C 568.523438 710.457031 564.042969 714.507812 556.515625 714.507812 C 553.515625 714.496094 550.558594 714.15625 547.636719 713.496094 L 545.863281 713.050781 L 542.585938 728.9375 Z M 560.058594 685.3125 C 557.152344 685.3125 553.5 686.992188 551.378906 688.582031 L 550.832031 688.984375 L 547.113281 707.101562 L 548.742188 707.515625 C 551.144531 708.113281 553.582031 708.4375 556.058594 708.484375 C 559.546875 708.484375 561.878906 706.503906 562.621094 702.898438 L 564.929688 691.652344 C 565.179688 690.851562 565.234375 690.039062 565.101562 689.210938 C 564.972656 688.382812 564.660156 687.628906 564.175781 686.945312 C 563.648438 686.378906 563.027344 685.957031 562.308594 685.675781 C 561.589844 685.394531 560.84375 685.285156 560.074219 685.347656 M 573.042969 713.667969 L 579.964844 679.914062 L 587.457031 679.914062 L 586.515625 684.542969 L 588.703125 683.277344 C 591.265625 681.839844 593.941406 680.648438 596.722656 679.703125 L 595.9375 686.5 C 592.398438 687.789062 588.980469 689.351562 585.699219 691.183594 L 585.0625 691.574219 L 580.546875 713.648438 L 573.046875 713.671875 Z M 625.148438 714.46875 L 626.066406 710 L 638.429688 710 C 643.128906 710 645.105469 709.589844 645.871094 705.707031 C 646.257812 704.546875 646.238281 703.289062 645.816406 702.140625 C 645.074219 700.710938 643.234375 700.21875 638.917969 699.382812 C 633.996094 698.433594 631.144531 697.574219 630.167969 695.757812 C 629.566406 694.664062 629.597656 692.835938 630.277344 689.429688 C 631.503906 683.246094 633.425781 680.328125 645.78125 680.328125 L 656.625 680.328125 L 655.691406 685.335938 L 643.664062 685.335938 C 640.195312 685.421875 638.359375 685.628906 637.667969 689.109375 C 637.253906 690.3125 637.253906 691.515625 637.667969 692.71875 C 638.394531 694.125 640.140625 694.492188 644.351562 695.386719 C 649.917969 696.5625 652.511719 697.660156 653.289062 699.1875 C 653.921875 700.414062 653.605469 702.324219 653.015625 705.324219 C 651.699219 711.960938 650.058594 714.460938 637.875 714.460938 L 625.148438 714.460938 Z M 654.195312 714.46875 L 655.113281 710 L 667.46875 710 C 672.160156 710 674.144531 709.589844 674.90625 705.707031 C 675.3125 704.511719 675.296875 703.320312 674.851562 702.140625 C 674.113281 700.710938 672.269531 700.21875 667.953125 699.382812 C 663.035156 698.433594 660.179688 697.574219 659.203125 695.757812 C 658.609375 694.664062 658.632812 692.835938 659.316406 689.429688 C 660.539062 683.246094 662.464844 680.328125 674.820312 680.328125 L 685.660156 680.328125 L 684.730469 685.335938 L 672.699219 685.335938 C 669.234375 685.421875 667.398438 685.628906 666.707031 689.109375 C 666.441406 690.597656 666.226562 691.683594 666.761719 692.773438 C 667.484375 694.164062 669.21875 694.539062 673.433594 695.429688 C 679 696.605469 681.589844 697.703125 682.382812 699.230469 C 683.003906 700.457031 682.6875 702.367188 682.09375 705.371094 C 680.78125 712.003906 679.140625 714.507812 666.957031 714.507812 L 654.195312 714.460938 Z M 608.058594 714.476562 C 602.703125 714.476562 598.996094 713.300781 597.074219 710.957031 C 595.390625 708.898438 594.9375 705.777344 595.734375 701.65625 L 597.476562 693.164062 C 599.171875 684.457031 604.945312 679.992188 614.636719 679.992188 C 619.242188 679.992188 622.433594 681.078125 624.128906 683.082031 C 625.824219 685.082031 626.316406 688.527344 625.367188 693.121094 L 624.09375 699.300781 L 603.921875 699.300781 L 603.449219 701.710938 C 602.980469 704.167969 603.210938 705.785156 604.195312 706.992188 C 605.285156 708.367188 607.246094 708.933594 610.761719 708.933594 C 613.285156 708.933594 617.242188 708.671875 620.292969 708.40625 L 619.292969 713.679688 C 615.550781 714.152344 611.792969 714.40625 608.023438 714.429688 L 608.070312 714.476562 Z M 613.136719 685.152344 C 607.792969 685.152344 606.042969 688.414062 605.484375 691.121094 L 604.800781 694.609375 L 617.859375 694.609375 L 618.421875 691.691406 C 618.660156 690.867188 618.714844 690.03125 618.582031 689.179688 C 618.449219 688.332031 618.144531 687.550781 617.664062 686.835938 C 616.722656 685.746094 615.238281 685.152344 613.105469 685.152344 M 488.175781 714.476562 C 482.800781 714.476562 479.105469 713.300781 477.175781 710.957031 C 475.488281 708.898438 474.984375 705.777344 475.839844 701.65625 L 477.574219 693.164062 C 479.285156 684.457031 485.042969 679.992188 494.734375 679.992188 C 499.347656 679.992188 502.546875 681.078125 504.226562 683.082031 C 505.910156 685.082031 506.417969 688.527344 505.476562 693.121094 L 504.1875 699.300781 L 484.003906 699.300781 L 483.535156 701.710938 C 483.066406 704.167969 483.296875 705.785156 484.28125 706.992188 C 485.371094 708.367188 487.328125 708.933594 490.84375 708.933594 C 493.367188 708.933594 497.328125 708.671875 500.390625 708.40625 L 499.371094 713.679688 C 495.640625 714.152344 491.878906 714.40625 488.117188 714.429688 Z M 493.226562 685.152344 C 487.890625 685.152344 486.140625 688.414062 485.570312 691.121094 L 484.890625 694.59375 L 498.015625 694.59375 L 498.585938 691.675781 C 498.847656 690.300781 499.054688 688.308594 497.820312 686.816406 C 496.890625 685.722656 495.390625 685.132812 493.257812 685.132812 " fill-opacity="1" fill-rule="nonzero"/></g><g clip-path="url(#4c9d2c4c10)"><path fill="#fe7c03" d="M 1577.445312 381.632812 L 1574.433594 395.664062 C 1562.640625 451.609375 1589.753906 466.800781 1680.339844 466.800781 C 1742.484375 466.800781 1847.875 460.214844 1885.875 457.332031 L 1862.160156 570.726562 C 1856.050781 574.515625 1729.617188 584.5 1636.230469 584.5 C 1418.820312 584.5 1353.28125 506.476562 1378.628906 386.582031 L 1402.339844 272.671875 C 1424.5 167.753906 1507.945312 77.855469 1730.433594 77.855469 C 1952.921875 77.855469 1980.808594 173.734375 1958.214844 279.6875 L 1936.695312 381.675781 L 1577.445312 381.675781 Z M 1777.683594 252.703125 C 1784.828125 218.792969 1777.039062 190.863281 1708.3125 190.863281 C 1639.542969 190.863281 1611.789062 218.878906 1604.773438 252.703125 L 1600.296875 273.316406 L 1773.296875 273.316406 L 1777.683594 252.660156 Z M 977.847656 381.632812 L 974.964844 395.664062 C 963.175781 451.609375 990.199219 466.585938 1080.871094 466.585938 C 1142.972656 466.585938 1248.277344 460 1286.40625 457.117188 L 1262.5625 570.511719 C 1256.539062 574.300781 1130.148438 584.28125 1036.761719 584.28125 C 819.351562 584.28125 753.8125 506.261719 779.074219 386.410156 L 803.085938 272.371094 C 825.25 167.453125 908.777344 77.554688 1131.308594 77.554688 C 1353.796875 77.554688 1381.640625 173.433594 1359.089844 279.382812 L 1337.574219 381.375 Z M 1178.214844 252.703125 C 1185.359375 218.792969 1177.484375 190.863281 1108.84375 190.863281 C 1040.164062 190.863281 1012.234375 218.878906 1005.304688 252.703125 L 1000.828125 273.316406 L 1173.527344 273.316406 L 1178.171875 252.617188 Z M 599.363281 77.898438 L 214.203125 77.898438 L 195.742188 169.90625 C 199.054688 169.90625 243.164062 176.015625 243.164062 176.015625 L 392.367188 136.941406 L 394 183.417969 C 394 183.417969 500.683594 198.179688 572.722656 268.066406 L 572.207031 325.386719 L 627.894531 377.933594 L 593.207031 446.054688 L 582.878906 455.265625 L 583.609375 465.59375 L 571.261719 489.78125 L 479.167969 474.632812 C 483.152344 471.757812 486.972656 468.679688 490.632812 465.402344 C 494.289062 462.125 497.765625 458.660156 501.054688 455.011719 C 504.347656 451.367188 507.4375 447.554688 510.324219 443.582031 C 513.210938 439.605469 515.878906 435.488281 518.332031 431.230469 C 520.78125 426.972656 523 422.597656 524.988281 418.105469 C 526.972656 413.613281 528.71875 409.027344 530.21875 404.347656 C 531.71875 399.671875 532.96875 394.925781 533.964844 390.117188 C 534.964844 385.304688 535.703125 380.457031 536.1875 375.566406 C 530.417969 388.417969 523.550781 400.65625 515.582031 412.273438 C 507.613281 423.894531 498.675781 434.710938 488.761719 444.722656 C 460.058594 472.566406 399.421875 488.617188 339.132812 441.453125 L 125.683594 510.738281 L 71.199219 771.527344 L 308.40625 584.628906 L 478.605469 584.628906 C 635.253906 584.628906 717.578125 519.558594 741.890625 404.65625 L 772.960938 257.738281 C 798.007812 138.792969 735.394531 77.855469 599.449219 77.855469 " fill-opacity="1" fill-rule="nonzero"/></g><g clip-path="url(#1b7dfad0dc)"><path fill="#fe7c03" d="M 536.789062 305.980469 L 467.933594 297.632812 L 536.359375 337.308594 Z M 2460.769531 -47.761719 L 2429.742188 91.796875 C 2374.335938 82.726562 2318.566406 78.078125 2262.421875 77.855469 C 2105.863281 77.855469 2023.453125 142.835938 1999.226562 257.738281 L 1968.15625 404.65625 C 1943.109375 523.605469 2005.765625 584.628906 2141.710938 584.628906 C 2204.328125 584.628906 2284.886719 553.683594 2337.777344 533.070312 L 2328.050781 574.300781 L 2493.734375 574.300781 L 2626.367188 -47.761719 Z M 2166.328125 404.957031 L 2197.398438 258.039062 C 2204.113281 226.109375 2228.46875 203.128906 2280.242188 203.128906 C 2321.976562 203.71875 2363.390625 207.691406 2404.480469 215.046875 L 2364.199219 410.296875 C 2331.582031 428.242188 2271.71875 460 2226.402344 460 C 2174.632812 460 2159.398438 439.34375 2166.542969 404.914062 M -93.320312 209.796875 C -232.277344 186.730469 -236.195312 185.785156 -223.152344 126.613281 C -213.429688 84.4375 -193.976562 79.402344 -116.429688 77.984375 L 163.121094 77.984375 L 190.234375 -48.625 L -72.707031 -48.625 C -336.335938 -48.625 -399.765625 0.351562 -427.824219 122.996094 C -458.164062 255.972656 -432 285.453125 -218.25 317.855469 C -73.351562 340.019531 -70.941406 346.390625 -83.679688 401.859375 C -95.300781 452.898438 -118.667969 459.097656 -221.390625 459.398438 L -498.875 459.398438 L -523.40625 576.234375 L -230.296875 576.234375 C 46.027344 576.535156 88.886719 526.230469 116.730469 404.914062 C 144.617188 283.558594 144.789062 250.292969 -93.320312 210.269531 M 3029.082031 91.796875 C 2973.820312 82.746094 2918.191406 78.101562 2862.195312 77.855469 C 2705.546875 77.855469 2623.222656 142.835938 2598.996094 257.738281 L 2567.96875 404.65625 C 2542.878906 523.605469 2605.535156 584.628906 2741.480469 584.628906 C 2804.097656 584.628906 2884.570312 553.683594 2937.546875 533.070312 L 2927.820312 574.300781 L 3093.503906 574.300781 L 3197.042969 83.492188 L 3031.363281 83.492188 L 3029.082031 91.839844 Z M 2765.28125 404.957031 L 2796.351562 258.039062 C 2803.066406 226.109375 2827.421875 203.128906 2879.191406 203.128906 C 2920.679688 203.730469 2962.078125 207.730469 3002.917969 215.046875 L 2962.722656 410.296875 C 2930.101562 428.242188 2870.285156 460 2824.925781 460 C 2773.15625 460 2757.921875 439.34375 2765.109375 404.914062 M 3514.507812 330.722656 L 3346.027344 330.722656 L 3295.59375 574.300781 L 3130.769531 574.300781 L 3191.535156 284.460938 L 3218.476562 158.371094 L 3228.804688 111.378906 C 3229.984375 106.03125 3231.375 100.734375 3232.976562 95.496094 C 3234.578125 90.257812 3236.382812 85.09375 3238.394531 80 C 3240.40625 74.902344 3242.617188 69.894531 3245.027344 64.976562 C 3247.433594 60.058594 3250.035156 55.242188 3252.828125 50.527344 C 3255.617188 45.816406 3258.59375 41.222656 3261.75 36.746094 C 3264.90625 32.269531 3268.234375 27.921875 3271.734375 23.710938 C 3275.238281 19.5 3278.902344 15.433594 3282.726562 11.511719 C 3286.550781 7.589844 3290.523438 3.828125 3294.644531 0.222656 C 3329.460938 -31.710938 3374.691406 -47.71875 3430.289062 -47.761719 L 3650.925781 -47.761719 L 3623.988281 76.5625 L 3433.390625 76.5625 C 3432.195312 76.472656 3431 76.4375 3429.804688 76.460938 C 3428.609375 76.488281 3427.414062 76.566406 3426.226562 76.703125 C 3425.039062 76.839844 3423.859375 77.035156 3422.6875 77.285156 C 3421.519531 77.535156 3420.363281 77.839844 3419.222656 78.203125 C 3418.078125 78.5625 3416.957031 78.976562 3415.855469 79.445312 C 3414.753906 79.914062 3413.679688 80.429688 3412.625 81.003906 C 3411.574219 81.574219 3410.550781 82.191406 3409.558594 82.859375 C 3408.566406 83.527344 3407.609375 84.242188 3406.683594 85.003906 C 3405.757812 85.761719 3404.875 86.566406 3404.027344 87.410156 C 3403.179688 88.253906 3402.371094 89.136719 3401.609375 90.058594 C 3400.847656 90.980469 3400.128906 91.9375 3399.457031 92.925781 C 3398.785156 93.917969 3398.160156 94.9375 3397.585938 95.988281 C 3397.011719 97.035156 3396.488281 98.113281 3396.015625 99.210938 C 3395.542969 100.3125 3395.125 101.429688 3394.761719 102.570312 C 3394.398438 103.710938 3394.085938 104.867188 3393.832031 106.035156 C 3393.578125 107.203125 3393.378906 108.382812 3393.238281 109.570312 L 3372.539062 204.675781 L 3540.542969 204.675781 L 3514.464844 330.769531 Z M 1739.167969 1098.585938 L 1691.316406 986.351562 L 1595.433594 1098.585938 L 1533.207031 1098.585938 L 1667.386719 940.5625 L 1600.511719 778.753906 L 1668.25 778.753906 L 1715.628906 889.570312 L 1810.476562 778.753906 L 1870.726562 778.753906 L 1739.6875 934.710938 L 1808.84375 1098.585938 L 1739.125 1098.585938 Z M 1815.855469 1242.40625 L 1910.832031 778.496094 L 1982.140625 778.496094 L 1974.824219 814.816406 L 1992.726562 804.488281 C 2020.871094 788.4375 2066.746094 771.222656 2100.917969 771.222656 C 2128.628906 771.222656 2148.726562 778.410156 2160.433594 792.65625 C 2175.148438 810.730469 2178.335938 840.59375 2169.941406 881.824219 L 2148.210938 988.289062 C 2131.945312 1067.171875 2089.511719 1105.515625 2018.246094 1105.515625 C 1989.878906 1105.394531 1961.863281 1102.195312 1934.199219 1095.917969 L 1917.417969 1091.699219 L 1886.390625 1242.105469 Z M 2051.8125 829.148438 C 2024.273438 829.148438 1989.714844 845.027344 1969.617188 860.089844 L 1964.453125 863.878906 L 1929.25 1035.410156 L 1944.660156 1039.328125 C 1967.410156 1044.988281 1990.503906 1048.042969 2013.945312 1048.496094 C 2046.949219 1048.496094 2069.027344 1029.730469 2076.042969 995.605469 L 2097.902344 889.136719 C 2098.484375 887.277344 2098.953125 885.386719 2099.316406 883.472656 C 2099.679688 881.554688 2099.929688 879.625 2100.070312 877.679688 C 2100.207031 875.734375 2100.234375 873.789062 2100.148438 871.839844 C 2100.066406 869.890625 2099.867188 867.957031 2099.558594 866.03125 C 2099.25 864.105469 2098.832031 862.203125 2098.304688 860.324219 C 2097.773438 858.449219 2097.140625 856.609375 2096.402344 854.804688 C 2095.660156 853 2094.816406 851.246094 2093.875 849.539062 C 2092.929688 847.832031 2091.894531 846.183594 2090.761719 844.597656 C 2089.539062 843.277344 2088.246094 842.03125 2086.882812 840.855469 C 2085.519531 839.683594 2084.097656 838.589844 2082.609375 837.574219 C 2081.125 836.5625 2079.585938 835.636719 2077.992188 834.796875 C 2076.402344 833.960938 2074.769531 833.214844 2073.09375 832.558594 C 2071.417969 831.90625 2069.710938 831.347656 2067.972656 830.886719 C 2066.234375 830.425781 2064.472656 830.066406 2062.695312 829.804688 C 2060.914062 829.542969 2059.125 829.382812 2057.328125 829.324219 C 2055.53125 829.261719 2053.734375 829.304688 2051.941406 829.449219 M 2174.71875 1097.554688 L 2240.261719 778.023438 L 2311.183594 778.023438 L 2302.273438 821.832031 L 2322.972656 809.867188 C 2347.234375 796.257812 2372.539062 784.980469 2398.886719 776.042969 L 2391.441406 840.378906 C 2357.960938 852.558594 2325.597656 867.363281 2294.527344 884.707031 L 2288.503906 888.40625 L 2245.769531 1097.382812 L 2174.761719 1097.597656 Z M 2667.980469 1105.128906 L 2676.671875 1062.824219 L 2793.726562 1062.824219 C 2838.179688 1062.824219 2856.898438 1058.953125 2864.171875 1022.199219 C 2867.832031 1011.226562 2867.617188 999.304688 2863.65625 988.417969 C 2856.597656 974.90625 2839.214844 970.257812 2798.332031 962.339844 C 2751.722656 953.34375 2724.742188 945.210938 2715.488281 928 C 2709.808594 917.671875 2710.109375 900.371094 2716.523438 868.09375 C 2728.140625 809.566406 2746.34375 781.941406 2863.3125 781.941406 L 2965.949219 781.941406 L 2957.128906 829.363281 L 2843.257812 829.363281 C 2810.421875 830.179688 2793.039062 832.117188 2786.496094 865.082031 C 2785.546875 867.832031 2784.835938 870.636719 2784.355469 873.503906 C 2783.875 876.371094 2783.632812 879.257812 2783.632812 882.167969 C 2783.632812 885.074219 2783.875 887.960938 2784.355469 890.828125 C 2784.835938 893.695312 2785.546875 896.503906 2786.496094 899.25 C 2793.382812 912.550781 2809.90625 916.035156 2849.757812 924.511719 C 2902.472656 935.617188 2927.003906 946.03125 2934.363281 960.488281 C 2940.386719 972.109375 2937.375 990.183594 2931.78125 1018.585938 C 2919.34375 1081.414062 2903.808594 1105.085938 2788.476562 1105.085938 L 2667.980469 1105.085938 Z M 2942.96875 1105.128906 L 2951.660156 1062.824219 L 3068.628906 1062.824219 C 3113.039062 1062.824219 3131.804688 1058.953125 3139.035156 1022.199219 C 3139.960938 1019.476562 3140.648438 1016.691406 3141.09375 1013.847656 C 3141.542969 1011.003906 3141.746094 1008.144531 3141.703125 1005.265625 C 3141.65625 1002.386719 3141.367188 999.53125 3140.832031 996.703125 C 3140.296875 993.875 3139.527344 991.113281 3138.515625 988.417969 C 3131.503906 974.90625 3114.074219 970.257812 3073.191406 962.339844 C 3026.628906 953.34375 2999.601562 945.210938 2990.351562 928 C 2984.753906 917.671875 2984.972656 900.371094 2991.425781 868.09375 C 3003.003906 809.566406 3021.25 781.941406 3138.214844 781.941406 L 3240.808594 781.941406 L 3232.03125 829.363281 L 3118.117188 829.363281 C 3085.328125 830.179688 3067.941406 832.117188 3061.398438 865.082031 C 3058.902344 879.15625 3056.839844 889.441406 3061.917969 899.769531 C 3068.757812 912.9375 3085.199219 916.464844 3125.089844 924.898438 C 3177.765625 936.046875 3202.292969 946.417969 3209.78125 960.875 C 3215.679688 972.496094 3212.664062 990.570312 3207.070312 1019.015625 C 3194.632812 1081.804688 3179.097656 1105.515625 3063.765625 1105.515625 L 2942.96875 1105.085938 Z M 2506.214844 1105.214844 C 2455.519531 1105.214844 2420.402344 1094.066406 2402.199219 1071.90625 C 2386.277344 1052.410156 2381.972656 1022.847656 2389.546875 983.855469 L 2406.027344 903.46875 C 2422.082031 821.015625 2476.734375 778.753906 2568.484375 778.753906 C 2612.078125 778.753906 2642.289062 789.039062 2658.339844 808.019531 C 2674.390625 826.953125 2679.039062 859.574219 2670.046875 903.039062 L 2657.996094 961.566406 L 2467.050781 961.566406 L 2462.578125 984.375 C 2458.144531 1007.613281 2460.296875 1022.933594 2469.632812 1034.378906 C 2479.960938 1047.375 2498.511719 1052.753906 2531.777344 1052.753906 C 2555.660156 1052.753906 2593.140625 1050.257812 2622.019531 1047.761719 L 2612.550781 1097.683594 C 2577.132812 1102.160156 2541.542969 1104.570312 2505.871094 1104.785156 L 2506.300781 1105.214844 Z M 2554.28125 827.597656 C 2503.675781 827.597656 2487.105469 858.496094 2481.8125 884.101562 L 2475.359375 917.152344 L 2598.996094 917.152344 L 2604.289062 889.527344 C 2604.847656 887.601562 2605.300781 885.652344 2605.648438 883.679688 C 2605.996094 881.707031 2606.234375 879.722656 2606.363281 877.722656 C 2606.492188 875.722656 2606.511719 873.722656 2606.425781 871.722656 C 2606.335938 869.722656 2606.136719 867.730469 2605.828125 865.75 C 2605.519531 863.769531 2605.105469 861.816406 2604.582031 859.878906 C 2604.0625 857.945312 2603.433594 856.046875 2602.703125 854.179688 C 2601.976562 852.316406 2601.144531 850.496094 2600.214844 848.722656 C 2599.285156 846.945312 2598.261719 845.226562 2597.144531 843.566406 C 2588.238281 833.238281 2574.164062 827.597656 2553.980469 827.597656 M 1371.3125 1105.214844 C 1320.445312 1105.214844 1285.457031 1094.066406 1267.167969 1071.90625 C 1251.203125 1052.410156 1246.425781 1022.847656 1254.515625 983.855469 L 1270.957031 903.46875 C 1287.136719 821.015625 1341.660156 778.753906 1433.410156 778.753906 C 1477.089844 778.753906 1507.34375 789.039062 1523.265625 808.019531 C 1539.1875 826.953125 1544.007812 859.574219 1535.101562 903.039062 L 1522.878906 961.566406 L 1331.804688 961.566406 L 1327.375 984.375 C 1322.941406 1007.613281 1325.136719 1022.933594 1334.429688 1034.378906 C 1344.757812 1047.375 1363.308594 1052.753906 1396.574219 1052.753906 C 1420.457031 1052.753906 1457.941406 1050.257812 1486.945312 1047.761719 L 1477.304688 1097.683594 C 1441.972656 1102.160156 1406.382812 1104.570312 1370.753906 1104.785156 Z M 1419.121094 827.597656 C 1368.601562 827.597656 1352.03125 858.496094 1346.652344 884.101562 L 1340.199219 916.980469 L 1464.480469 916.980469 L 1469.859375 889.351562 C 1472.355469 876.355469 1474.292969 857.507812 1462.628906 843.351562 C 1453.808594 833.023438 1439.605469 827.425781 1419.425781 827.425781 " fill-opacity="1" fill-rule="nonzero"/></g><g clip-path="url(#78d4657b15)"><path fill="#fe7c03" d="M 1577.445312 381.632812 L 1574.433594 395.664062 C 1562.640625 451.609375 1589.753906 466.800781 1680.339844 466.800781 C 1742.484375 466.800781 1847.875 460.214844 1885.875 457.332031 L 1862.160156 570.726562 C 1856.050781 574.515625 1729.617188 584.5 1636.230469 584.5 C 1418.820312 584.5 1353.28125 506.476562 1378.628906 386.582031 L 1402.339844 272.671875 C 1424.5 167.753906 1507.945312 77.855469 1730.433594 77.855469 C 1952.921875 77.855469 1980.808594 173.734375 1958.214844 279.6875 L 1936.695312 381.675781 L 1577.445312 381.675781 Z M 1777.683594 252.703125 C 1784.828125 218.792969 1777.039062 190.863281 1708.3125 190.863281 C 1639.542969 190.863281 1611.789062 218.878906 1604.773438 252.703125 L 1600.296875 273.316406 L 1773.296875 273.316406 L 1777.683594 252.660156 Z M 977.847656 381.632812 L 974.964844 395.664062 C 963.175781 451.609375 990.199219 466.585938 1080.871094 466.585938 C 1142.972656 466.585938 1248.277344 460 1286.40625 457.117188 L 1262.5625 570.511719 C 1256.539062 574.300781 1130.148438 584.28125 1036.761719 584.28125 C 819.351562 584.28125 753.8125 506.261719 779.074219 386.410156 L 803.085938 272.371094 C 825.25 167.453125 908.777344 77.554688 1131.308594 77.554688 C 1353.796875 77.554688 1381.640625 173.433594 1359.089844 279.382812 L 1337.574219 381.375 Z M 1178.214844 252.703125 C 1185.359375 218.792969 1177.484375 190.863281 1108.84375 190.863281 C 1040.164062 190.863281 1012.234375 218.878906 1005.304688 252.703125 L 1000.828125 273.316406 L 1173.527344 273.316406 L 1178.171875 252.617188 Z M 599.363281 77.898438 L 214.203125 77.898438 L 195.742188 169.90625 C 199.054688 169.90625 243.164062 176.015625 243.164062 176.015625 L 392.367188 136.941406 L 394 183.417969 C 394 183.417969 500.683594 198.179688 572.722656 268.066406 L 572.207031 325.386719 L 627.894531 377.933594 L 593.207031 446.058594 L 582.878906 455.265625 L 583.609375 465.59375 L 571.261719 489.78125 L 479.167969 474.632812 C 483.152344 471.757812 486.972656 468.679688 490.632812 465.402344 C 494.289062 462.125 497.765625 458.660156 501.054688 455.011719 C 504.347656 451.367188 507.4375 447.554688 510.324219 443.582031 C 513.210938 439.605469 515.878906 435.488281 518.332031 431.230469 C 520.78125 426.972656 523 422.597656 524.988281 418.105469 C 526.972656 413.613281 528.71875 409.027344 530.21875 404.347656 C 531.71875 399.671875 532.96875 394.925781 533.964844 390.117188 C 534.964844 385.304688 535.703125 380.457031 536.1875 375.566406 C 530.417969 388.417969 523.550781 400.65625 515.582031 412.273438 C 507.613281 423.894531 498.675781 434.710938 488.761719 444.722656 C 460.058594 472.566406 399.421875 488.617188 339.132812 441.453125 L 125.683594 510.738281 L 71.199219 771.527344 L 308.40625 584.628906 L 478.605469 584.628906 C 635.253906 584.628906 717.578125 519.558594 741.890625 404.65625 L 772.960938 257.738281 C 798.007812 138.792969 735.394531 77.855469 599.449219 77.855469 " fill-opacity="1" fill-rule="nonzero"/></g><g clip-path="url(#bab1f04949)"><path fill="#fe7c03" d="M 536.789062 305.980469 L 467.933594 297.632812 L 536.359375 337.308594 Z M 2460.769531 -47.761719 L 2429.742188 91.796875 C 2374.335938 82.726562 2318.566406 78.078125 2262.421875 77.855469 C 2105.863281 77.855469 2023.453125 142.835938 1999.226562 257.738281 L 1968.15625 404.65625 C 1943.109375 523.605469 2005.765625 584.628906 2141.710938 584.628906 C 2204.328125 584.628906 2284.886719 553.6875 2337.777344 533.070312 L 2328.050781 574.300781 L 2493.734375 574.300781 L 2626.367188 -47.761719 Z M 2166.328125 404.957031 L 2197.398438 258.039062 C 2204.113281 226.109375 2228.46875 203.128906 2280.242188 203.128906 C 2321.976562 203.71875 2363.390625 207.691406 2404.480469 215.046875 L 2364.199219 410.296875 C 2331.582031 428.242188 2271.71875 460 2226.402344 460 C 2174.632812 460 2159.398438 439.34375 2166.542969 404.914062 M -93.320312 209.796875 C -232.277344 186.730469 -236.195312 185.785156 -223.152344 126.613281 C -213.429688 84.4375 -193.976562 79.402344 -116.429688 77.984375 L 163.121094 77.984375 L 190.234375 -48.625 L -72.707031 -48.625 C -336.335938 -48.625 -399.765625 0.351562 -427.824219 122.996094 C -458.164062 255.972656 -432 285.453125 -218.25 317.855469 C -73.351562 340.019531 -70.941406 346.390625 -83.679688 401.859375 C -95.300781 452.898438 -118.667969 459.097656 -221.390625 459.398438 L -498.875 459.398438 L -523.40625 576.234375 L -230.296875 576.234375 C 46.027344 576.535156 88.886719 526.230469 116.730469 404.914062 C 144.617188 283.558594 144.789062 250.292969 -93.320312 210.273438 M 3029.082031 91.796875 C 2973.820312 82.746094 2918.191406 78.101562 2862.195312 77.855469 C 2705.546875 77.855469 2623.222656 142.835938 2598.996094 257.738281 L 2567.96875 404.65625 C 2542.878906 523.605469 2605.535156 584.628906 2741.480469 584.628906 C 2804.097656 584.628906 2884.570312 553.6875 2937.546875 533.070312 L 2927.820312 574.300781 L 3093.503906 574.300781 L 3197.042969 83.492188 L 3031.363281 83.492188 L 3029.082031 91.839844 Z M 2765.28125 404.957031 L 2796.351562 258.039062 C 2803.066406 226.109375 2827.421875 203.128906 2879.191406 203.128906 C 2920.679688 203.730469 2962.078125 207.730469 3002.917969 215.046875 L 2962.722656 410.296875 C 2930.101562 428.242188 2870.285156 460 2824.925781 460 C 2773.15625 460 2757.921875 439.34375 2765.109375 404.914062 M 3514.507812 330.722656 L 3346.027344 330.722656 L 3295.59375 574.300781 L 3130.769531 574.300781 L 3191.535156 284.460938 L 3218.476562 158.371094 L 3228.804688 111.378906 C 3229.984375 106.03125 3231.375 100.734375 3232.976562 95.496094 C 3234.578125 90.257812 3236.382812 85.09375 3238.394531 80 C 3240.40625 74.902344 3242.617188 69.894531 3245.027344 64.976562 C 3247.433594 60.058594 3250.035156 55.242188 3252.828125 50.527344 C 3255.617188 45.816406 3258.59375 41.222656 3261.75 36.746094 C 3264.90625 32.269531 3268.234375 27.921875 3271.734375 23.710938 C 3275.238281 19.5 3278.902344 15.433594 3282.726562 11.511719 C 3286.550781 7.589844 3290.523438 3.828125 3294.644531 0.222656 C 3329.460938 -31.710938 3374.691406 -47.71875 3430.289062 -47.761719 L 3650.925781 -47.761719 L 3623.988281 76.5625 L 3433.390625 76.5625 C 3432.195312 76.472656 3431 76.4375 3429.804688 76.464844 C 3428.609375 76.488281 3427.414062 76.566406 3426.226562 76.703125 C 3425.039062 76.839844 3423.859375 77.035156 3422.6875 77.285156 C 3421.519531 77.535156 3420.363281 77.839844 3419.222656 78.203125 C 3418.078125 78.5625 3416.957031 78.976562 3415.855469 79.445312 C 3414.753906 79.914062 3413.679688 80.429688 3412.625 81.003906 C 3411.574219 81.574219 3410.550781 82.191406 3409.558594 82.859375 C 3408.566406 83.527344 3407.609375 84.242188 3406.683594 85.003906 C 3405.757812 85.761719 3404.875 86.566406 3404.027344 87.410156 C 3403.179688 88.253906 3402.371094 89.136719 3401.609375 90.058594 C 3400.847656 90.980469 3400.128906 91.9375 3399.457031 92.925781 C 3398.785156 93.917969 3398.160156 94.9375 3397.585938 95.988281 C 3397.011719 97.035156 3396.488281 98.113281 3396.015625 99.210938 C 3395.542969 100.3125 3395.125 101.429688 3394.761719 102.570312 C 3394.398438 103.710938 3394.085938 104.867188 3393.832031 106.035156 C 3393.578125 107.203125 3393.378906 108.382812 3393.238281 109.570312 L 3372.539062 204.675781 L 3540.542969 204.675781 L 3514.464844 330.769531 Z M 1739.167969 1098.585938 L 1691.316406 986.351562 L 1595.433594 1098.585938 L 1533.207031 1098.585938 L 1667.386719 940.5625 L 1600.511719 778.753906 L 1668.25 778.753906 L 1715.628906 889.570312 L 1810.476562 778.753906 L 1870.726562 778.753906 L 1739.6875 934.710938 L 1808.84375 1098.585938 L 1739.125 1098.585938 Z M 1815.855469 1242.40625 L 1910.832031 778.496094 L 1982.140625 778.496094 L 1974.824219 814.816406 L 1992.726562 804.488281 C 2020.871094 788.4375 2066.746094 771.222656 2100.917969 771.222656 C 2128.628906 771.222656 2148.726562 778.410156 2160.433594 792.65625 C 2175.148438 810.730469 2178.335938 840.59375 2169.941406 881.824219 L 2148.210938 988.289062 C 2131.945312 1067.171875 2089.511719 1105.515625 2018.246094 1105.515625 C 1989.878906 1105.394531 1961.863281 1102.195312 1934.199219 1095.917969 L 1917.417969 1091.699219 L 1886.390625 1242.105469 Z M 2051.8125 829.148438 C 2024.273438 829.148438 1989.714844 845.027344 1969.617188 860.089844 L 1964.453125 863.878906 L 1929.25 1035.414062 L 1944.660156 1039.328125 C 1967.410156 1044.988281 1990.503906 1048.042969 2013.945312 1048.496094 C 2046.949219 1048.496094 2069.027344 1029.730469 2076.042969 995.605469 L 2097.902344 889.136719 C 2098.484375 887.277344 2098.953125 885.386719 2099.316406 883.472656 C 2099.679688 881.554688 2099.929688 879.625 2100.070312 877.679688 C 2100.207031 875.734375 2100.234375 873.789062 2100.148438 871.839844 C 2100.066406 869.890625 2099.867188 867.957031 2099.558594 866.03125 C 2099.25 864.105469 2098.832031 862.203125 2098.304688 860.324219 C 2097.773438 858.449219 2097.140625 856.609375 2096.402344 854.804688 C 2095.660156 853 2094.816406 851.246094 2093.875 849.539062 C 2092.929688 847.832031 2091.894531 846.183594 2090.761719 844.597656 C 2089.539062 843.277344 2088.246094 842.03125 2086.882812 840.855469 C 2085.519531 839.683594 2084.097656 838.589844 2082.609375 837.574219 C 2081.125 836.5625 2079.585938 835.636719 2077.992188 834.796875 C 2076.402344 833.960938 2074.769531 833.214844 2073.09375 832.558594 C 2071.417969 831.90625 2069.710938 831.347656 2067.972656 830.886719 C 2066.234375 830.425781 2064.472656 830.066406 2062.695312 829.804688 C 2060.914062 829.542969 2059.125 829.382812 2057.328125 829.324219 C 2055.53125 829.261719 2053.734375 829.304688 2051.941406 829.449219 M 2174.71875 1097.554688 L 2240.261719 778.023438 L 2311.183594 778.023438 L 2302.273438 821.832031 L 2322.972656 809.867188 C 2347.234375 796.257812 2372.539062 784.980469 2398.886719 776.042969 L 2391.441406 840.378906 C 2357.960938 852.558594 2325.597656 867.363281 2294.527344 884.707031 L 2288.503906 888.40625 L 2245.769531 1097.382812 L 2174.761719 1097.597656 Z M 2667.980469 1105.128906 L 2676.671875 1062.824219 L 2793.726562 1062.824219 C 2838.179688 1062.824219 2856.898438 1058.953125 2864.171875 1022.199219 C 2867.832031 1011.226562 2867.617188 999.304688 2863.65625 988.417969 C 2856.597656 974.90625 2839.214844 970.257812 2798.332031 962.339844 C 2751.722656 953.34375 2724.742188 945.210938 2715.488281 928 C 2709.808594 917.671875 2710.109375 900.371094 2716.523438 868.09375 C 2728.140625 809.566406 2746.34375 781.941406 2863.3125 781.941406 L 2965.949219 781.941406 L 2957.128906 829.363281 L 2843.257812 829.363281 C 2810.421875 830.179688 2793.039062 832.117188 2786.496094 865.082031 C 2785.546875 867.832031 2784.835938 870.636719 2784.355469 873.503906 C 2783.875 876.371094 2783.632812 879.257812 2783.632812 882.167969 C 2783.632812 885.074219 2783.875 887.960938 2784.355469 890.828125 C 2784.835938 893.695312 2785.546875 896.503906 2786.496094 899.25 C 2793.382812 912.550781 2809.90625 916.035156 2849.757812 924.511719 C 2902.472656 935.617188 2927.003906 946.03125 2934.363281 960.488281 C 2940.386719 972.109375 2937.375 990.183594 2931.78125 1018.585938 C 2919.34375 1081.414062 2903.808594 1105.085938 2788.476562 1105.085938 L 2667.980469 1105.085938 Z M 2942.96875 1105.128906 L 2951.660156 1062.824219 L 3068.628906 1062.824219 C 3113.039062 1062.824219 3131.804688 1058.953125 3139.035156 1022.199219 C 3139.960938 1019.476562 3140.648438 1016.691406 3141.09375 1013.847656 C 3141.542969 1011.003906 3141.746094 1008.144531 3141.703125 1005.265625 C 3141.65625 1002.386719 3141.367188 999.53125 3140.832031 996.703125 C 3140.296875 993.875 3139.527344 991.113281 3138.515625 988.417969 C 3131.503906 974.90625 3114.074219 970.257812 3073.191406 962.339844 C 3026.628906 953.34375 2999.601562 945.210938 2990.351562 928 C 2984.753906 917.671875 2984.972656 900.371094 2991.425781 868.09375 C 3003.003906 809.566406 3021.25 781.941406 3138.214844 781.941406 L 3240.808594 781.941406 L 3232.03125 829.363281 L 3118.117188 829.363281 C 3085.328125 830.179688 3067.941406 832.117188 3061.398438 865.082031 C 3058.902344 879.15625 3056.839844 889.441406 3061.917969 899.769531 C 3068.757812 912.9375 3085.199219 916.464844 3125.089844 924.898438 C 3177.765625 936.046875 3202.292969 946.417969 3209.78125 960.875 C 3215.679688 972.496094 3212.664062 990.570312 3207.070312 1019.015625 C 3194.632812 1081.804688 3179.097656 1105.515625 3063.765625 1105.515625 L 2942.96875 1105.085938 Z M 2506.214844 1105.214844 C 2455.519531 1105.214844 2420.402344 1094.066406 2402.199219 1071.90625 C 2386.277344 1052.410156 2381.972656 1022.847656 2389.546875 983.855469 L 2406.027344 903.46875 C 2422.082031 821.015625 2476.734375 778.753906 2568.484375 778.753906 C 2612.078125 778.753906 2642.289062 789.039062 2658.339844 808.019531 C 2674.390625 826.953125 2679.039062 859.574219 2670.046875 903.039062 L 2657.996094 961.566406 L 2467.050781 961.566406 L 2462.578125 984.375 C 2458.144531 1007.613281 2460.296875 1022.933594 2469.632812 1034.378906 C 2479.960938 1047.375 2498.511719 1052.753906 2531.777344 1052.753906 C 2555.660156 1052.753906 2593.140625 1050.257812 2622.019531 1047.761719 L 2612.550781 1097.683594 C 2577.132812 1102.160156 2541.542969 1104.570312 2505.871094 1104.785156 L 2506.300781 1105.214844 Z M 2554.28125 827.597656 C 2503.675781 827.597656 2487.105469 858.496094 2481.8125 884.101562 L 2475.359375 917.152344 L 2598.996094 917.152344 L 2604.289062 889.527344 C 2604.847656 887.601562 2605.300781 885.652344 2605.648438 883.679688 C 2605.996094 881.707031 2606.234375 879.722656 2606.363281 877.722656 C 2606.492188 875.722656 2606.511719 873.722656 2606.425781 871.722656 C 2606.335938 869.722656 2606.136719 867.730469 2605.828125 865.75 C 2605.519531 863.769531 2605.105469 861.816406 2604.582031 859.878906 C 2604.0625 857.945312 2603.433594 856.046875 2602.703125 854.179688 C 2601.976562 852.316406 2601.144531 850.496094 2600.214844 848.722656 C 2599.285156 846.945312 2598.261719 845.226562 2597.144531 843.566406 C 2588.238281 833.238281 2574.164062 827.597656 2553.980469 827.597656 M 1371.3125 1105.214844 C 1320.445312 1105.214844 1285.457031 1094.066406 1267.167969 1071.90625 C 1251.203125 1052.410156 1246.425781 1022.847656 1254.515625 983.855469 L 1270.957031 903.46875 C 1287.136719 821.015625 1341.660156 778.753906 1433.410156 778.753906 C 1477.089844 778.753906 1507.34375 789.039062 1523.265625 808.019531 C 1539.1875 826.953125 1544.007812 859.574219 1535.101562 903.039062 L 1522.878906 961.566406 L 1331.804688 961.566406 L 1327.375 984.375 C 1322.941406 1007.613281 1325.136719 1022.933594 1334.429688 1034.378906 C 1344.757812 1047.375 1363.308594 1052.753906 1396.574219 1052.753906 C 1420.457031 1052.753906 1457.941406 1050.257812 1486.945312 1047.761719 L 1477.304688 1097.683594 C 1441.972656 1102.160156 1406.382812 1104.570312 1370.753906 1104.785156 Z M 1419.121094 827.597656 C 1368.601562 827.597656 1352.03125 858.496094 1346.652344 884.101562 L 1340.199219 916.980469 L 1464.480469 916.980469 L 1469.859375 889.355469 C 1472.355469 876.355469 1474.292969 857.507812 1462.628906 843.351562 C 1453.808594 833.023438 1439.605469 827.425781 1419.425781 827.425781 " fill-opacity="1" fill-rule="nonzero"/></g><g clip-path="url(#0a47c63f91)"><path fill="#fe7c03" d="M 1577.445312 381.632812 L 1574.433594 395.664062 C 1562.640625 451.609375 1589.753906 466.800781 1680.339844 466.800781 C 1742.484375 466.800781 1847.875 460.214844 1885.875 457.332031 L 1862.160156 570.726562 C 1856.050781 574.515625 1729.617188 584.5 1636.230469 584.5 C 1418.820312 584.5 1353.28125 506.476562 1378.628906 386.582031 L 1402.339844 272.671875 C 1424.5 167.753906 1507.945312 77.855469 1730.433594 77.855469 C 1952.921875 77.855469 1980.808594 173.734375 1958.214844 279.6875 L 1936.695312 381.675781 L 1577.445312 381.675781 Z M 1777.683594 252.703125 C 1784.828125 218.792969 1777.039062 190.863281 1708.3125 190.863281 C 1639.542969 190.863281 1611.789062 218.878906 1604.773438 252.703125 L 1600.296875 273.316406 L 1773.296875 273.316406 L 1777.683594 252.660156 Z M 977.847656 381.632812 L 974.964844 395.664062 C 963.175781 451.609375 990.199219 466.585938 1080.871094 466.585938 C 1142.972656 466.585938 1248.277344 460 1286.40625 457.117188 L 1262.5625 570.511719 C 1256.539062 574.300781 1130.148438 584.28125 1036.761719 584.28125 C 819.351562 584.28125 753.8125 506.261719 779.074219 386.410156 L 803.085938 272.371094 C 825.25 167.453125 908.777344 77.554688 1131.308594 77.554688 C 1353.796875 77.554688 1381.640625 173.433594 1359.089844 279.382812 L 1337.574219 381.375 Z M 1178.214844 252.703125 C 1185.359375 218.792969 1177.484375 190.863281 1108.84375 190.863281 C 1040.164062 190.863281 1012.234375 218.878906 1005.304688 252.703125 L 1000.828125 273.316406 L 1173.527344 273.316406 L 1178.171875 252.617188 Z M 599.363281 77.898438 L 214.203125 77.898438 L 195.742188 169.90625 C 199.054688 169.90625 243.164062 176.015625 243.164062 176.015625 L 392.367188 136.941406 L 394 183.417969 C 394 183.417969 500.683594 198.179688 572.722656 268.066406 L 572.207031 325.386719 L 627.894531 377.933594 L 593.207031 446.054688 L 582.878906 455.265625 L 583.609375 465.59375 L 571.261719 489.78125 L 479.167969 474.632812 C 483.152344 471.757812 486.972656 468.679688 490.632812 465.402344 C 494.289062 462.125 497.765625 458.660156 501.054688 455.011719 C 504.347656 451.367188 507.4375 447.554688 510.324219 443.582031 C 513.210938 439.605469 515.878906 435.488281 518.332031 431.230469 C 520.78125 426.972656 523 422.597656 524.988281 418.105469 C 526.972656 413.613281 528.71875 409.027344 530.21875 404.347656 C 531.71875 399.671875 532.96875 394.925781 533.964844 390.117188 C 534.964844 385.304688 535.703125 380.457031 536.1875 375.566406 C 530.417969 388.417969 523.550781 400.65625 515.582031 412.273438 C 507.613281 423.894531 498.675781 434.710938 488.761719 444.722656 C 460.058594 472.566406 399.421875 488.617188 339.132812 441.453125 L 125.683594 510.738281 L 71.199219 771.527344 L 308.40625 584.628906 L 478.605469 584.628906 C 635.253906 584.628906 717.578125 519.558594 741.890625 404.65625 L 772.960938 257.738281 C 798.007812 138.792969 735.394531 77.855469 599.449219 77.855469 " fill-opacity="1" fill-rule="nonzero"/></g><g clip-path="url(#4c094a8146)"><path fill="#fe7c03" d="M 536.789062 305.980469 L 467.933594 297.632812 L 536.359375 337.308594 Z M 2460.769531 -47.761719 L 2429.742188 91.796875 C 2374.335938 82.726562 2318.566406 78.078125 2262.421875 77.855469 C 2105.863281 77.855469 2023.453125 142.835938 1999.226562 257.738281 L 1968.15625 404.65625 C 1943.109375 523.605469 2005.765625 584.628906 2141.710938 584.628906 C 2204.328125 584.628906 2284.886719 553.683594 2337.777344 533.070312 L 2328.050781 574.300781 L 2493.734375 574.300781 L 2626.367188 -47.761719 Z M 2166.328125 404.957031 L 2197.398438 258.039062 C 2204.113281 226.109375 2228.46875 203.128906 2280.242188 203.128906 C 2321.976562 203.71875 2363.390625 207.691406 2404.480469 215.046875 L 2364.199219 410.296875 C 2331.582031 428.242188 2271.71875 460 2226.402344 460 C 2174.632812 460 2159.398438 439.34375 2166.542969 404.914062 M -93.320312 209.796875 C -232.277344 186.730469 -236.195312 185.785156 -223.152344 126.613281 C -213.429688 84.4375 -193.976562 79.402344 -116.429688 77.984375 L 163.121094 77.984375 L 190.234375 -48.625 L -72.707031 -48.625 C -336.335938 -48.625 -399.765625 0.351562 -427.824219 122.996094 C -458.164062 255.972656 -432 285.453125 -218.25 317.855469 C -73.351562 340.019531 -70.941406 346.390625 -83.679688 401.859375 C -95.300781 452.898438 -118.667969 459.097656 -221.390625 459.398438 L -498.875 459.398438 L -523.40625 576.234375 L -230.296875 576.234375 C 46.027344 576.535156 88.886719 526.230469 116.730469 404.914062 C 144.617188 283.558594 144.789062 250.292969 -93.320312 210.269531 M 3029.082031 91.796875 C 2973.820312 82.746094 2918.191406 78.101562 2862.195312 77.855469 C 2705.546875 77.855469 2623.222656 142.835938 2598.996094 257.738281 L 2567.96875 404.65625 C 2542.878906 523.605469 2605.535156 584.628906 2741.480469 584.628906 C 2804.097656 584.628906 2884.570312 553.683594 2937.546875 533.070312 L 2927.820312 574.300781 L 3093.503906 574.300781 L 3197.042969 83.492188 L 3031.363281 83.492188 L 3029.082031 91.839844 Z M 2765.28125 404.957031 L 2796.351562 258.039062 C 2803.066406 226.109375 2827.421875 203.128906 2879.191406 203.128906 C 2920.679688 203.730469 2962.078125 207.730469 3002.917969 215.046875 L 2962.722656 410.296875 C 2930.101562 428.242188 2870.285156 460 2824.925781 460 C 2773.15625 460 2757.921875 439.34375 2765.109375 404.914062 M 3514.507812 330.722656 L 3346.027344 330.722656 L 3295.59375 574.300781 L 3130.769531 574.300781 L 3191.535156 284.460938 L 3218.476562 158.371094 L 3228.804688 111.378906 C 3229.984375 106.03125 3231.375 100.734375 3232.976562 95.496094 C 3234.578125 90.257812 3236.382812 85.09375 3238.394531 80 C 3240.40625 74.902344 3242.617188 69.894531 3245.027344 64.976562 C 3247.433594 60.058594 3250.035156 55.242188 3252.828125 50.527344 C 3255.617188 45.816406 3258.59375 41.222656 3261.75 36.746094 C 3264.90625 32.269531 3268.234375 27.921875 3271.734375 23.710938 C 3275.238281 19.5 3278.902344 15.433594 3282.726562 11.511719 C 3286.550781 7.589844 3290.523438 3.828125 3294.644531 0.21875 C 3329.460938 -31.710938 3374.691406 -47.71875 3430.289062 -47.761719 L 3650.925781 -47.761719 L 3623.988281 76.5625 L 3433.390625 76.5625 C 3432.195312 76.472656 3431 76.4375 3429.804688 76.460938 C 3428.609375 76.488281 3427.414062 76.566406 3426.226562 76.703125 C 3425.039062 76.839844 3423.859375 77.035156 3422.6875 77.285156 C 3421.519531 77.535156 3420.363281 77.839844 3419.222656 78.203125 C 3418.078125 78.5625 3416.957031 78.976562 3415.855469 79.445312 C 3414.753906 79.914062 3413.679688 80.429688 3412.625 81.003906 C 3411.574219 81.574219 3410.550781 82.191406 3409.558594 82.859375 C 3408.566406 83.527344 3407.609375 84.242188 3406.683594 85.003906 C 3405.757812 85.761719 3404.875 86.566406 3404.027344 87.410156 C 3403.179688 88.253906 3402.371094 89.136719 3401.609375 90.058594 C 3400.847656 90.980469 3400.128906 91.9375 3399.457031 92.925781 C 3398.785156 93.917969 3398.160156 94.9375 3397.585938 95.988281 C 3397.011719 97.035156 3396.488281 98.113281 3396.015625 99.210938 C 3395.542969 100.3125 3395.125 101.429688 3394.761719 102.570312 C 3394.398438 103.710938 3394.085938 104.863281 3393.832031 106.035156 C 3393.578125 107.203125 3393.378906 108.382812 3393.238281 109.570312 L 3372.539062 204.675781 L 3540.542969 204.675781 L 3514.464844 330.765625 Z M 1739.167969 1098.585938 L 1691.316406 986.351562 L 1595.433594 1098.585938 L 1533.207031 1098.585938 L 1667.386719 940.5625 L 1600.511719 778.753906 L 1668.25 778.753906 L 1715.628906 889.570312 L 1810.476562 778.753906 L 1870.726562 778.753906 L 1739.6875 934.710938 L 1808.84375 1098.585938 L 1739.125 1098.585938 Z M 1815.855469 1242.40625 L 1910.832031 778.496094 L 1982.140625 778.496094 L 1974.824219 814.816406 L 1992.726562 804.488281 C 2020.871094 788.4375 2066.746094 771.222656 2100.917969 771.222656 C 2128.628906 771.222656 2148.726562 778.410156 2160.433594 792.65625 C 2175.148438 810.730469 2178.335938 840.59375 2169.941406 881.824219 L 2148.210938 988.289062 C 2131.945312 1067.171875 2089.511719 1105.515625 2018.246094 1105.515625 C 1989.878906 1105.394531 1961.863281 1102.195312 1934.199219 1095.917969 L 1917.417969 1091.699219 L 1886.390625 1242.105469 Z M 2051.8125 829.148438 C 2024.273438 829.148438 1989.714844 845.027344 1969.617188 860.089844 L 1964.453125 863.878906 L 1929.25 1035.410156 L 1944.660156 1039.328125 C 1967.410156 1044.984375 1990.503906 1048.042969 2013.945312 1048.496094 C 2046.949219 1048.496094 2069.027344 1029.730469 2076.042969 995.605469 L 2097.902344 889.136719 C 2098.484375 887.277344 2098.953125 885.386719 2099.316406 883.472656 C 2099.679688 881.554688 2099.929688 879.625 2100.070312 877.679688 C 2100.207031 875.734375 2100.234375 873.789062 2100.148438 871.839844 C 2100.066406 869.890625 2099.867188 867.957031 2099.558594 866.03125 C 2099.25 864.105469 2098.832031 862.203125 2098.304688 860.324219 C 2097.773438 858.449219 2097.140625 856.609375 2096.402344 854.804688 C 2095.660156 853 2094.816406 851.246094 2093.875 849.539062 C 2092.929688 847.832031 2091.894531 846.183594 2090.761719 844.597656 C 2089.539062 843.277344 2088.246094 842.03125 2086.882812 840.855469 C 2085.519531 839.683594 2084.097656 838.589844 2082.609375 837.574219 C 2081.125 836.5625 2079.585938 835.636719 2077.992188 834.796875 C 2076.402344 833.960938 2074.769531 833.214844 2073.09375 832.558594 C 2071.417969 831.90625 2069.710938 831.347656 2067.972656 830.886719 C 2066.234375 830.425781 2064.472656 830.066406 2062.695312 829.804688 C 2060.914062 829.542969 2059.125 829.382812 2057.328125 829.324219 C 2055.53125 829.261719 2053.734375 829.304688 2051.941406 829.449219 M 2174.71875 1097.554688 L 2240.261719 778.023438 L 2311.183594 778.023438 L 2302.273438 821.832031 L 2322.972656 809.867188 C 2347.234375 796.257812 2372.539062 784.980469 2398.886719 776.042969 L 2391.441406 840.378906 C 2357.960938 852.558594 2325.597656 867.363281 2294.527344 884.707031 L 2288.503906 888.40625 L 2245.769531 1097.382812 L 2174.761719 1097.597656 Z M 2667.980469 1105.128906 L 2676.671875 1062.824219 L 2793.726562 1062.824219 C 2838.179688 1062.824219 2856.898438 1058.953125 2864.171875 1022.199219 C 2867.832031 1011.226562 2867.617188 999.304688 2863.65625 988.417969 C 2856.597656 974.90625 2839.214844 970.257812 2798.332031 962.339844 C 2751.722656 953.34375 2724.742188 945.210938 2715.488281 928 C 2709.808594 917.671875 2710.109375 900.371094 2716.523438 868.09375 C 2728.140625 809.566406 2746.34375 781.941406 2863.3125 781.941406 L 2965.949219 781.941406 L 2957.128906 829.363281 L 2843.257812 829.363281 C 2810.421875 830.179688 2793.039062 832.117188 2786.496094 865.082031 C 2785.546875 867.832031 2784.835938 870.636719 2784.355469 873.503906 C 2783.875 876.371094 2783.632812 879.257812 2783.632812 882.167969 C 2783.632812 885.074219 2783.875 887.960938 2784.355469 890.828125 C 2784.835938 893.695312 2785.546875 896.503906 2786.496094 899.25 C 2793.382812 912.550781 2809.90625 916.035156 2849.757812 924.511719 C 2902.472656 935.617188 2927.003906 946.03125 2934.363281 960.488281 C 2940.386719 972.109375 2937.375 990.183594 2931.78125 1018.585938 C 2919.34375 1081.414062 2903.808594 1105.085938 2788.476562 1105.085938 L 2667.980469 1105.085938 Z M 2942.96875 1105.128906 L 2951.660156 1062.824219 L 3068.628906 1062.824219 C 3113.039062 1062.824219 3131.804688 1058.953125 3139.035156 1022.199219 C 3139.960938 1019.476562 3140.648438 1016.691406 3141.09375 1013.847656 C 3141.542969 1011.003906 3141.746094 1008.144531 3141.703125 1005.265625 C 3141.65625 1002.386719 3141.367188 999.53125 3140.832031 996.703125 C 3140.296875 993.875 3139.527344 991.113281 3138.515625 988.417969 C 3131.503906 974.90625 3114.074219 970.257812 3073.191406 962.339844 C 3026.628906 953.34375 2999.601562 945.210938 2990.351562 928 C 2984.753906 917.671875 2984.972656 900.371094 2991.425781 868.09375 C 3003.003906 809.566406 3021.25 781.941406 3138.214844 781.941406 L 3240.808594 781.941406 L 3232.03125 829.363281 L 3118.117188 829.363281 C 3085.328125 830.179688 3067.941406 832.117188 3061.398438 865.082031 C 3058.902344 879.152344 3056.839844 889.4375 3061.917969 899.769531 C 3068.757812 912.9375 3085.199219 916.464844 3125.089844 924.898438 C 3177.765625 936.046875 3202.292969 946.417969 3209.78125 960.875 C 3215.679688 972.496094 3212.664062 990.570312 3207.070312 1019.015625 C 3194.632812 1081.804688 3179.097656 1105.515625 3063.765625 1105.515625 L 2942.96875 1105.085938 Z M 2506.214844 1105.214844 C 2455.519531 1105.214844 2420.402344 1094.066406 2402.199219 1071.90625 C 2386.277344 1052.410156 2381.972656 1022.847656 2389.546875 983.855469 L 2406.027344 903.46875 C 2422.082031 821.015625 2476.734375 778.753906 2568.484375 778.753906 C 2612.078125 778.753906 2642.289062 789.039062 2658.339844 808.019531 C 2674.390625 826.953125 2679.039062 859.574219 2670.046875 903.039062 L 2657.996094 961.566406 L 2467.050781 961.566406 L 2462.578125 984.375 C 2458.144531 1007.613281 2460.296875 1022.933594 2469.632812 1034.378906 C 2479.960938 1047.375 2498.511719 1052.753906 2531.777344 1052.753906 C 2555.660156 1052.753906 2593.140625 1050.257812 2622.019531 1047.761719 L 2612.550781 1097.683594 C 2577.132812 1102.160156 2541.542969 1104.566406 2505.871094 1104.785156 L 2506.300781 1105.214844 Z M 2554.28125 827.597656 C 2503.675781 827.597656 2487.105469 858.496094 2481.8125 884.101562 L 2475.359375 917.152344 L 2598.996094 917.152344 L 2604.289062 889.527344 C 2604.847656 887.601562 2605.300781 885.652344 2605.648438 883.679688 C 2605.996094 881.707031 2606.234375 879.722656 2606.363281 877.722656 C 2606.492188 875.722656 2606.511719 873.722656 2606.425781 871.722656 C 2606.335938 869.722656 2606.136719 867.730469 2605.828125 865.75 C 2605.519531 863.769531 2605.105469 861.816406 2604.582031 859.878906 C 2604.0625 857.945312 2603.433594 856.046875 2602.703125 854.179688 C 2601.976562 852.316406 2601.144531 850.496094 2600.214844 848.722656 C 2599.285156 846.945312 2598.261719 845.226562 2597.144531 843.566406 C 2588.238281 833.238281 2574.164062 827.597656 2553.980469 827.597656 M 1371.3125 1105.214844 C 1320.445312 1105.214844 1285.457031 1094.066406 1267.167969 1071.90625 C 1251.203125 1052.410156 1246.425781 1022.847656 1254.515625 983.855469 L 1270.957031 903.46875 C 1287.136719 821.015625 1341.660156 778.753906 1433.410156 778.753906 C 1477.089844 778.753906 1507.34375 789.039062 1523.265625 808.019531 C 1539.1875 826.953125 1544.007812 859.574219 1535.101562 903.039062 L 1522.878906 961.566406 L 1331.804688 961.566406 L 1327.375 984.375 C 1322.941406 1007.613281 1325.136719 1022.933594 1334.429688 1034.378906 C 1344.757812 1047.375 1363.308594 1052.753906 1396.574219 1052.753906 C 1420.457031 1052.753906 1457.941406 1050.257812 1486.945312 1047.761719 L 1477.304688 1097.683594 C 1441.972656 1102.160156 1406.382812 1104.566406 1370.753906 1104.785156 Z M 1419.121094 827.597656 C 1368.601562 827.597656 1352.03125 858.496094 1346.652344 884.101562 L 1340.199219 916.980469 L 1464.480469 916.980469 L 1469.859375 889.351562 C 1472.355469 876.355469 1474.292969 857.507812 1462.628906 843.351562 C 1453.808594 833.023438 1439.605469 827.425781 1419.425781 827.425781 " fill-opacity="1" fill-rule="nonzero"/></g><g clip-path="url(#e0bf4af1a5)"><path fill="#fe7c03" d="M 1577.445312 381.632812 L 1574.433594 395.664062 C 1562.640625 451.609375 1589.753906 466.800781 1680.339844 466.800781 C 1742.484375 466.800781 1847.875 460.214844 1885.875 457.332031 L 1862.160156 570.726562 C 1856.050781 574.515625 1729.617188 584.5 1636.230469 584.5 C 1418.820312 584.5 1353.28125 506.476562 1378.628906 386.582031 L 1402.339844 272.671875 C 1424.5 167.753906 1507.945312 77.855469 1730.433594 77.855469 C 1952.921875 77.855469 1980.808594 173.734375 1958.214844 279.6875 L 1936.695312 381.675781 L 1577.445312 381.675781 Z M 1777.683594 252.703125 C 1784.828125 218.792969 1777.039062 190.863281 1708.3125 190.863281 C 1639.542969 190.863281 1611.789062 218.878906 1604.773438 252.703125 L 1600.296875 273.316406 L 1773.296875 273.316406 L 1777.683594 252.660156 Z M 977.847656 381.632812 L 974.964844 395.664062 C 963.175781 451.609375 990.199219 466.585938 1080.871094 466.585938 C 1142.972656 466.585938 1248.277344 460 1286.40625 457.117188 L 1262.5625 570.511719 C 1256.539062 574.300781 1130.148438 584.28125 1036.761719 584.28125 C 819.351562 584.28125 753.8125 506.261719 779.074219 386.410156 L 803.085938 272.371094 C 825.25 167.453125 908.777344 77.554688 1131.308594 77.554688 C 1353.796875 77.554688 1381.640625 173.433594 1359.089844 279.382812 L 1337.574219 381.375 Z M 1178.214844 252.703125 C 1185.359375 218.792969 1177.484375 190.863281 1108.84375 190.863281 C 1040.164062 190.863281 1012.234375 218.878906 1005.304688 252.703125 L 1000.828125 273.316406 L 1173.527344 273.316406 L 1178.171875 252.617188 Z M 599.363281 77.898438 L 214.203125 77.898438 L 195.742188 169.90625 C 199.054688 169.90625 243.164062 176.015625 243.164062 176.015625 L 392.367188 136.941406 L 394 183.417969 C 394 183.417969 500.683594 198.179688 572.722656 268.066406 L 572.207031 325.386719 L 627.894531 377.933594 L 593.207031 446.054688 L 582.878906 455.265625 L 583.609375 465.59375 L 571.261719 489.78125 L 479.167969 474.632812 C 483.152344 471.757812 486.972656 468.679688 490.632812 465.402344 C 494.289062 462.125 497.765625 458.660156 501.054688 455.011719 C 504.347656 451.367188 507.4375 447.554688 510.324219 443.582031 C 513.210938 439.605469 515.878906 435.488281 518.332031 431.230469 C 520.78125 426.972656 523 422.597656 524.988281 418.105469 C 526.972656 413.613281 528.71875 409.027344 530.21875 404.347656 C 531.71875 399.671875 532.96875 394.925781 533.964844 390.117188 C 534.964844 385.304688 535.703125 380.457031 536.1875 375.566406 C 530.417969 388.417969 523.550781 400.65625 515.582031 412.273438 C 507.613281 423.894531 498.675781 434.710938 488.761719 444.722656 C 460.058594 472.566406 399.421875 488.617188 339.132812 441.453125 L 125.683594 510.738281 L 71.199219 771.527344 L 308.40625 584.628906 L 478.605469 584.628906 C 635.253906 584.628906 717.578125 519.558594 741.890625 404.65625 L 772.960938 257.738281 C 798.007812 138.792969 735.394531 77.855469 599.449219 77.855469 " fill-opacity="1" fill-rule="nonzero"/><path fill="#fe7c03" d="M 536.789062 305.980469 L 467.933594 297.632812 L 536.359375 337.308594 Z M 2460.769531 -47.761719 L 2429.742188 91.796875 C 2374.335938 82.726562 2318.566406 78.078125 2262.421875 77.855469 C 2105.863281 77.855469 2023.453125 142.835938 1999.226562 257.738281 L 1968.15625 404.65625 C 1943.109375 523.605469 2005.765625 584.628906 2141.710938 584.628906 C 2204.328125 584.628906 2284.886719 553.683594 2337.777344 533.070312 L 2328.050781 574.300781 L 2493.734375 574.300781 L 2626.367188 -47.761719 Z M 2166.328125 404.957031 L 2197.398438 258.039062 C 2204.113281 226.109375 2228.46875 203.128906 2280.242188 203.128906 C 2321.976562 203.71875 2363.390625 207.691406 2404.480469 215.046875 L 2364.199219 410.296875 C 2331.582031 428.242188 2271.71875 460 2226.402344 460 C 2174.632812 460 2159.398438 439.34375 2166.542969 404.914062 M -93.320312 209.796875 C -232.277344 186.730469 -236.195312 185.785156 -223.152344 126.613281 C -213.429688 84.4375 -193.976562 79.402344 -116.429688 77.984375 L 163.121094 77.984375 L 190.234375 -48.625 L -72.707031 -48.625 C -336.335938 -48.625 -399.765625 0.351562 -427.824219 122.996094 C -458.164062 255.972656 -432 285.453125 -218.25 317.855469 C -73.351562 340.019531 -70.941406 346.390625 -83.679688 401.859375 C -95.300781 452.898438 -118.667969 459.097656 -221.390625 459.398438 L -498.875 459.398438 L -523.40625 576.234375 L -230.296875 576.234375 C 46.027344 576.535156 88.886719 526.230469 116.730469 404.914062 C 144.617188 283.558594 144.789062 250.292969 -93.320312 210.269531 M 3029.082031 91.796875 C 2973.820312 82.746094 2918.191406 78.101562 2862.195312 77.855469 C 2705.546875 77.855469 2623.222656 142.835938 2598.996094 257.738281 L 2567.96875 404.65625 C 2542.878906 523.605469 2605.535156 584.628906 2741.480469 584.628906 C 2804.097656 584.628906 2884.570312 553.683594 2937.546875 533.070312 L 2927.820312 574.300781 L 3093.503906 574.300781 L 3197.042969 83.492188 L 3031.363281 83.492188 L 3029.082031 91.839844 Z M 2765.28125 404.957031 L 2796.351562 258.039062 C 2803.066406 226.109375 2827.421875 203.128906 2879.191406 203.128906 C 2920.679688 203.730469 2962.078125 207.730469 3002.917969 215.046875 L 2962.722656 410.296875 C 2930.101562 428.242188 2870.285156 460 2824.925781 460 C 2773.15625 460 2757.921875 439.34375 2765.109375 404.914062 M 3514.507812 330.722656 L 3346.027344 330.722656 L 3295.59375 574.300781 L 3130.769531 574.300781 L 3191.535156 284.460938 L 3218.476562 158.371094 L 3228.804688 111.378906 C 3229.984375 106.03125 3231.375 100.734375 3232.976562 95.496094 C 3234.578125 90.257812 3236.382812 85.09375 3238.394531 80 C 3240.40625 74.902344 3242.617188 69.894531 3245.027344 64.976562 C 3247.433594 60.058594 3250.035156 55.242188 3252.828125 50.527344 C 3255.617188 45.816406 3258.59375 41.222656 3261.75 36.746094 C 3264.90625 32.269531 3268.234375 27.921875 3271.734375 23.710938 C 3275.238281 19.5 3278.902344 15.433594 3282.726562 11.511719 C 3286.550781 7.589844 3290.523438 3.828125 3294.644531 0.222656 C 3329.460938 -31.710938 3374.691406 -47.71875 3430.289062 -47.761719 L 3650.925781 -47.761719 L 3623.988281 76.5625 L 3433.390625 76.5625 C 3432.195312 76.472656 3431 76.4375 3429.804688 76.460938 C 3428.609375 76.488281 3427.414062 76.566406 3426.226562 76.703125 C 3425.039062 76.839844 3423.859375 77.035156 3422.6875 77.285156 C 3421.519531 77.535156 3420.363281 77.839844 3419.222656 78.203125 C 3418.078125 78.5625 3416.957031 78.976562 3415.855469 79.445312 C 3414.753906 79.914062 3413.679688 80.429688 3412.625 81.003906 C 3411.574219 81.574219 3410.550781 82.191406 3409.558594 82.859375 C 3408.566406 83.527344 3407.609375 84.242188 3406.683594 85.003906 C 3405.757812 85.761719 3404.875 86.566406 3404.027344 87.410156 C 3403.179688 88.253906 3402.371094 89.136719 3401.609375 90.058594 C 3400.847656 90.980469 3400.128906 91.9375 3399.457031 92.925781 C 3398.785156 93.917969 3398.160156 94.9375 3397.585938 95.988281 C 3397.011719 97.035156 3396.488281 98.113281 3396.015625 99.210938 C 3395.542969 100.3125 3395.125 101.429688 3394.761719 102.570312 C 3394.398438 103.710938 3394.085938 104.867188 3393.832031 106.035156 C 3393.578125 107.203125 3393.378906 108.382812 3393.238281 109.570312 L 3372.539062 204.675781 L 3540.542969 204.675781 L 3514.464844 330.769531 Z M 1739.167969 1098.585938 L 1691.316406 986.351562 L 1595.433594 1098.585938 L 1533.207031 1098.585938 L 1667.386719 940.5625 L 1600.511719 778.753906 L 1668.25 778.753906 L 1715.628906 889.570312 L 1810.476562 778.753906 L 1870.726562 778.753906 L 1739.6875 934.710938 L 1808.84375 1098.585938 L 1739.125 1098.585938 Z M 1815.855469 1242.40625 L 1910.832031 778.496094 L 1982.140625 778.496094 L 1974.824219 814.816406 L 1992.726562 804.488281 C 2020.871094 788.4375 2066.746094 771.222656 2100.917969 771.222656 C 2128.628906 771.222656 2148.726562 778.410156 2160.433594 792.65625 C 2175.148438 810.730469 2178.335938 840.59375 2169.941406 881.824219 L 2148.210938 988.289062 C 2131.945312 1067.171875 2089.511719 1105.515625 2018.246094 1105.515625 C 1989.878906 1105.394531 1961.863281 1102.195312 1934.199219 1095.917969 L 1917.417969 1091.699219 L 1886.390625 1242.105469 Z M 2051.8125 829.148438 C 2024.273438 829.148438 1989.714844 845.027344 1969.617188 860.089844 L 1964.453125 863.878906 L 1929.25 1035.410156 L 1944.660156 1039.328125 C 1967.410156 1044.988281 1990.503906 1048.042969 2013.945312 1048.496094 C 2046.949219 1048.496094 2069.027344 1029.730469 2076.042969 995.605469 L 2097.902344 889.136719 C 2098.484375 887.277344 2098.953125 885.386719 2099.316406 883.472656 C 2099.679688 881.554688 2099.929688 879.625 2100.070312 877.679688 C 2100.207031 875.734375 2100.234375 873.789062 2100.148438 871.839844 C 2100.066406 869.890625 2099.867188 867.957031 2099.558594 866.03125 C 2099.25 864.105469 2098.832031 862.203125 2098.304688 860.324219 C 2097.773438 858.449219 2097.140625 856.609375 2096.402344 854.804688 C 2095.660156 853 2094.816406 851.246094 2093.875 849.539062 C 2092.929688 847.832031 2091.894531 846.183594 2090.761719 844.597656 C 2089.539062 843.277344 2088.246094 842.03125 2086.882812 840.855469 C 2085.519531 839.683594 2084.097656 838.589844 2082.609375 837.574219 C 2081.125 836.5625 2079.585938 835.636719 2077.992188 834.796875 C 2076.402344 833.960938 2074.769531 833.214844 2073.09375 832.558594 C 2071.417969 831.90625 2069.710938 831.347656 2067.972656 830.886719 C 2066.234375 830.425781 2064.472656 830.066406 2062.695312 829.804688 C 2060.914062 829.542969 2059.125 829.382812 2057.328125 829.324219 C 2055.53125 829.261719 2053.734375 829.304688 2051.941406 829.449219 M 2174.71875 1097.554688 L 2240.261719 778.023438 L 2311.183594 778.023438 L 2302.273438 821.832031 L 2322.972656 809.867188 C 2347.234375 796.257812 2372.539062 784.980469 2398.886719 776.042969 L 2391.441406 840.378906 C 2357.960938 852.558594 2325.597656 867.363281 2294.527344 884.707031 L 2288.503906 888.40625 L 2245.769531 1097.382812 L 2174.761719 1097.597656 Z M 2667.980469 1105.128906 L 2676.671875 1062.824219 L 2793.726562 1062.824219 C 2838.179688 1062.824219 2856.898438 1058.953125 2864.171875 1022.199219 C 2867.832031 1011.226562 2867.617188 999.304688 2863.65625 988.417969 C 2856.597656 974.90625 2839.214844 970.257812 2798.332031 962.339844 C 2751.722656 953.34375 2724.742188 945.210938 2715.488281 928 C 2709.808594 917.671875 2710.109375 900.371094 2716.523438 868.09375 C 2728.140625 809.566406 2746.34375 781.941406 2863.3125 781.941406 L 2965.949219 781.941406 L 2957.128906 829.363281 L 2843.257812 829.363281 C 2810.421875 830.179688 2793.039062 832.117188 2786.496094 865.082031 C 2785.546875 867.832031 2784.835938 870.636719 2784.355469 873.503906 C 2783.875 876.371094 2783.632812 879.257812 2783.632812 882.167969 C 2783.632812 885.074219 2783.875 887.960938 2784.355469 890.828125 C 2784.835938 893.695312 2785.546875 896.503906 2786.496094 899.25 C 2793.382812 912.550781 2809.90625 916.035156 2849.757812 924.511719 C 2902.472656 935.617188 2927.003906 946.03125 2934.363281 960.488281 C 2940.386719 972.109375 2937.375 990.183594 2931.78125 1018.585938 C 2919.34375 1081.414062 2903.808594 1105.085938 2788.476562 1105.085938 L 2667.980469 1105.085938 Z M 2942.96875 1105.128906 L 2951.660156 1062.824219 L 3068.628906 1062.824219 C 3113.039062 1062.824219 3131.804688 1058.953125 3139.035156 1022.199219 C 3139.960938 1019.476562 3140.648438 1016.691406 3141.09375 1013.847656 C 3141.542969 1011.003906 3141.746094 1008.144531 3141.703125 1005.265625 C 3141.65625 1002.386719 3141.367188 999.53125 3140.832031 996.703125 C 3140.296875 993.875 3139.527344 991.113281 3138.515625 988.417969 C 3131.503906 974.90625 3114.074219 970.257812 3073.191406 962.339844 C 3026.628906 953.34375 2999.601562 945.210938 2990.351562 928 C 2984.753906 917.671875 2984.972656 900.371094 2991.425781 868.09375 C 3003.003906 809.566406 3021.25 781.941406 3138.214844 781.941406 L 3240.808594 781.941406 L 3232.03125 829.363281 L 3118.117188 829.363281 C 3085.328125 830.179688 3067.941406 832.117188 3061.398438 865.082031 C 3058.902344 879.15625 3056.839844 889.441406 3061.917969 899.769531 C 3068.757812 912.9375 3085.199219 916.464844 3125.089844 924.898438 C 3177.765625 936.046875 3202.292969 946.417969 3209.78125 960.875 C 3215.679688 972.496094 3212.664062 990.570312 3207.070312 1019.015625 C 3194.632812 1081.804688 3179.097656 1105.515625 3063.765625 1105.515625 L 2942.96875 1105.085938 Z M 2506.214844 1105.214844 C 2455.519531 1105.214844 2420.402344 1094.066406 2402.199219 1071.90625 C 2386.277344 1052.410156 2381.972656 1022.847656 2389.546875 983.855469 L 2406.027344 903.46875 C 2422.082031 821.015625 2476.734375 778.753906 2568.484375 778.753906 C 2612.078125 778.753906 2642.289062 789.039062 2658.339844 808.019531 C 2674.390625 826.953125 2679.039062 859.574219 2670.046875 903.039062 L 2657.996094 961.566406 L 2467.050781 961.566406 L 2462.578125 984.375 C 2458.144531 1007.613281 2460.296875 1022.933594 2469.632812 1034.378906 C 2479.960938 1047.375 2498.511719 1052.753906 2531.777344 1052.753906 C 2555.660156 1052.753906 2593.140625 1050.257812 2622.019531 1047.761719 L 2612.550781 1097.683594 C 2577.132812 1102.160156 2541.542969 1104.570312 2505.871094 1104.785156 L 2506.300781 1105.214844 Z M 2554.28125 827.597656 C 2503.675781 827.597656 2487.105469 858.496094 2481.8125 884.101562 L 2475.359375 917.152344 L 2598.996094 917.152344 L 2604.289062 889.527344 C 2604.847656 887.601562 2605.300781 885.652344 2605.648438 883.679688 C 2605.996094 881.707031 2606.234375 879.722656 2606.363281 877.722656 C 2606.492188 875.722656 2606.511719 873.722656 2606.425781 871.722656 C 2606.335938 869.722656 2606.136719 867.730469 2605.828125 865.75 C 2605.519531 863.769531 2605.105469 861.816406 2604.582031 859.878906 C 2604.0625 857.945312 2603.433594 856.046875 2602.703125 854.179688 C 2601.976562 852.316406 2601.144531 850.496094 2600.214844 848.722656 C 2599.285156 846.945312 2598.261719 845.226562 2597.144531 843.566406 C 2588.238281 833.238281 2574.164062 827.597656 2553.980469 827.597656 M 1371.3125 1105.214844 C 1320.445312 1105.214844 1285.457031 1094.066406 1267.167969 1071.90625 C 1251.203125 1052.410156 1246.425781 1022.847656 1254.515625 983.855469 L 1270.957031 903.46875 C 1287.136719 821.015625 1341.660156 778.753906 1433.410156 778.753906 C 1477.089844 778.753906 1507.34375 789.039062 1523.265625 808.019531 C 1539.1875 826.953125 1544.007812 859.574219 1535.101562 903.039062 L 1522.878906 961.566406 L 1331.804688 961.566406 L 1327.375 984.375 C 1322.941406 1007.613281 1325.136719 1022.933594 1334.429688 1034.378906 C 1344.757812 1047.375 1363.308594 1052.753906 1396.574219 1052.753906 C 1420.457031 1052.753906 1457.941406 1050.257812 1486.945312 1047.761719 L 1477.304688 1097.683594 C 1441.972656 1102.160156 1406.382812 1104.570312 1370.753906 1104.785156 Z M 1419.121094 827.597656 C 1368.601562 827.597656 1352.03125 858.496094 1346.652344 884.101562 L 1340.199219 916.980469 L 1464.480469 916.980469 L 1469.859375 889.351562 C 1472.355469 876.355469 1474.292969 857.507812 1462.628906 843.351562 C 1453.808594 833.023438 1439.605469 827.425781 1419.425781 827.425781 " fill-opacity="1" fill-rule="nonzero"/></g></svg>