<svg id="Layer_1" data-name="Layer 1" xmlns="http://www.w3.org/2000/svg" viewBox="0 0 347.5 426.5"><defs><style>.cls-1{fill:none;}.cls-2{fill:#ff6e00;}.cls-3{fill:#123133;}</style></defs><path class="cls-1" d="M272,26.57v140.7l-30,29.88-32-31.94V30.87a215.36,215.36,0,0,1,58.38-.49V26.57Z" transform="translate(-69.91 -26.57)"/><path class="cls-1" d="M272,450.83v2.24H241A214,214,0,0,0,272,450.83Z" transform="translate(-69.91 -26.57)"/><path class="cls-1" d="M241,453.07H210v-2.24A214,214,0,0,0,241,453.07Z" transform="translate(-69.91 -26.57)"/><path class="cls-2" d="M216,279.4V55.59a216.59,216.59,0,0,1,62,0V277.34l-32,31.93L219.66,283l-2.54-2.53Z" transform="translate(-69.91 -26.57)"/><polygon class="cls-1" points="140.09 138.64 140.09 202.51 137.54 205.05 128.28 214.28 0.7 87.07 0 86.37 43.83 42.67 44.69 43.52 140.09 138.64"/><polygon class="cls-1" points="172.11 170.58 140.09 202.51 140.09 138.64 172.11 170.58"/><path class="cls-1" d="M416.21,370.82l-43.83,43.7-3.8-3.79a213.33,213.33,0,0,0,43.67-43.86Z" transform="translate(-69.91 -26.57)"/><path class="cls-2" d="M75.78,139.55A213.08,213.08,0,0,1,119.46,95.7L216,192l73.8,73.57-9.26,9.23L278,277.34l-32,31.93L219.66,283l-2.54-2.53L216,279.4Z" transform="translate(-69.91 -26.57)"/><polygon class="cls-1" points="334.93 95.64 215.94 214.28 202.08 200.45 202.08 140.7 291.1 51.94 334.93 95.64"/><polygon class="cls-1" points="202.08 140.7 202.08 200.45 172.11 170.58 202.08 140.7"/><path class="cls-2" d="M202.18,265.57,373.43,94.82a213.14,213.14,0,0,1,44,43.55L289.84,265.57l-9.26,9.23L278,277.34l-32,31.93L219.66,283l-2.54-2.53L216,279.4Z" transform="translate(-69.91 -26.57)"/><path class="cls-1" d="M268.38,26.57v3.81a215.36,215.36,0,0,0-58.38.49v-4.3Z" transform="translate(-69.91 -26.57)"/><path class="cls-3" d="M214.49,451.32V253.21l32-31.93,30,29.87V450.28c-1.2.19-2.41.38-3.62.55a215.36,215.36,0,0,1-58.38.49Z" transform="translate(-69.91 -26.57)"/><path class="cls-3" d="M202.69,265l43.83-43.7L404,378.32a213.78,213.78,0,0,1-28.15,27.4l-6.75,6.74-.86-.86q-5.36,4-10.94,7.55l-146.45-146Z" transform="translate(-69.91 -26.57)"/><path class="cls-3" d="M84.07,383.25l162.45-162L290.35,265,276.49,278.8l-65.61,65.42-78.73,78.5A213.21,213.21,0,0,1,84.07,383.25Z" transform="translate(-69.91 -26.57)"/></svg>