<svg id="Layer_1" data-name="Layer 1" xmlns="http://www.w3.org/2000/svg" viewBox="0 0 500 200"><defs><style>.cls-1{fill:#fff;}.cls-2{fill:none;}.cls-3{fill:#ff6e00;}.cls-4,.cls-5{fill:#123133;}.cls-5{font-size:64.98px;font-family:ArdelaEdgeX02-Black;font-weight:800;}</style></defs><rect class="cls-1" width="500" height="200"/><path class="cls-2" d="M84.31,56.88V81.49l-5.24,5.23-5.6-5.59V57.63a37.28,37.28,0,0,1,5.42-.39,37.91,37.91,0,0,1,4.79.3v-.66Z"/><path class="cls-2" d="M84.31,131.09v.39H78.89A37.28,37.28,0,0,0,84.31,131.09Z"/><path class="cls-2" d="M78.89,131.48H73.47v-.39A37.28,37.28,0,0,0,78.89,131.48Z"/><path class="cls-3" d="M74.53,101.1V62a37.86,37.86,0,0,1,10.84,0v38.79l-5.6,5.59-4.61-4.6-.45-.44Z"/><polygon class="cls-2" points="73.47 81.13 73.47 92.3 73.03 92.75 71.41 94.36 49.09 72.11 48.97 71.99 56.63 64.34 56.78 64.49 73.47 81.13"/><polygon class="cls-2" points="79.07 86.72 73.47 92.3 73.47 81.13 79.07 86.72"/><path class="cls-2" d="M109.54,117.1l-7.67,7.64-.66-.66a37.32,37.32,0,0,0,7.64-7.68Z"/><path class="cls-3" d="M50,76.64A37.53,37.53,0,0,1,57.63,69l16.9,16.85L87.44,98.69l-1.62,1.61-.45.44-5.6,5.59-4.61-4.6-.45-.44-.18-.19Z"/><polygon class="cls-2" points="107.55 73.61 86.74 94.36 84.31 91.94 84.31 81.49 99.89 65.96 107.55 73.61"/><polygon class="cls-2" points="84.31 81.49 84.31 91.94 79.07 86.72 84.31 81.49"/><path class="cls-3" d="M72.1,98.69l30-29.87a37.48,37.48,0,0,1,7.69,7.61L87.44,98.69l-1.62,1.61-.45.44-5.6,5.59-4.61-4.6-.45-.44-.18-.19Z"/><path class="cls-2" d="M83.68,56.88v.66a37.91,37.91,0,0,0-4.79-.3,37.28,37.28,0,0,0-5.42.39v-.75Z"/><path class="cls-4" d="M74.26,131.18V96.52l5.6-5.58,5.24,5.22V131l-.63.1a37.28,37.28,0,0,1-5.42.39A37.68,37.68,0,0,1,74.26,131.18Z"/><path class="cls-4" d="M72.19,98.58l7.67-7.64,27.55,27.47a37.75,37.75,0,0,1-4.92,4.79l-1.19,1.18-.15-.15c-.62.46-1.26.9-1.91,1.32L73.62,100Z"/><path class="cls-4" d="M51.44,119.27,79.86,90.94l7.67,7.64L85.1,101,73.62,112.44,59.85,126.17A37.28,37.28,0,0,1,51.44,119.27Z"/><text class="cls-5" transform="translate(122.94 121.48)">Talabaty</text></svg>