<svg id="Layer_1" data-name="Layer 1" xmlns="http://www.w3.org/2000/svg" viewBox="0 0 326.57 390.68"><defs><style>.cls-1{fill:#ff6e00;}.cls-2{fill:none;}.cls-3{fill:#123133;}</style></defs><path class="cls-1" d="M205.61,12.64V229.15l-1.55,1.55-29.93,29.83-.55.55,0,0-26.31-26.23-2.54-2.53-1.08-1.07V12.64a197.54,197.54,0,0,1,55.95-.87C201.59,12,203.6,12.32,205.61,12.64Z" transform="translate(-10.92 -10.19)"/><path class="cls-1" d="M217.41,217.38l-9.26,9.23-2.54,2.54-1.55,1.55-29.93,29.83-.55.55,0,0-26.31-26.23-2.54-2.53-1.08-1.07-1.55-1.55-12.31-12.28-.05,0L10.92,98.9Q15,92.65,19.54,86.73A196.17,196.17,0,0,1,52.55,53l85,84.78,6,6,15.58,15.53,14.35,14.3,0,0,30.48,30.39,1.55,1.55,11.76,11.72Z" transform="translate(-10.92 -10.19)"/><polygon class="cls-2" points="188.64 108.89 188.64 168.65 158.68 138.77 188.64 108.89"/><path class="cls-1" d="M337.49,97.66,218,216.83l-.55.55-9.26,9.23-2.54,2.54-1.55,1.55-29.93,29.83-.55.55,0,0-26.31-26.23-2.54-2.53-1.08-1.07-1.55-1.55-12.31-12.28.55-.55,11.76-11.72,1.55-1.55,30-29.88.55-.55L184,163.3l15.57-15.53,6.05-6L295.52,52.1a196.4,196.4,0,0,1,29.73,29.06A194,194,0,0,1,337.49,97.66Z" transform="translate(-10.92 -10.19)"/><path class="cls-3" d="M204.06,203v195.7a197.45,197.45,0,0,1-62-.49V205l1.55-1.55h0l29.93-29.83.55-.55,0,0L177,176Z" transform="translate(-10.92 -10.19)"/><path class="cls-3" d="M282.39,368.46l-78.33-78.1-29.93-29.83,0,0-30.49-30.4-1.55-1.54-3.61-3.6-8.15-8.12,0,0L142.06,205l1.55-1.55h0l29.93-29.83.55-.55,0,0L204.06,203l1.55,1.55,12.31,12.27,0,0L328,326.51A195.85,195.85,0,0,1,282.39,368.46Z" transform="translate(-10.92 -10.19)"/><path class="cls-3" d="M217.92,216.79l-.55.55-11.76,11.72-1.55,1.55-30,29.88-.56.55-31.48,31.39-3.61,3.6-72.24,72a196.28,196.28,0,0,1-45.42-42.12L129.7,217.34l.56-.55L142.06,205l1.55-1.55h0l29.93-29.83.55-.55,0,0L177,176l27,27,1.55,1.55Z" transform="translate(-10.92 -10.19)"/></svg>