<svg width="16" height="16" viewBox="0 0 16 16" fill="none" xmlns="http://www.w3.org/2000/svg">
<path fill-rule="evenodd" clip-rule="evenodd" d="M8.00002 0.666504C3.94993 0.666504 0.666687 3.94975 0.666687 7.99984C0.666687 12.0499 3.94993 15.3332 8.00002 15.3332C12.0501 15.3332 15.3334 12.0499 15.3334 7.99984C15.3334 3.94975 12.0501 0.666504 8.00002 0.666504ZM8.66669 5.33317C8.66669 4.96498 8.36821 4.6665 8.00002 4.6665C7.63183 4.6665 7.33335 4.96498 7.33335 5.33317V7.99984C7.33335 8.36803 7.63183 8.6665 8.00002 8.6665C8.36821 8.6665 8.66669 8.36803 8.66669 7.99984V5.33317ZM8.00002 9.99984C7.63183 9.99984 7.33335 10.2983 7.33335 10.6665C7.33335 11.0347 7.63183 11.3332 8.00002 11.3332H8.00669C8.37488 11.3332 8.67335 11.0347 8.67335 10.6665C8.67335 10.2983 8.37488 9.99984 8.00669 9.99984H8.00002Z" fill="#F53535"/>
</svg>
