<svg width="20" height="20" viewBox="0 0 20 20" fill="none" xmlns="http://www.w3.org/2000/svg">
<path fill-rule="evenodd" clip-rule="evenodd" d="M10.0007 0.833252C4.93804 0.833252 0.833984 4.93731 0.833984 9.99992C0.833984 15.0625 4.93804 19.1666 10.0007 19.1666C15.0633 19.1666 19.1673 15.0625 19.1673 9.99992C19.1673 4.93731 15.0633 0.833252 10.0007 0.833252ZM10.834 6.66658C10.834 6.20635 10.4609 5.83325 10.0007 5.83325C9.54041 5.83325 9.16732 6.20635 9.16732 6.66658V9.99992C9.16732 10.4602 9.54041 10.8333 10.0007 10.8333C10.4609 10.8333 10.834 10.4602 10.834 9.99992V6.66658ZM10.0007 12.4999C9.54041 12.4999 9.16732 12.873 9.16732 13.3333C9.16732 13.7935 9.54041 14.1666 10.0007 14.1666H10.009C10.4692 14.1666 10.8423 13.7935 10.8423 13.3333C10.8423 12.873 10.4692 12.4999 10.009 12.4999H10.0007Z" fill="#FF6B34"/>
</svg>
