<svg xmlns="http://www.w3.org/2000/svg" xmlns:xlink="http://www.w3.org/1999/xlink" width="1080" zoomAndPan="magnify" viewBox="0 0 810 809.999993" height="1080" preserveAspectRatio="xMidYMid meet" version="1.0"><defs><clipPath id="3898f7576f"><path d="M 40.433594 36.550781 L 773.449219 36.550781 L 773.449219 769.566406 L 40.433594 769.566406 Z M 40.433594 36.550781 " clip-rule="nonzero"/></clipPath><clipPath id="73e0fe6022"><path d="M 406.941406 36.550781 C 204.527344 36.550781 40.433594 200.640625 40.433594 403.058594 C 40.433594 605.472656 204.527344 769.566406 406.941406 769.566406 C 609.359375 769.566406 773.449219 605.472656 773.449219 403.058594 C 773.449219 200.640625 609.359375 36.550781 406.941406 36.550781 Z M 406.941406 36.550781 " clip-rule="nonzero"/></clipPath><clipPath id="7b649e9df0"><path d="M 85.429688 604.734375 L 195.082031 604.734375 L 195.082031 714.390625 L 85.429688 714.390625 Z M 85.429688 604.734375 " clip-rule="nonzero"/></clipPath><clipPath id="36741c4131"><path d="M 140.253906 604.734375 C 109.976562 604.734375 85.429688 629.28125 85.429688 659.5625 C 85.429688 689.84375 109.976562 714.390625 140.253906 714.390625 C 170.535156 714.390625 195.082031 689.84375 195.082031 659.5625 C 195.082031 629.28125 170.535156 604.734375 140.253906 604.734375 Z M 140.253906 604.734375 " clip-rule="nonzero"/></clipPath><clipPath id="a2bf91fc5a"><path d="M 30.253906 28.171875 L 779.503906 28.171875 L 779.503906 781.921875 L 30.253906 781.921875 Z M 30.253906 28.171875 " clip-rule="nonzero"/></clipPath></defs><g clip-path="url(#3898f7576f)"><g clip-path="url(#73e0fe6022)"><path fill="#adacb0" d="M 40.433594 36.550781 L 773.449219 36.550781 L 773.449219 769.566406 L 40.433594 769.566406 Z M 40.433594 36.550781 " fill-opacity="1" fill-rule="nonzero"/></g></g><g clip-path="url(#7b649e9df0)"><g clip-path="url(#36741c4131)"><path fill="#adacb0" d="M 85.429688 604.734375 L 195.082031 604.734375 L 195.082031 714.390625 L 85.429688 714.390625 Z M 85.429688 604.734375 " fill-opacity="1" fill-rule="nonzero"/></g></g><g clip-path="url(#a2bf91fc5a)"><path fill="#ffffff" d="M 670.332031 137.625 C 599.910156 67.082031 506.246094 28.210938 406.453125 28.175781 C 200.8125 28.175781 33.453125 195.589844 33.382812 401.371094 C 33.347656 467.15625 50.539062 531.363281 83.183594 587.953125 L 30.253906 781.367188 L 228.019531 729.46875 C 282.507812 759.214844 343.863281 774.871094 406.289062 774.890625 L 406.453125 774.890625 C 612.054688 774.890625 779.433594 607.457031 779.503906 401.675781 C 779.539062 301.945312 740.773438 208.1875 670.332031 137.644531 Z M 406.453125 711.859375 L 406.328125 711.859375 C 350.695312 711.84375 296.121094 696.882812 248.503906 668.625 L 237.179688 661.898438 L 119.816406 692.695312 L 151.140625 578.214844 L 143.769531 566.476562 C 112.734375 517.085938 96.332031 459.996094 96.367188 401.390625 C 96.4375 230.359375 235.535156 91.203125 406.578125 91.203125 C 489.398438 91.238281 567.246094 123.542969 625.792969 182.183594 C 684.339844 240.8125 716.554688 318.765625 716.519531 401.640625 C 716.445312 572.6875 577.351562 711.84375 406.453125 711.84375 Z M 576.527344 479.539062 C 567.210938 474.871094 521.382812 452.320312 512.832031 449.207031 C 504.28125 446.089844 498.074219 444.535156 491.867188 453.875 C 485.660156 463.21875 467.789062 484.226562 462.351562 490.4375 C 456.914062 496.664062 451.476562 497.4375 442.15625 492.761719 C 432.835938 488.09375 402.804688 478.25 367.1875 446.484375 C 339.480469 421.753906 320.769531 391.222656 315.332031 381.882812 C 309.894531 372.542969 314.757812 367.496094 319.410156 362.859375 C 323.59375 358.671875 328.730469 351.960938 333.398438 346.519531 C 338.066406 341.078125 339.605469 337.179688 342.71875 330.96875 C 345.832031 324.742188 344.273438 319.300781 341.949219 314.628906 C 339.621094 309.960938 320.984375 264.058594 313.203125 245.390625 C 305.636719 227.210938 297.945312 229.679688 292.238281 229.375 C 286.800781 229.105469 280.59375 229.054688 274.367188 229.054688 C 268.144531 229.054688 258.054688 231.378906 249.503906 240.722656 C 240.953125 250.0625 216.875 272.628906 216.875 318.511719 C 216.875 364.398438 250.273438 408.761719 254.941406 414.992188 C 259.609375 421.21875 320.679688 515.402344 414.179688 555.8125 C 436.414062 565.421875 453.78125 571.164062 467.324219 575.460938 C 489.648438 582.566406 509.96875 581.5625 526.03125 579.164062 C 543.9375 576.480469 581.179688 556.597656 588.945312 534.820312 C 596.707031 513.039062 596.707031 494.355469 594.382812 490.472656 C 592.058594 486.589844 585.832031 484.246094 576.511719 479.574219 Z M 576.527344 479.539062 " fill-opacity="1" fill-rule="evenodd"/></g></svg>